<?xml version="1.0" encoding="utf-8" standalone="no"?>
<!DOCTYPE svg PUBLIC "-//W3C//DTD SVG 1.1//EN"
  "http://www.w3.org/Graphics/SVG/1.1/DTD/svg11.dtd">
<svg xmlns:xlink="http://www.w3.org/1999/xlink" width="628.2pt" height="333.7224pt" viewBox="0 0 628.2 333.7224" xmlns="http://www.w3.org/2000/svg" version="1.1">
 <metadata>
  <rdf:RDF xmlns:dc="http://purl.org/dc/elements/1.1/" xmlns:cc="http://creativecommons.org/ns#" xmlns:rdf="http://www.w3.org/1999/02/22-rdf-syntax-ns#">
   <cc:Work>
    <dc:type rdf:resource="http://purl.org/dc/dcmitype/StillImage"/>
    <dc:date>2026-06-16T03:13:35.214615</dc:date>
    <dc:format>image/svg+xml</dc:format>
    <dc:creator>
     <cc:Agent>
      <dc:title>Matplotlib v3.10.9, https://matplotlib.org/</dc:title>
     </cc:Agent>
    </dc:creator>
   </cc:Work>
  </rdf:RDF>
 </metadata>
 <defs>
  <style type="text/css">*{stroke-linejoin: round; stroke-linecap: butt}</style>
 </defs>
 <g id="figure_1">
  <g id="patch_1">
   <path d="M 0 333.7224 
L 628.2 333.7224 
L 628.2 0 
L 0 0 
z
" style="fill: #ffffff"/>
  </g>
  <g id="axes_1">
   <g id="patch_2">
    <path d="M 22.824 174.6816 
L 158.976 174.6816 
Q 165.672 174.6816 165.672 168.0288 
L 165.672 82.6512 
Q 165.672 75.9984 158.976 75.9984 
L 22.824 75.9984 
Q 16.128 75.9984 16.128 82.6512 
L 16.128 168.0288 
Q 16.128 174.6816 22.824 174.6816 
z
" clip-path="url(#p0f283ccdef)" style="fill: #eaf1fb; stroke: #283142; stroke-width: 1.4; stroke-linejoin: miter"/>
   </g>
   <g id="patch_3">
    <path d="M 33.984 285.5616 
L 147.816 285.5616 
Q 154.512 285.5616 154.512 278.9088 
L 154.512 204.6192 
Q 154.512 197.9664 147.816 197.9664 
L 33.984 197.9664 
Q 27.288 197.9664 27.288 204.6192 
L 27.288 278.9088 
Q 27.288 285.5616 33.984 285.5616 
z
" clip-path="url(#p0f283ccdef)" style="fill: #fff7e0; stroke: #283142; stroke-width: 1.4; stroke-linejoin: miter"/>
   </g>
   <g id="patch_4">
    <path d="M 90.9 198.184181 
Q 90.9 186.324075 90.9 176.252824 
" clip-path="url(#p0f283ccdef)" style="fill: none; stroke: #1f3a5f; stroke-width: 1.6; stroke-linecap: round"/>
    <path d="M 88.1 181.852824 
L 90.9 176.252824 
L 93.7 181.852824 
z
" clip-path="url(#p0f283ccdef)" style="fill: #1f3a5f; stroke: #1f3a5f; stroke-width: 1.6; stroke-linecap: round"/>
   </g>
   <g id="patch_5">
    <path d="M 201.384 174.6816 
L 337.536 174.6816 
Q 344.232 174.6816 344.232 168.0288 
L 344.232 82.6512 
Q 344.232 75.9984 337.536 75.9984 
L 201.384 75.9984 
Q 194.688 75.9984 194.688 82.6512 
L 194.688 168.0288 
Q 194.688 174.6816 201.384 174.6816 
z
" clip-path="url(#p0f283ccdef)" style="fill: #f0e5f2; stroke: #283142; stroke-width: 1.4; stroke-linejoin: miter"/>
   </g>
   <g id="patch_6">
    <path d="M 201.384 285.5616 
L 337.536 285.5616 
Q 344.232 285.5616 344.232 278.9088 
L 344.232 204.6192 
Q 344.232 197.9664 337.536 197.9664 
L 201.384 197.9664 
Q 194.688 197.9664 194.688 204.6192 
L 194.688 278.9088 
Q 194.688 285.5616 201.384 285.5616 
z
" clip-path="url(#p0f283ccdef)" style="fill: #e8ecf1; stroke: #283142; stroke-width: 1.4; stroke-linejoin: miter"/>
   </g>
   <g id="patch_7">
    <path d="M 176.602588 125.34 
Q 185.761792 125.34 193.132142 125.34 
" clip-path="url(#p0f283ccdef)" style="fill: none; stroke: #1f3a5f; stroke-width: 1.6; stroke-linecap: round"/>
    <path d="M 187.532142 122.54 
L 193.132142 125.34 
L 187.532142 128.14 
z
" clip-path="url(#p0f283ccdef)" style="fill: #1f3a5f; stroke: #1f3a5f; stroke-width: 1.6; stroke-linecap: round"/>
   </g>
   <g id="patch_8">
    <path d="M 159.85782 241.764 
Q 177.386801 241.764 193.126929 241.764 
" clip-path="url(#p0f283ccdef)" style="fill: none; stroke: #1f3a5f; stroke-width: 1.6; stroke-linecap: round"/>
    <path d="M 187.526929 238.964 
L 193.126929 241.764 
L 187.526929 244.564 
z
" clip-path="url(#p0f283ccdef)" style="fill: #1f3a5f; stroke: #1f3a5f; stroke-width: 1.6; stroke-linecap: round"/>
   </g>
   <g id="patch_9">
    <path d="M 379.944 174.6816 
L 504.936 174.6816 
Q 511.632 174.6816 511.632 168.0288 
L 511.632 82.6512 
Q 511.632 75.9984 504.936 75.9984 
L 379.944 75.9984 
Q 373.248 75.9984 373.248 82.6512 
L 373.248 168.0288 
Q 373.248 174.6816 379.944 174.6816 
z
" clip-path="url(#p0f283ccdef)" style="fill: #eaf1fb; stroke: #283142; stroke-width: 1.4; stroke-linejoin: miter"/>
   </g>
   <g id="patch_10">
    <path d="M 343.998501 125.34 
Q 358.73816 125.34 371.688965 125.34 
" clip-path="url(#p0f283ccdef)" style="fill: none; stroke: #1f3a5f; stroke-width: 1.6; stroke-linecap: round"/>
    <path d="M 366.088965 122.54 
L 371.688965 125.34 
L 366.088965 128.14 
z
" clip-path="url(#p0f283ccdef)" style="fill: #1f3a5f; stroke: #1f3a5f; stroke-width: 1.6; stroke-linecap: round"/>
   </g>
   <g id="patch_11">
    <path d="M 342.769362 239.916705 
Q 358.739856 201.570347 374.022591 164.875348 
" clip-path="url(#p0f283ccdef)" style="fill: none; stroke: #1f3a5f; stroke-width: 1.6; stroke-linecap: round"/>
    <path d="M 369.284781 168.968409 
L 374.022591 164.875348 
L 374.454354 171.121433 
z
" clip-path="url(#p0f283ccdef)" style="fill: #1f3a5f; stroke: #1f3a5f; stroke-width: 1.6; stroke-linecap: round"/>
   </g>
   <g id="patch_12">
    <path d="M 379.944 285.5616 
L 504.936 285.5616 
Q 511.632 285.5616 511.632 278.9088 
L 511.632 210.1632 
Q 511.632 203.5104 504.936 203.5104 
L 379.944 203.5104 
Q 373.248 203.5104 373.248 210.1632 
L 373.248 278.9088 
Q 373.248 285.5616 379.944 285.5616 
z
" clip-path="url(#p0f283ccdef)" style="fill: #fff7e0; stroke: #283142; stroke-width: 1.4; stroke-linejoin: miter"/>
   </g>
   <g id="patch_13">
    <path d="M 442.44 174.46585 
Q 442.44 189.095177 442.44 201.935651 
" clip-path="url(#p0f283ccdef)" style="fill: none; stroke: #1f3a5f; stroke-width: 1.6; stroke-linecap: round"/>
    <path d="M 445.24 196.335651 
L 442.44 201.935651 
L 439.64 196.335651 
z
" clip-path="url(#p0f283ccdef)" style="fill: #1f3a5f; stroke: #1f3a5f; stroke-width: 1.6; stroke-linecap: round"/>
   </g>
   <g id="patch_14">
    <path d="M 536.184 285.5616 
L 610.956 285.5616 
Q 617.652 285.5616 617.652 278.9088 
L 617.652 82.6512 
Q 617.652 75.9984 610.956 75.9984 
L 536.184 75.9984 
Q 529.488 75.9984 529.488 82.6512 
L 529.488 278.9088 
Q 529.488 285.5616 536.184 285.5616 
z
" clip-path="url(#p0f283ccdef)" style="fill: #e6f4ea; stroke: #283142; stroke-width: 1.4; stroke-linejoin: miter"/>
   </g>
   <g id="patch_15">
    <path d="M 511.402588 244.536 
Q 520.561792 244.536 527.932142 244.536 
" clip-path="url(#p0f283ccdef)" style="fill: none; stroke: #c44536; stroke-width: 1.6; stroke-linecap: round"/>
    <path d="M 522.332142 241.736 
L 527.932142 244.536 
L 522.332142 247.336 
z
" clip-path="url(#p0f283ccdef)" style="fill: #c44536; stroke: #c44536; stroke-width: 1.6; stroke-linecap: round"/>
   </g>
   <g id="patch_16">
    <path d="M 511.402588 125.34 
Q 520.561792 125.34 527.932142 125.34 
" clip-path="url(#p0f283ccdef)" style="fill: none; stroke: #2e7d32; stroke-width: 1.6; stroke-linecap: round"/>
    <path d="M 522.332142 122.54 
L 527.932142 125.34 
L 522.332142 128.14 
z
" clip-path="url(#p0f283ccdef)" style="fill: #2e7d32; stroke: #2e7d32; stroke-width: 1.6; stroke-linecap: round"/>
   </g>
   <g id="text_1">
    <!-- Kaggle Notebook -->
    <g style="fill: #283142" transform="translate(42.472656 118.081112) scale(0.1 -0.1)">
     <defs>
      <path id="DejaVuSans-Bold-4b" d="M 588 4666 
L 1791 4666 
L 1791 2963 
L 3525 4666 
L 4922 4666 
L 2675 2456 
L 5153 0 
L 3647 0 
L 1791 1838 
L 1791 0 
L 588 0 
L 588 4666 
z
" transform="scale(0.015625)"/>
      <path id="DejaVuSans-Bold-61" d="M 2106 1575 
Q 1756 1575 1579 1456 
Q 1403 1338 1403 1106 
Q 1403 894 1545 773 
Q 1688 653 1941 653 
Q 2256 653 2472 879 
Q 2688 1106 2688 1447 
L 2688 1575 
L 2106 1575 
z
M 3816 1997 
L 3816 0 
L 2688 0 
L 2688 519 
Q 2463 200 2181 54 
Q 1900 -91 1497 -91 
Q 953 -91 614 226 
Q 275 544 275 1050 
Q 275 1666 698 1953 
Q 1122 2241 2028 2241 
L 2688 2241 
L 2688 2328 
Q 2688 2594 2478 2717 
Q 2269 2841 1825 2841 
Q 1466 2841 1156 2769 
Q 847 2697 581 2553 
L 581 3406 
Q 941 3494 1303 3539 
Q 1666 3584 2028 3584 
Q 2975 3584 3395 3211 
Q 3816 2838 3816 1997 
z
" transform="scale(0.015625)"/>
      <path id="DejaVuSans-Bold-67" d="M 2919 594 
Q 2688 288 2409 144 
Q 2131 0 1766 0 
Q 1125 0 706 504 
Q 288 1009 288 1791 
Q 288 2575 706 3076 
Q 1125 3578 1766 3578 
Q 2131 3578 2409 3434 
Q 2688 3291 2919 2981 
L 2919 3500 
L 4044 3500 
L 4044 353 
Q 4044 -491 3511 -936 
Q 2978 -1381 1966 -1381 
Q 1638 -1381 1331 -1331 
Q 1025 -1281 716 -1178 
L 716 -306 
Q 1009 -475 1290 -558 
Q 1572 -641 1856 -641 
Q 2406 -641 2662 -400 
Q 2919 -159 2919 353 
L 2919 594 
z
M 2181 2772 
Q 1834 2772 1640 2515 
Q 1447 2259 1447 1791 
Q 1447 1309 1634 1061 
Q 1822 813 2181 813 
Q 2531 813 2725 1069 
Q 2919 1325 2919 1791 
Q 2919 2259 2725 2515 
Q 2531 2772 2181 2772 
z
" transform="scale(0.015625)"/>
      <path id="DejaVuSans-Bold-6c" d="M 538 4863 
L 1656 4863 
L 1656 0 
L 538 0 
L 538 4863 
z
" transform="scale(0.015625)"/>
      <path id="DejaVuSans-Bold-65" d="M 4031 1759 
L 4031 1441 
L 1416 1441 
Q 1456 1047 1700 850 
Q 1944 653 2381 653 
Q 2734 653 3104 758 
Q 3475 863 3866 1075 
L 3866 213 
Q 3469 63 3072 -14 
Q 2675 -91 2278 -91 
Q 1328 -91 801 392 
Q 275 875 275 1747 
Q 275 2603 792 3093 
Q 1309 3584 2216 3584 
Q 3041 3584 3536 3087 
Q 4031 2591 4031 1759 
z
M 2881 2131 
Q 2881 2450 2695 2645 
Q 2509 2841 2209 2841 
Q 1884 2841 1681 2658 
Q 1478 2475 1428 2131 
L 2881 2131 
z
" transform="scale(0.015625)"/>
      <path id="DejaVuSans-Bold-20" transform="scale(0.015625)"/>
      <path id="DejaVuSans-Bold-4e" d="M 588 4666 
L 1931 4666 
L 3628 1466 
L 3628 4666 
L 4769 4666 
L 4769 0 
L 3425 0 
L 1728 3200 
L 1728 0 
L 588 0 
L 588 4666 
z
" transform="scale(0.015625)"/>
      <path id="DejaVuSans-Bold-6f" d="M 2203 2784 
Q 1831 2784 1636 2517 
Q 1441 2250 1441 1747 
Q 1441 1244 1636 976 
Q 1831 709 2203 709 
Q 2569 709 2762 976 
Q 2956 1244 2956 1747 
Q 2956 2250 2762 2517 
Q 2569 2784 2203 2784 
z
M 2203 3584 
Q 3106 3584 3614 3096 
Q 4122 2609 4122 1747 
Q 4122 884 3614 396 
Q 3106 -91 2203 -91 
Q 1297 -91 786 396 
Q 275 884 275 1747 
Q 275 2609 786 3096 
Q 1297 3584 2203 3584 
z
" transform="scale(0.015625)"/>
      <path id="DejaVuSans-Bold-74" d="M 1759 4494 
L 1759 3500 
L 2913 3500 
L 2913 2700 
L 1759 2700 
L 1759 1216 
Q 1759 972 1856 886 
Q 1953 800 2241 800 
L 2816 800 
L 2816 0 
L 1856 0 
Q 1194 0 917 276 
Q 641 553 641 1216 
L 641 2700 
L 84 2700 
L 84 3500 
L 641 3500 
L 641 4494 
L 1759 4494 
z
" transform="scale(0.015625)"/>
      <path id="DejaVuSans-Bold-62" d="M 2400 722 
Q 2759 722 2948 984 
Q 3138 1247 3138 1747 
Q 3138 2247 2948 2509 
Q 2759 2772 2400 2772 
Q 2041 2772 1848 2508 
Q 1656 2244 1656 1747 
Q 1656 1250 1848 986 
Q 2041 722 2400 722 
z
M 1656 2988 
Q 1888 3294 2169 3439 
Q 2450 3584 2816 3584 
Q 3463 3584 3878 3070 
Q 4294 2556 4294 1747 
Q 4294 938 3878 423 
Q 3463 -91 2816 -91 
Q 2450 -91 2169 54 
Q 1888 200 1656 506 
L 1656 0 
L 538 0 
L 538 4863 
L 1656 4863 
L 1656 2988 
z
" transform="scale(0.015625)"/>
      <path id="DejaVuSans-Bold-6b" d="M 538 4863 
L 1656 4863 
L 1656 2216 
L 2944 3500 
L 4244 3500 
L 2534 1894 
L 4378 0 
L 3022 0 
L 1656 1459 
L 1656 0 
L 538 0 
L 538 4863 
z
" transform="scale(0.015625)"/>
     </defs>
     <use xlink:href="#DejaVuSans-Bold-4b"/>
     <use xlink:href="#DejaVuSans-Bold-61" transform="translate(77.490234 0)"/>
     <use xlink:href="#DejaVuSans-Bold-67" transform="translate(144.970703 0)"/>
     <use xlink:href="#DejaVuSans-Bold-67" transform="translate(216.552734 0)"/>
     <use xlink:href="#DejaVuSans-Bold-6c" transform="translate(288.134766 0)"/>
     <use xlink:href="#DejaVuSans-Bold-65" transform="translate(322.412109 0)"/>
     <use xlink:href="#DejaVuSans-Bold-20" transform="translate(390.234375 0)"/>
     <use xlink:href="#DejaVuSans-Bold-4e" transform="translate(425.048828 0)"/>
     <use xlink:href="#DejaVuSans-Bold-6f" transform="translate(508.740234 0)"/>
     <use xlink:href="#DejaVuSans-Bold-74" transform="translate(577.441406 0)"/>
     <use xlink:href="#DejaVuSans-Bold-65" transform="translate(625.244141 0)"/>
     <use xlink:href="#DejaVuSans-Bold-62" transform="translate(693.066406 0)"/>
     <use xlink:href="#DejaVuSans-Bold-6f" transform="translate(764.648438 0)"/>
     <use xlink:href="#DejaVuSans-Bold-6f" transform="translate(833.349609 0)"/>
     <use xlink:href="#DejaVuSans-Bold-6b" transform="translate(902.050781 0)"/>
    </g>
   </g>
   <g id="text_2">
    <!-- all-MiniLM-L6-v2 (384-d) -->
    <g style="fill: #6c757d" transform="translate(39.275117 135.123198) scale(0.085 -0.085)">
     <defs>
      <path id="DejaVuSans-Oblique-61" d="M 3438 1997 
L 3047 0 
L 2472 0 
L 2578 531 
Q 2325 219 2001 64 
Q 1678 -91 1281 -91 
Q 834 -91 548 182 
Q 263 456 263 884 
Q 263 1497 752 1853 
Q 1241 2209 2100 2209 
L 2900 2209 
L 2931 2363 
Q 2938 2388 2941 2417 
Q 2944 2447 2944 2509 
Q 2944 2788 2717 2942 
Q 2491 3097 2081 3097 
Q 1800 3097 1504 3025 
Q 1209 2953 897 2809 
L 997 3341 
Q 1322 3463 1633 3523 
Q 1944 3584 2234 3584 
Q 2853 3584 3176 3315 
Q 3500 3047 3500 2534 
Q 3500 2431 3484 2292 
Q 3469 2153 3438 1997 
z
M 2816 1759 
L 2241 1759 
Q 1534 1759 1195 1570 
Q 856 1381 856 984 
Q 856 709 1029 553 
Q 1203 397 1509 397 
Q 1978 397 2328 733 
Q 2678 1069 2791 1631 
L 2816 1759 
z
" transform="scale(0.015625)"/>
      <path id="DejaVuSans-Oblique-6c" d="M 1172 4863 
L 1747 4863 
L 800 0 
L 225 0 
L 1172 4863 
z
" transform="scale(0.015625)"/>
      <path id="DejaVuSans-Oblique-2d" d="M 391 2009 
L 2075 2009 
L 1978 1497 
L 288 1497 
L 391 2009 
z
" transform="scale(0.015625)"/>
      <path id="DejaVuSans-Oblique-4d" d="M 1081 4666 
L 2028 4666 
L 2572 1522 
L 4378 4666 
L 5350 4666 
L 4441 0 
L 3828 0 
L 4622 4091 
L 2791 897 
L 2175 897 
L 1581 4103 
L 788 0 
L 172 0 
L 1081 4666 
z
" transform="scale(0.015625)"/>
      <path id="DejaVuSans-Oblique-69" d="M 1172 4863 
L 1747 4863 
L 1606 4134 
L 1031 4134 
L 1172 4863 
z
M 909 3500 
L 1484 3500 
L 800 0 
L 225 0 
L 909 3500 
z
" transform="scale(0.015625)"/>
      <path id="DejaVuSans-Oblique-6e" d="M 3566 2113 
L 3156 0 
L 2578 0 
L 2988 2091 
Q 3016 2238 3031 2350 
Q 3047 2463 3047 2528 
Q 3047 2791 2881 2937 
Q 2716 3084 2419 3084 
Q 1956 3084 1622 2776 
Q 1288 2469 1184 1941 
L 800 0 
L 225 0 
L 903 3500 
L 1478 3500 
L 1363 2950 
Q 1603 3253 1940 3418 
Q 2278 3584 2650 3584 
Q 3113 3584 3367 3334 
Q 3622 3084 3622 2631 
Q 3622 2519 3608 2391 
Q 3594 2263 3566 2113 
z
" transform="scale(0.015625)"/>
      <path id="DejaVuSans-Oblique-4c" d="M 1075 4666 
L 1709 4666 
L 909 525 
L 3181 525 
L 3078 0 
L 172 0 
L 1075 4666 
z
" transform="scale(0.015625)"/>
      <path id="DejaVuSans-Oblique-36" d="M 2938 1728 
Q 2938 2125 2734 2354 
Q 2531 2584 2181 2584 
Q 1697 2584 1367 2211 
Q 1038 1838 1038 1288 
Q 1038 875 1239 642 
Q 1441 409 1797 409 
Q 2284 409 2611 792 
Q 2938 1175 2938 1728 
z
M 3788 4556 
L 3681 3981 
Q 3500 4100 3265 4162 
Q 3031 4225 2766 4225 
Q 2119 4225 1726 3819 
Q 1334 3413 1141 2547 
Q 1369 2813 1670 2948 
Q 1972 3084 2322 3084 
Q 2894 3084 3233 2754 
Q 3572 2425 3572 1869 
Q 3572 1413 3405 1020 
Q 3238 628 2919 331 
Q 2700 128 2409 18 
Q 2119 -91 1791 -91 
Q 1147 -91 775 318 
Q 403 728 403 1441 
Q 403 2103 573 2717 
Q 744 3331 1050 3781 
Q 1372 4256 1830 4503 
Q 2288 4750 2841 4750 
Q 3084 4750 3321 4701 
Q 3559 4653 3788 4556 
z
" transform="scale(0.015625)"/>
      <path id="DejaVuSans-Oblique-76" d="M 459 3500 
L 1069 3500 
L 1581 525 
L 3256 3500 
L 3866 3500 
L 1875 0 
L 1100 0 
L 459 3500 
z
" transform="scale(0.015625)"/>
      <path id="DejaVuSans-Oblique-32" d="M 2950 2253 
L 934 525 
L 3163 525 
L 3053 0 
L 25 0 
L 128 531 
L 2234 2338 
Q 2656 2703 2832 2979 
Q 3009 3256 3009 3547 
Q 3009 3850 2796 4040 
Q 2584 4231 2241 4231 
Q 1944 4231 1581 4125 
Q 1219 4019 806 3816 
L 922 4441 
Q 1309 4594 1662 4672 
Q 2016 4750 2316 4750 
Q 2928 4750 3301 4425 
Q 3675 4100 3675 3572 
Q 3675 3216 3497 2892 
Q 3319 2569 2950 2253 
z
" transform="scale(0.015625)"/>
      <path id="DejaVuSans-Oblique-20" transform="scale(0.015625)"/>
      <path id="DejaVuSans-Oblique-28" d="M 2731 4856 
Q 1903 3822 1495 2892 
Q 1088 1963 1088 1100 
Q 1088 606 1206 120 
Q 1325 -366 1563 -844 
L 1063 -844 
Q 775 -306 634 201 
Q 494 709 494 1197 
Q 494 2125 923 3036 
Q 1353 3947 2222 4856 
L 2731 4856 
z
" transform="scale(0.015625)"/>
      <path id="DejaVuSans-Oblique-33" d="M 1013 4550 
Q 1356 4650 1679 4700 
Q 2003 4750 2316 4750 
Q 2934 4750 3296 4475 
Q 3659 4200 3659 3738 
Q 3659 3284 3373 2959 
Q 3088 2634 2584 2516 
Q 2978 2403 3162 2165 
Q 3347 1928 3347 1538 
Q 3347 1163 3167 834 
Q 2988 506 2650 269 
Q 2394 88 2037 -1 
Q 1681 -91 1216 -91 
Q 922 -91 622 -33 
Q 322 25 13 141 
L 128 738 
Q 422 575 720 495 
Q 1019 416 1331 416 
Q 1947 416 2330 733 
Q 2713 1050 2713 1556 
Q 2713 1881 2469 2057 
Q 2225 2234 1772 2234 
L 1228 2234 
L 1325 2747 
L 1900 2747 
Q 2419 2747 2717 2984 
Q 3016 3222 3016 3628 
Q 3016 3922 2797 4083 
Q 2578 4244 2181 4244 
Q 1881 4244 1567 4180 
Q 1253 4116 916 3988 
L 1013 4550 
z
" transform="scale(0.015625)"/>
      <path id="DejaVuSans-Oblique-38" d="M 2847 1416 
Q 2847 1769 2600 1992 
Q 2353 2216 1953 2216 
Q 1466 2216 1148 1923 
Q 831 1631 831 1184 
Q 831 828 1073 618 
Q 1316 409 1728 409 
Q 2219 409 2533 693 
Q 2847 978 2847 1416 
z
M 3169 3591 
Q 3169 3888 2950 4069 
Q 2731 4250 2369 4250 
Q 1941 4250 1664 4009 
Q 1388 3769 1388 3406 
Q 1388 3094 1605 2903 
Q 1822 2713 2181 2713 
Q 2613 2713 2891 2961 
Q 3169 3209 3169 3591 
z
M 2741 2456 
Q 3094 2322 3281 2050 
Q 3469 1778 3469 1394 
Q 3469 747 2969 328 
Q 2469 -91 1678 -91 
Q 1006 -91 609 239 
Q 213 569 213 1119 
Q 213 1619 553 2008 
Q 894 2397 1441 2503 
Q 1113 2616 941 2852 
Q 769 3088 769 3425 
Q 769 3991 1239 4370 
Q 1709 4750 2431 4750 
Q 3034 4750 3414 4442 
Q 3794 4134 3794 3659 
Q 3794 3247 3511 2923 
Q 3228 2600 2741 2456 
z
" transform="scale(0.015625)"/>
      <path id="DejaVuSans-Oblique-34" d="M 2753 4666 
L 3547 4666 
L 2950 1625 
L 3616 1625 
L 3513 1100 
L 2847 1100 
L 2638 0 
L 2009 0 
L 2222 1100 
L 116 1100 
L 238 1709 
L 2753 4666 
z
M 2809 4116 
L 728 1625 
L 2322 1625 
L 2809 4116 
z
" transform="scale(0.015625)"/>
      <path id="DejaVuSans-Oblique-64" d="M 2675 525 
Q 2444 222 2128 65 
Q 1813 -91 1428 -91 
Q 903 -91 598 267 
Q 294 625 294 1247 
Q 294 1766 478 2236 
Q 663 2706 1013 3078 
Q 1244 3325 1534 3454 
Q 1825 3584 2144 3584 
Q 2481 3584 2739 3421 
Q 2997 3259 3138 2956 
L 3513 4863 
L 4091 4863 
L 3144 0 
L 2566 0 
L 2675 525 
z
M 891 1350 
Q 891 897 1095 644 
Q 1300 391 1663 391 
Q 1931 391 2161 520 
Q 2391 650 2566 903 
Q 2750 1166 2856 1509 
Q 2963 1853 2963 2188 
Q 2963 2622 2758 2865 
Q 2553 3109 2194 3109 
Q 1922 3109 1687 2981 
Q 1453 2853 1288 2613 
Q 1106 2353 998 2009 
Q 891 1666 891 1350 
z
" transform="scale(0.015625)"/>
      <path id="DejaVuSans-Oblique-29" d="M -397 -844 
Q 434 191 840 1120 
Q 1247 2050 1247 2913 
Q 1247 3406 1130 3892 
Q 1013 4378 775 4856 
L 1275 4856 
Q 1563 4316 1703 3812 
Q 1844 3309 1844 2822 
Q 1844 1891 1411 973 
Q 978 56 116 -844 
L -397 -844 
z
" transform="scale(0.015625)"/>
     </defs>
     <use xlink:href="#DejaVuSans-Oblique-61"/>
     <use xlink:href="#DejaVuSans-Oblique-6c" transform="translate(61.279297 0)"/>
     <use xlink:href="#DejaVuSans-Oblique-6c" transform="translate(89.0625 0)"/>
     <use xlink:href="#DejaVuSans-Oblique-2d" transform="translate(116.845703 0)"/>
     <use xlink:href="#DejaVuSans-Oblique-4d" transform="translate(152.929688 0)"/>
     <use xlink:href="#DejaVuSans-Oblique-69" transform="translate(239.208984 0)"/>
     <use xlink:href="#DejaVuSans-Oblique-6e" transform="translate(266.992188 0)"/>
     <use xlink:href="#DejaVuSans-Oblique-69" transform="translate(330.371094 0)"/>
     <use xlink:href="#DejaVuSans-Oblique-4c" transform="translate(358.154297 0)"/>
     <use xlink:href="#DejaVuSans-Oblique-4d" transform="translate(413.867188 0)"/>
     <use xlink:href="#DejaVuSans-Oblique-2d" transform="translate(500.146484 0)"/>
     <use xlink:href="#DejaVuSans-Oblique-4c" transform="translate(536.230469 0)"/>
     <use xlink:href="#DejaVuSans-Oblique-36" transform="translate(591.943359 0)"/>
     <use xlink:href="#DejaVuSans-Oblique-2d" transform="translate(655.566406 0)"/>
     <use xlink:href="#DejaVuSans-Oblique-76" transform="translate(691.650391 0)"/>
     <use xlink:href="#DejaVuSans-Oblique-32" transform="translate(750.830078 0)"/>
     <use xlink:href="#DejaVuSans-Oblique-20" transform="translate(814.453125 0)"/>
     <use xlink:href="#DejaVuSans-Oblique-28" transform="translate(846.240234 0)"/>
     <use xlink:href="#DejaVuSans-Oblique-33" transform="translate(885.253906 0)"/>
     <use xlink:href="#DejaVuSans-Oblique-38" transform="translate(948.876953 0)"/>
     <use xlink:href="#DejaVuSans-Oblique-34" transform="translate(1012.5 0)"/>
     <use xlink:href="#DejaVuSans-Oblique-2d" transform="translate(1076.123047 0)"/>
     <use xlink:href="#DejaVuSans-Oblique-64" transform="translate(1112.207031 0)"/>
     <use xlink:href="#DejaVuSans-Oblique-29" transform="translate(1175.683594 0)"/>
    </g>
    <!-- GPU runtime -->
    <g style="fill: #6c757d" transform="translate(63.847422 144.641339) scale(0.085 -0.085)">
     <defs>
      <path id="DejaVuSans-Oblique-47" d="M 3494 697 
L 3738 1919 
L 2700 1919 
L 2797 2438 
L 4453 2438 
L 4050 384 
Q 3634 156 3143 32 
Q 2653 -91 2156 -91 
Q 1278 -91 783 396 
Q 288 884 288 1753 
Q 288 2475 589 3126 
Q 891 3778 1422 4213 
Q 1756 4484 2153 4617 
Q 2550 4750 3034 4750 
Q 3472 4750 3873 4639 
Q 4275 4528 4641 4306 
L 4513 3634 
Q 4231 3928 3853 4083 
Q 3475 4238 3047 4238 
Q 2550 4238 2172 4048 
Q 1794 3859 1497 3463 
Q 1244 3125 1098 2667 
Q 953 2209 953 1734 
Q 953 1081 1287 751 
Q 1622 422 2284 422 
Q 2616 422 2925 492 
Q 3234 563 3494 697 
z
" transform="scale(0.015625)"/>
      <path id="DejaVuSans-Oblique-50" d="M 1081 4666 
L 2541 4666 
Q 3178 4666 3512 4369 
Q 3847 4072 3847 3500 
Q 3847 2731 3353 2303 
Q 2859 1875 1966 1875 
L 1172 1875 
L 806 0 
L 172 0 
L 1081 4666 
z
M 1613 4147 
L 1275 2394 
L 2069 2394 
Q 2606 2394 2893 2669 
Q 3181 2944 3181 3456 
Q 3181 3784 2986 3965 
Q 2791 4147 2438 4147 
L 1613 4147 
z
" transform="scale(0.015625)"/>
      <path id="DejaVuSans-Oblique-55" d="M 991 4666 
L 1625 4666 
L 1075 1831 
Q 1041 1641 1027 1517 
Q 1013 1394 1013 1300 
Q 1013 869 1253 645 
Q 1494 422 1959 422 
Q 2563 422 2898 753 
Q 3234 1084 3378 1831 
L 3928 4666 
L 4563 4666 
L 4000 1753 
Q 3816 809 3300 359 
Q 2784 -91 1888 -91 
Q 1188 -91 780 261 
Q 372 613 372 1216 
Q 372 1325 387 1461 
Q 403 1597 434 1753 
L 991 4666 
z
" transform="scale(0.015625)"/>
      <path id="DejaVuSans-Oblique-72" d="M 2853 2969 
Q 2766 3016 2653 3041 
Q 2541 3066 2413 3066 
Q 1953 3066 1609 2717 
Q 1266 2369 1153 1784 
L 800 0 
L 225 0 
L 909 3500 
L 1484 3500 
L 1375 2956 
Q 1603 3259 1920 3421 
Q 2238 3584 2597 3584 
Q 2691 3584 2781 3573 
Q 2872 3563 2963 3538 
L 2853 2969 
z
" transform="scale(0.015625)"/>
      <path id="DejaVuSans-Oblique-75" d="M 428 1388 
L 838 3500 
L 1416 3500 
L 1006 1409 
Q 975 1256 961 1147 
Q 947 1038 947 966 
Q 947 700 1109 554 
Q 1272 409 1569 409 
Q 2031 409 2368 721 
Q 2706 1034 2809 1563 
L 3194 3500 
L 3769 3500 
L 3091 0 
L 2516 0 
L 2631 550 
Q 2388 244 2052 76 
Q 1716 -91 1338 -91 
Q 878 -91 622 161 
Q 366 413 366 863 
Q 366 956 381 1097 
Q 397 1238 428 1388 
z
" transform="scale(0.015625)"/>
      <path id="DejaVuSans-Oblique-74" d="M 2706 3500 
L 2619 3053 
L 1472 3053 
L 1100 1153 
Q 1081 1047 1072 975 
Q 1063 903 1063 863 
Q 1063 663 1183 572 
Q 1303 481 1569 481 
L 2150 481 
L 2053 0 
L 1503 0 
Q 991 0 739 200 
Q 488 400 488 806 
Q 488 878 497 964 
Q 506 1050 525 1153 
L 897 3053 
L 409 3053 
L 500 3500 
L 978 3500 
L 1172 4494 
L 1747 4494 
L 1556 3500 
L 2706 3500 
z
" transform="scale(0.015625)"/>
      <path id="DejaVuSans-Oblique-6d" d="M 5747 2113 
L 5338 0 
L 4763 0 
L 5166 2094 
Q 5191 2228 5203 2325 
Q 5216 2422 5216 2491 
Q 5216 2772 5059 2928 
Q 4903 3084 4622 3084 
Q 4203 3084 3875 2770 
Q 3547 2456 3450 1953 
L 3066 0 
L 2491 0 
L 2900 2094 
Q 2925 2209 2937 2307 
Q 2950 2406 2950 2484 
Q 2950 2769 2794 2926 
Q 2638 3084 2363 3084 
Q 1938 3084 1609 2770 
Q 1281 2456 1184 1953 
L 800 0 
L 225 0 
L 909 3500 
L 1484 3500 
L 1375 2956 
Q 1609 3263 1923 3423 
Q 2238 3584 2597 3584 
Q 2978 3584 3223 3384 
Q 3469 3184 3519 2828 
Q 3781 3197 4126 3390 
Q 4472 3584 4856 3584 
Q 5306 3584 5551 3325 
Q 5797 3066 5797 2591 
Q 5797 2488 5784 2364 
Q 5772 2241 5747 2113 
z
" transform="scale(0.015625)"/>
      <path id="DejaVuSans-Oblique-65" d="M 3078 2063 
Q 3088 2113 3092 2166 
Q 3097 2219 3097 2272 
Q 3097 2653 2873 2875 
Q 2650 3097 2266 3097 
Q 1838 3097 1509 2826 
Q 1181 2556 1013 2059 
L 3078 2063 
z
M 3578 1613 
L 903 1613 
Q 884 1494 878 1425 
Q 872 1356 872 1306 
Q 872 872 1139 634 
Q 1406 397 1894 397 
Q 2269 397 2603 481 
Q 2938 566 3225 728 
L 3116 159 
Q 2806 34 2476 -28 
Q 2147 -91 1806 -91 
Q 1078 -91 686 257 
Q 294 606 294 1247 
Q 294 1794 489 2264 
Q 684 2734 1063 3103 
Q 1306 3334 1642 3459 
Q 1978 3584 2356 3584 
Q 2950 3584 3301 3228 
Q 3653 2872 3653 2272 
Q 3653 2128 3634 1964 
Q 3616 1800 3578 1613 
z
" transform="scale(0.015625)"/>
     </defs>
     <use xlink:href="#DejaVuSans-Oblique-47"/>
     <use xlink:href="#DejaVuSans-Oblique-50" transform="translate(77.490234 0)"/>
     <use xlink:href="#DejaVuSans-Oblique-55" transform="translate(137.792969 0)"/>
     <use xlink:href="#DejaVuSans-Oblique-20" transform="translate(210.986328 0)"/>
     <use xlink:href="#DejaVuSans-Oblique-72" transform="translate(242.773438 0)"/>
     <use xlink:href="#DejaVuSans-Oblique-75" transform="translate(283.886719 0)"/>
     <use xlink:href="#DejaVuSans-Oblique-6e" transform="translate(347.265625 0)"/>
     <use xlink:href="#DejaVuSans-Oblique-74" transform="translate(410.644531 0)"/>
     <use xlink:href="#DejaVuSans-Oblique-69" transform="translate(449.853516 0)"/>
     <use xlink:href="#DejaVuSans-Oblique-6d" transform="translate(477.636719 0)"/>
     <use xlink:href="#DejaVuSans-Oblique-65" transform="translate(575.048828 0)"/>
    </g>
   </g>
   <g id="text_3">
    <!-- ToolBench Dataset -->
    <g style="fill: #283142" transform="translate(38.495313 234.544175) scale(0.1 -0.1)">
     <defs>
      <path id="DejaVuSans-Bold-54" d="M 31 4666 
L 4331 4666 
L 4331 3756 
L 2784 3756 
L 2784 0 
L 1581 0 
L 1581 3756 
L 31 3756 
L 31 4666 
z
" transform="scale(0.015625)"/>
      <path id="DejaVuSans-Bold-42" d="M 2456 2859 
Q 2741 2859 2887 2984 
Q 3034 3109 3034 3353 
Q 3034 3594 2887 3720 
Q 2741 3847 2456 3847 
L 1791 3847 
L 1791 2859 
L 2456 2859 
z
M 2497 819 
Q 2859 819 3042 972 
Q 3225 1125 3225 1434 
Q 3225 1738 3044 1889 
Q 2863 2041 2497 2041 
L 1791 2041 
L 1791 819 
L 2497 819 
z
M 3616 2497 
Q 4003 2384 4215 2081 
Q 4428 1778 4428 1338 
Q 4428 663 3972 331 
Q 3516 0 2584 0 
L 588 0 
L 588 4666 
L 2394 4666 
Q 3366 4666 3802 4372 
Q 4238 4078 4238 3431 
Q 4238 3091 4078 2852 
Q 3919 2613 3616 2497 
z
" transform="scale(0.015625)"/>
      <path id="DejaVuSans-Bold-6e" d="M 4056 2131 
L 4056 0 
L 2931 0 
L 2931 347 
L 2931 1631 
Q 2931 2084 2911 2256 
Q 2891 2428 2841 2509 
Q 2775 2619 2662 2680 
Q 2550 2741 2406 2741 
Q 2056 2741 1856 2470 
Q 1656 2200 1656 1722 
L 1656 0 
L 538 0 
L 538 3500 
L 1656 3500 
L 1656 2988 
Q 1909 3294 2193 3439 
Q 2478 3584 2822 3584 
Q 3428 3584 3742 3212 
Q 4056 2841 4056 2131 
z
" transform="scale(0.015625)"/>
      <path id="DejaVuSans-Bold-63" d="M 3366 3391 
L 3366 2478 
Q 3138 2634 2908 2709 
Q 2678 2784 2431 2784 
Q 1963 2784 1702 2511 
Q 1441 2238 1441 1747 
Q 1441 1256 1702 982 
Q 1963 709 2431 709 
Q 2694 709 2930 787 
Q 3166 866 3366 1019 
L 3366 103 
Q 3103 6 2833 -42 
Q 2563 -91 2291 -91 
Q 1344 -91 809 395 
Q 275 881 275 1747 
Q 275 2613 809 3098 
Q 1344 3584 2291 3584 
Q 2566 3584 2833 3536 
Q 3100 3488 3366 3391 
z
" transform="scale(0.015625)"/>
      <path id="DejaVuSans-Bold-68" d="M 4056 2131 
L 4056 0 
L 2931 0 
L 2931 347 
L 2931 1625 
Q 2931 2084 2911 2256 
Q 2891 2428 2841 2509 
Q 2775 2619 2662 2680 
Q 2550 2741 2406 2741 
Q 2056 2741 1856 2470 
Q 1656 2200 1656 1722 
L 1656 0 
L 538 0 
L 538 4863 
L 1656 4863 
L 1656 2988 
Q 1909 3294 2193 3439 
Q 2478 3584 2822 3584 
Q 3428 3584 3742 3212 
Q 4056 2841 4056 2131 
z
" transform="scale(0.015625)"/>
      <path id="DejaVuSans-Bold-44" d="M 1791 3756 
L 1791 909 
L 2222 909 
Q 2959 909 3348 1275 
Q 3738 1641 3738 2338 
Q 3738 3031 3350 3393 
Q 2963 3756 2222 3756 
L 1791 3756 
z
M 588 4666 
L 1856 4666 
Q 2919 4666 3439 4514 
Q 3959 4363 4331 4000 
Q 4659 3684 4818 3271 
Q 4978 2859 4978 2338 
Q 4978 1809 4818 1395 
Q 4659 981 4331 666 
Q 3956 303 3431 151 
Q 2906 0 1856 0 
L 588 0 
L 588 4666 
z
" transform="scale(0.015625)"/>
      <path id="DejaVuSans-Bold-73" d="M 3272 3391 
L 3272 2541 
Q 2913 2691 2578 2766 
Q 2244 2841 1947 2841 
Q 1628 2841 1473 2761 
Q 1319 2681 1319 2516 
Q 1319 2381 1436 2309 
Q 1553 2238 1856 2203 
L 2053 2175 
Q 2913 2066 3209 1816 
Q 3506 1566 3506 1031 
Q 3506 472 3093 190 
Q 2681 -91 1863 -91 
Q 1516 -91 1145 -36 
Q 775 19 384 128 
L 384 978 
Q 719 816 1070 734 
Q 1422 653 1784 653 
Q 2113 653 2278 743 
Q 2444 834 2444 1013 
Q 2444 1163 2330 1236 
Q 2216 1309 1875 1350 
L 1678 1375 
Q 931 1469 631 1722 
Q 331 1975 331 2491 
Q 331 3047 712 3315 
Q 1094 3584 1881 3584 
Q 2191 3584 2531 3537 
Q 2872 3491 3272 3391 
z
" transform="scale(0.015625)"/>
     </defs>
     <use xlink:href="#DejaVuSans-Bold-54"/>
     <use xlink:href="#DejaVuSans-Bold-6f" transform="translate(54.962891 0)"/>
     <use xlink:href="#DejaVuSans-Bold-6f" transform="translate(123.664062 0)"/>
     <use xlink:href="#DejaVuSans-Bold-6c" transform="translate(192.365234 0)"/>
     <use xlink:href="#DejaVuSans-Bold-42" transform="translate(226.642578 0)"/>
     <use xlink:href="#DejaVuSans-Bold-65" transform="translate(302.863281 0)"/>
     <use xlink:href="#DejaVuSans-Bold-6e" transform="translate(370.685547 0)"/>
     <use xlink:href="#DejaVuSans-Bold-63" transform="translate(441.876953 0)"/>
     <use xlink:href="#DejaVuSans-Bold-68" transform="translate(501.154297 0)"/>
     <use xlink:href="#DejaVuSans-Bold-20" transform="translate(572.345703 0)"/>
     <use xlink:href="#DejaVuSans-Bold-44" transform="translate(607.160156 0)"/>
     <use xlink:href="#DejaVuSans-Bold-61" transform="translate(690.167969 0)"/>
     <use xlink:href="#DejaVuSans-Bold-74" transform="translate(757.648438 0)"/>
     <use xlink:href="#DejaVuSans-Bold-61" transform="translate(805.451172 0)"/>
     <use xlink:href="#DejaVuSans-Bold-73" transform="translate(872.931641 0)"/>
     <use xlink:href="#DejaVuSans-Bold-65" transform="translate(932.453125 0)"/>
     <use xlink:href="#DejaVuSans-Bold-74" transform="translate(1000.275391 0)"/>
    </g>
   </g>
   <g id="text_4">
    <!-- 16k queries -->
    <g style="fill: #6c757d" transform="translate(65.916641 251.547198) scale(0.085 -0.085)">
     <defs>
      <path id="DejaVuSans-Oblique-31" d="M 416 531 
L 1447 531 
L 2144 4122 
L 978 3897 
L 1088 4441 
L 2247 4666 
L 2881 4666 
L 2075 531 
L 3103 531 
L 3003 0 
L 313 0 
L 416 531 
z
" transform="scale(0.015625)"/>
      <path id="DejaVuSans-Oblique-6b" d="M 1172 4863 
L 1747 4863 
L 1197 2028 
L 3169 3500 
L 3916 3500 
L 1716 1825 
L 3322 0 
L 2625 0 
L 1131 1709 
L 800 0 
L 225 0 
L 1172 4863 
z
" transform="scale(0.015625)"/>
      <path id="DejaVuSans-Oblique-71" d="M 2669 525 
Q 2438 222 2123 65 
Q 1809 -91 1428 -91 
Q 897 -91 595 267 
Q 294 625 294 1253 
Q 294 1759 480 2231 
Q 666 2703 1013 3078 
Q 1238 3322 1530 3453 
Q 1822 3584 2144 3584 
Q 2531 3584 2781 3431 
Q 3031 3278 3144 2969 
L 3244 3494 
L 3822 3494 
L 2888 -1319 
L 2309 -1319 
L 2669 525 
z
M 891 1338 
Q 891 875 1084 633 
Q 1278 391 1644 391 
Q 2188 391 2572 911 
Q 2956 1431 2956 2175 
Q 2956 2625 2757 2864 
Q 2559 3103 2188 3103 
Q 1916 3103 1684 2976 
Q 1453 2850 1281 2606 
Q 1100 2350 995 2006 
Q 891 1663 891 1338 
z
" transform="scale(0.015625)"/>
      <path id="DejaVuSans-Oblique-73" d="M 3200 3397 
L 3091 2853 
Q 2863 2978 2609 3040 
Q 2356 3103 2088 3103 
Q 1634 3103 1373 2948 
Q 1113 2794 1113 2528 
Q 1113 2219 1719 2053 
Q 1766 2041 1788 2034 
L 1972 1978 
Q 2547 1819 2739 1644 
Q 2931 1469 2931 1166 
Q 2931 609 2489 259 
Q 2047 -91 1331 -91 
Q 1053 -91 747 -37 
Q 441 16 72 128 
L 184 722 
Q 500 559 806 475 
Q 1113 391 1394 391 
Q 1816 391 2080 572 
Q 2344 753 2344 1031 
Q 2344 1331 1650 1516 
L 1591 1531 
L 1394 1581 
Q 956 1697 753 1886 
Q 550 2075 550 2369 
Q 550 2928 970 3256 
Q 1391 3584 2113 3584 
Q 2397 3584 2667 3537 
Q 2938 3491 3200 3397 
z
" transform="scale(0.015625)"/>
     </defs>
     <use xlink:href="#DejaVuSans-Oblique-31"/>
     <use xlink:href="#DejaVuSans-Oblique-36" transform="translate(63.623047 0)"/>
     <use xlink:href="#DejaVuSans-Oblique-6b" transform="translate(127.246094 0)"/>
     <use xlink:href="#DejaVuSans-Oblique-20" transform="translate(185.15625 0)"/>
     <use xlink:href="#DejaVuSans-Oblique-71" transform="translate(216.943359 0)"/>
     <use xlink:href="#DejaVuSans-Oblique-75" transform="translate(280.419922 0)"/>
     <use xlink:href="#DejaVuSans-Oblique-65" transform="translate(343.798828 0)"/>
     <use xlink:href="#DejaVuSans-Oblique-72" transform="translate(405.322266 0)"/>
     <use xlink:href="#DejaVuSans-Oblique-69" transform="translate(446.435547 0)"/>
     <use xlink:href="#DejaVuSans-Oblique-65" transform="translate(474.21875 0)"/>
     <use xlink:href="#DejaVuSans-Oblique-73" transform="translate(535.742188 0)"/>
    </g>
    <!-- (Qin et al., 2024) -->
    <g style="fill: #6c757d" transform="translate(54.727852 261.065339) scale(0.085 -0.085)">
     <defs>
      <path id="DejaVuSans-Oblique-51" d="M 2309 -84 
Q 2275 -88 2237 -89 
Q 2200 -91 2125 -91 
Q 1250 -91 756 411 
Q 263 913 263 1797 
Q 263 2319 452 2844 
Q 641 3369 978 3788 
Q 1369 4269 1858 4509 
Q 2347 4750 2938 4750 
Q 3794 4750 4287 4245 
Q 4781 3741 4781 2869 
Q 4781 1928 4265 1147 
Q 3750 366 2919 44 
L 3553 -825 
L 2847 -825 
L 2309 -84 
z
M 2919 4238 
Q 2400 4238 2003 3986 
Q 1606 3734 1313 3219 
Q 1125 2891 1026 2522 
Q 928 2153 928 1778 
Q 928 1128 1239 775 
Q 1550 422 2119 422 
Q 2631 422 3032 676 
Q 3434 931 3719 1434 
Q 3909 1772 4009 2142 
Q 4109 2513 4109 2881 
Q 4109 3528 3796 3883 
Q 3484 4238 2919 4238 
z
" transform="scale(0.015625)"/>
      <path id="DejaVuSans-Oblique-2e" d="M 525 794 
L 1184 794 
L 1031 0 
L 372 0 
L 525 794 
z
" transform="scale(0.015625)"/>
      <path id="DejaVuSans-Oblique-2c" d="M 575 794 
L 1234 794 
L 1131 256 
L 422 -744 
L 19 -744 
L 469 256 
L 575 794 
z
" transform="scale(0.015625)"/>
      <path id="DejaVuSans-Oblique-30" d="M 2444 4750 
Q 3078 4750 3414 4328 
Q 3750 3906 3750 3116 
Q 3750 2516 3592 1923 
Q 3434 1331 3150 863 
Q 2859 394 2467 151 
Q 2075 -91 1600 -91 
Q 988 -91 653 334 
Q 319 759 319 1544 
Q 319 2138 480 2733 
Q 641 3328 928 3794 
Q 1216 4263 1602 4506 
Q 1988 4750 2444 4750 
z
M 2406 4250 
Q 2169 4250 1955 4123 
Q 1741 3997 1569 3750 
Q 1281 3338 1111 2720 
Q 941 2103 941 1453 
Q 941 938 1123 673 
Q 1306 409 1663 409 
Q 1913 409 2125 536 
Q 2338 663 2509 909 
Q 2794 1319 2961 1936 
Q 3128 2553 3128 3206 
Q 3128 3722 2945 3986 
Q 2763 4250 2406 4250 
z
" transform="scale(0.015625)"/>
     </defs>
     <use xlink:href="#DejaVuSans-Oblique-28"/>
     <use xlink:href="#DejaVuSans-Oblique-51" transform="translate(39.013672 0)"/>
     <use xlink:href="#DejaVuSans-Oblique-69" transform="translate(117.724609 0)"/>
     <use xlink:href="#DejaVuSans-Oblique-6e" transform="translate(145.507812 0)"/>
     <use xlink:href="#DejaVuSans-Oblique-20" transform="translate(208.886719 0)"/>
     <use xlink:href="#DejaVuSans-Oblique-65" transform="translate(240.673828 0)"/>
     <use xlink:href="#DejaVuSans-Oblique-74" transform="translate(302.197266 0)"/>
     <use xlink:href="#DejaVuSans-Oblique-20" transform="translate(341.40625 0)"/>
     <use xlink:href="#DejaVuSans-Oblique-61" transform="translate(373.193359 0)"/>
     <use xlink:href="#DejaVuSans-Oblique-6c" transform="translate(434.472656 0)"/>
     <use xlink:href="#DejaVuSans-Oblique-2e" transform="translate(462.255859 0)"/>
     <use xlink:href="#DejaVuSans-Oblique-2c" transform="translate(494.042969 0)"/>
     <use xlink:href="#DejaVuSans-Oblique-20" transform="translate(525.830078 0)"/>
     <use xlink:href="#DejaVuSans-Oblique-32" transform="translate(557.617188 0)"/>
     <use xlink:href="#DejaVuSans-Oblique-30" transform="translate(621.240234 0)"/>
     <use xlink:href="#DejaVuSans-Oblique-32" transform="translate(684.863281 0)"/>
     <use xlink:href="#DejaVuSans-Oblique-34" transform="translate(748.486328 0)"/>
     <use xlink:href="#DejaVuSans-Oblique-29" transform="translate(812.109375 0)"/>
    </g>
   </g>
   <g id="text_5">
    <!-- FCNP Core -->
    <g style="fill: #283142" transform="translate(239.823281 118.120175) scale(0.1 -0.1)">
     <defs>
      <path id="DejaVuSans-Bold-46" d="M 588 4666 
L 3834 4666 
L 3834 3756 
L 1791 3756 
L 1791 2888 
L 3713 2888 
L 3713 1978 
L 1791 1978 
L 1791 0 
L 588 0 
L 588 4666 
z
" transform="scale(0.015625)"/>
      <path id="DejaVuSans-Bold-43" d="M 4288 256 
Q 3956 84 3597 -3 
Q 3238 -91 2847 -91 
Q 1681 -91 1000 561 
Q 319 1213 319 2328 
Q 319 3447 1000 4098 
Q 1681 4750 2847 4750 
Q 3238 4750 3597 4662 
Q 3956 4575 4288 4403 
L 4288 3438 
Q 3953 3666 3628 3772 
Q 3303 3878 2944 3878 
Q 2300 3878 1931 3465 
Q 1563 3053 1563 2328 
Q 1563 1606 1931 1193 
Q 2300 781 2944 781 
Q 3303 781 3628 887 
Q 3953 994 4288 1222 
L 4288 256 
z
" transform="scale(0.015625)"/>
      <path id="DejaVuSans-Bold-50" d="M 588 4666 
L 2584 4666 
Q 3475 4666 3951 4270 
Q 4428 3875 4428 3144 
Q 4428 2409 3951 2014 
Q 3475 1619 2584 1619 
L 1791 1619 
L 1791 0 
L 588 0 
L 588 4666 
z
M 1791 3794 
L 1791 2491 
L 2456 2491 
Q 2806 2491 2997 2661 
Q 3188 2831 3188 3144 
Q 3188 3456 2997 3625 
Q 2806 3794 2456 3794 
L 1791 3794 
z
" transform="scale(0.015625)"/>
      <path id="DejaVuSans-Bold-72" d="M 3138 2547 
Q 2991 2616 2845 2648 
Q 2700 2681 2553 2681 
Q 2122 2681 1889 2404 
Q 1656 2128 1656 1613 
L 1656 0 
L 538 0 
L 538 3500 
L 1656 3500 
L 1656 2925 
Q 1872 3269 2151 3426 
Q 2431 3584 2822 3584 
Q 2878 3584 2943 3579 
Q 3009 3575 3134 3559 
L 3138 2547 
z
" transform="scale(0.015625)"/>
     </defs>
     <use xlink:href="#DejaVuSans-Bold-46"/>
     <use xlink:href="#DejaVuSans-Bold-43" transform="translate(68.310547 0)"/>
     <use xlink:href="#DejaVuSans-Bold-4e" transform="translate(141.699219 0)"/>
     <use xlink:href="#DejaVuSans-Bold-50" transform="translate(225.390625 0)"/>
     <use xlink:href="#DejaVuSans-Bold-20" transform="translate(298.681641 0)"/>
     <use xlink:href="#DejaVuSans-Bold-43" transform="translate(333.496094 0)"/>
     <use xlink:href="#DejaVuSans-Bold-6f" transform="translate(406.884766 0)"/>
     <use xlink:href="#DejaVuSans-Bold-72" transform="translate(475.585938 0)"/>
     <use xlink:href="#DejaVuSans-Bold-65" transform="translate(524.902344 0)"/>
    </g>
   </g>
   <g id="text_6">
    <!-- Kirchhoff iteration -->
    <g style="fill: #6c757d" transform="translate(231.123672 134.935269) scale(0.085 -0.085)">
     <defs>
      <path id="DejaVuSans-Oblique-4b" d="M 1081 4666 
L 1716 4666 
L 1331 2700 
L 3781 4666 
L 4622 4666 
L 1850 2438 
L 3878 0 
L 3109 0 
L 1247 2272 
L 806 0 
L 172 0 
L 1081 4666 
z
" transform="scale(0.015625)"/>
      <path id="DejaVuSans-Oblique-63" d="M 3431 3366 
L 3316 2797 
Q 3109 2947 2876 3022 
Q 2644 3097 2394 3097 
Q 2119 3097 1870 3000 
Q 1622 2903 1453 2725 
Q 1184 2453 1037 2087 
Q 891 1722 891 1331 
Q 891 859 1127 628 
Q 1363 397 1844 397 
Q 2081 397 2348 469 
Q 2616 541 2906 684 
L 2797 116 
Q 2547 13 2283 -39 
Q 2019 -91 1741 -91 
Q 1044 -91 669 257 
Q 294 606 294 1253 
Q 294 1797 489 2255 
Q 684 2713 1069 3078 
Q 1331 3328 1684 3456 
Q 2038 3584 2456 3584 
Q 2700 3584 2940 3529 
Q 3181 3475 3431 3366 
z
" transform="scale(0.015625)"/>
      <path id="DejaVuSans-Oblique-68" d="M 3566 2113 
L 3156 0 
L 2578 0 
L 2988 2091 
Q 3016 2238 3031 2350 
Q 3047 2463 3047 2528 
Q 3047 2791 2881 2937 
Q 2716 3084 2419 3084 
Q 1956 3084 1617 2771 
Q 1278 2459 1178 1941 
L 800 0 
L 225 0 
L 1172 4863 
L 1747 4863 
L 1375 2950 
Q 1594 3244 1934 3414 
Q 2275 3584 2650 3584 
Q 3113 3584 3367 3334 
Q 3622 3084 3622 2631 
Q 3622 2519 3608 2391 
Q 3594 2263 3566 2113 
z
" transform="scale(0.015625)"/>
      <path id="DejaVuSans-Oblique-6f" d="M 1625 -91 
Q 1009 -91 651 289 
Q 294 669 294 1325 
Q 294 1706 417 2101 
Q 541 2497 738 2766 
Q 1047 3184 1428 3384 
Q 1809 3584 2291 3584 
Q 2888 3584 3255 3212 
Q 3622 2841 3622 2241 
Q 3622 1825 3500 1412 
Q 3378 1000 3181 728 
Q 2875 309 2494 109 
Q 2113 -91 1625 -91 
z
M 891 1344 
Q 891 869 1089 633 
Q 1288 397 1691 397 
Q 2269 397 2648 901 
Q 3028 1406 3028 2181 
Q 3028 2634 2825 2865 
Q 2622 3097 2228 3097 
Q 1903 3097 1650 2945 
Q 1397 2794 1197 2484 
Q 1050 2253 970 1956 
Q 891 1659 891 1344 
z
" transform="scale(0.015625)"/>
      <path id="DejaVuSans-Oblique-66" d="M 3059 4863 
L 2969 4384 
L 2419 4384 
Q 2106 4384 1964 4261 
Q 1822 4138 1753 3809 
L 1691 3500 
L 2638 3500 
L 2553 3053 
L 1606 3053 
L 1013 0 
L 434 0 
L 1031 3053 
L 481 3053 
L 563 3500 
L 1113 3500 
L 1159 3744 
Q 1278 4363 1576 4613 
Q 1875 4863 2516 4863 
L 3059 4863 
z
" transform="scale(0.015625)"/>
     </defs>
     <use xlink:href="#DejaVuSans-Oblique-4b"/>
     <use xlink:href="#DejaVuSans-Oblique-69" transform="translate(65.576172 0)"/>
     <use xlink:href="#DejaVuSans-Oblique-72" transform="translate(93.359375 0)"/>
     <use xlink:href="#DejaVuSans-Oblique-63" transform="translate(134.472656 0)"/>
     <use xlink:href="#DejaVuSans-Oblique-68" transform="translate(189.453125 0)"/>
     <use xlink:href="#DejaVuSans-Oblique-68" transform="translate(252.832031 0)"/>
     <use xlink:href="#DejaVuSans-Oblique-6f" transform="translate(316.210938 0)"/>
     <use xlink:href="#DejaVuSans-Oblique-66" transform="translate(377.392578 0)"/>
     <use xlink:href="#DejaVuSans-Oblique-66" transform="translate(412.597656 0)"/>
     <use xlink:href="#DejaVuSans-Oblique-20" transform="translate(447.802734 0)"/>
     <use xlink:href="#DejaVuSans-Oblique-69" transform="translate(479.589844 0)"/>
     <use xlink:href="#DejaVuSans-Oblique-74" transform="translate(507.373047 0)"/>
     <use xlink:href="#DejaVuSans-Oblique-65" transform="translate(546.582031 0)"/>
     <use xlink:href="#DejaVuSans-Oblique-72" transform="translate(608.105469 0)"/>
     <use xlink:href="#DejaVuSans-Oblique-61" transform="translate(649.21875 0)"/>
     <use xlink:href="#DejaVuSans-Oblique-74" transform="translate(710.498047 0)"/>
     <use xlink:href="#DejaVuSans-Oblique-69" transform="translate(749.707031 0)"/>
     <use xlink:href="#DejaVuSans-Oblique-6f" transform="translate(777.490234 0)"/>
     <use xlink:href="#DejaVuSans-Oblique-6e" transform="translate(838.671875 0)"/>
    </g>
    <!-- $D(t{+}1)=(1{-}\mu)D{+}\alpha|Q|^{\gamma}$ -->
    <g style="fill: #6c757d" transform="translate(220.0325 144.557003) scale(0.085 -0.085)">
     <defs>
      <path id="DejaVuSans-Oblique-44" d="M 1081 4666 
L 2438 4666 
Q 3519 4666 4070 4208 
Q 4622 3750 4622 2847 
Q 4622 2250 4412 1698 
Q 4203 1147 3834 769 
Q 3463 381 2891 190 
Q 2319 0 1538 0 
L 172 0 
L 1081 4666 
z
M 1613 4147 
L 909 519 
L 1734 519 
Q 2794 519 3375 1128 
Q 3956 1738 3956 2847 
Q 3956 3519 3581 3833 
Q 3206 4147 2406 4147 
L 1613 4147 
z
" transform="scale(0.015625)"/>
      <path id="DejaVuSans-28" d="M 1984 4856 
Q 1566 4138 1362 3434 
Q 1159 2731 1159 2009 
Q 1159 1288 1364 580 
Q 1569 -128 1984 -844 
L 1484 -844 
Q 1016 -109 783 600 
Q 550 1309 550 2009 
Q 550 2706 781 3412 
Q 1013 4119 1484 4856 
L 1984 4856 
z
" transform="scale(0.015625)"/>
      <path id="DejaVuSans-2b" d="M 2944 4013 
L 2944 2272 
L 4684 2272 
L 4684 1741 
L 2944 1741 
L 2944 0 
L 2419 0 
L 2419 1741 
L 678 1741 
L 678 2272 
L 2419 2272 
L 2419 4013 
L 2944 4013 
z
" transform="scale(0.015625)"/>
      <path id="DejaVuSans-31" d="M 794 531 
L 1825 531 
L 1825 4091 
L 703 3866 
L 703 4441 
L 1819 4666 
L 2450 4666 
L 2450 531 
L 3481 531 
L 3481 0 
L 794 0 
L 794 531 
z
" transform="scale(0.015625)"/>
      <path id="DejaVuSans-29" d="M 513 4856 
L 1013 4856 
Q 1481 4119 1714 3412 
Q 1947 2706 1947 2009 
Q 1947 1309 1714 600 
Q 1481 -109 1013 -844 
L 513 -844 
Q 928 -128 1133 580 
Q 1338 1288 1338 2009 
Q 1338 2731 1133 3434 
Q 928 4138 513 4856 
z
" transform="scale(0.015625)"/>
      <path id="DejaVuSans-3d" d="M 678 2906 
L 4684 2906 
L 4684 2381 
L 678 2381 
L 678 2906 
z
M 678 1631 
L 4684 1631 
L 4684 1100 
L 678 1100 
L 678 1631 
z
" transform="scale(0.015625)"/>
      <path id="DejaVuSans-2212" d="M 678 2272 
L 4684 2272 
L 4684 1741 
L 678 1741 
L 678 2272 
z
" transform="scale(0.015625)"/>
      <path id="DejaVuSans-Oblique-3bc" d="M -84 -1331 
L 856 3500 
L 1434 3500 
L 1009 1322 
Q 997 1256 987 1175 
Q 978 1094 978 1013 
Q 978 722 1161 565 
Q 1344 409 1684 409 
Q 2147 409 2431 671 
Q 2716 934 2816 1459 
L 3213 3500 
L 3788 3500 
L 3266 809 
Q 3253 750 3248 706 
Q 3244 663 3244 628 
Q 3244 531 3283 486 
Q 3322 441 3406 441 
Q 3438 441 3492 456 
Q 3547 472 3647 513 
L 3559 50 
Q 3422 -19 3297 -55 
Q 3172 -91 3053 -91 
Q 2847 -91 2730 40 
Q 2613 172 2613 403 
Q 2438 153 2195 31 
Q 1953 -91 1625 -91 
Q 1334 -91 1117 43 
Q 900 178 831 397 
L 494 -1331 
L -84 -1331 
z
" transform="scale(0.015625)"/>
      <path id="DejaVuSans-Oblique-3b1" d="M 2619 1628 
L 2622 2350 
Q 2625 3088 2069 3091 
Q 1653 3094 1394 2747 
Q 1069 2319 959 1747 
Q 825 1059 994 731 
Q 1169 397 1547 397 
Q 1966 397 2319 1063 
L 2619 1628 
z
M 2166 3578 
Q 3141 3594 3128 2584 
Q 3128 2584 3616 3500 
L 4128 3500 
L 3119 1603 
L 3109 919 
Q 3109 766 3194 638 
Q 3291 488 3391 488 
L 3669 488 
L 3575 0 
L 3228 0 
Q 2934 0 2722 263 
Q 2622 394 2619 669 
Q 2416 334 2066 50 
Q 1900 -81 1453 -78 
Q 722 -72 456 397 
Q 184 884 353 1747 
Q 534 2675 1009 3097 
Q 1544 3569 2166 3578 
z
" transform="scale(0.015625)"/>
      <path id="DejaVuSans-7c" d="M 1344 4891 
L 1344 -1509 
L 813 -1509 
L 813 4891 
L 1344 4891 
z
" transform="scale(0.015625)"/>
      <path id="DejaVuSans-Oblique-3b3" d="M 1491 2950 
L 1838 788 
L 3456 3500 
L 4066 3500 
L 1972 0 
L 1713 -1331 
L 1138 -1331 
L 1397 0 
L 988 2613 
Q 925 3006 628 3006 
L 475 3006 
L 569 3500 
L 788 3500 
Q 1403 3500 1491 2950 
z
" transform="scale(0.015625)"/>
     </defs>
     <use xlink:href="#DejaVuSans-Oblique-44" transform="translate(0 0.4375)"/>
     <use xlink:href="#DejaVuSans-28" transform="translate(77.001953 0.4375)"/>
     <use xlink:href="#DejaVuSans-Oblique-74" transform="translate(116.015625 0.4375)"/>
     <use xlink:href="#DejaVuSans-2b" transform="translate(155.224609 0.4375)"/>
     <use xlink:href="#DejaVuSans-31" transform="translate(239.013672 0.4375)"/>
     <use xlink:href="#DejaVuSans-29" transform="translate(302.636719 0.4375)"/>
     <use xlink:href="#DejaVuSans-3d" transform="translate(361.132812 0.4375)"/>
     <use xlink:href="#DejaVuSans-28" transform="translate(464.404297 0.4375)"/>
     <use xlink:href="#DejaVuSans-31" transform="translate(503.417969 0.4375)"/>
     <use xlink:href="#DejaVuSans-2212" transform="translate(567.041016 0.4375)"/>
     <use xlink:href="#DejaVuSans-Oblique-3bc" transform="translate(650.830078 0.4375)"/>
     <use xlink:href="#DejaVuSans-29" transform="translate(714.453125 0.4375)"/>
     <use xlink:href="#DejaVuSans-Oblique-44" transform="translate(744.341797 0.4375)"/>
     <use xlink:href="#DejaVuSans-2b" transform="translate(821.34375 0.4375)"/>
     <use xlink:href="#DejaVuSans-Oblique-3b1" transform="translate(905.132812 0.4375)"/>
     <use xlink:href="#DejaVuSans-7c" transform="translate(971.050781 0.4375)"/>
     <use xlink:href="#DejaVuSans-Oblique-51" transform="translate(1004.742188 0.4375)"/>
     <use xlink:href="#DejaVuSans-7c" transform="translate(1083.453125 0.4375)"/>
     <use xlink:href="#DejaVuSans-Oblique-3b3" transform="translate(1118.101562 38.71875) scale(0.7)"/>
    </g>
   </g>
   <g id="text_7">
    <!-- Baselines -->
    <g style="fill: #283142" transform="translate(242.552969 234.544175) scale(0.1 -0.1)">
     <defs>
      <path id="DejaVuSans-Bold-69" d="M 538 3500 
L 1656 3500 
L 1656 0 
L 538 0 
L 538 3500 
z
M 538 4863 
L 1656 4863 
L 1656 3950 
L 538 3950 
L 538 4863 
z
" transform="scale(0.015625)"/>
     </defs>
     <use xlink:href="#DejaVuSans-Bold-42"/>
     <use xlink:href="#DejaVuSans-Bold-61" transform="translate(76.220703 0)"/>
     <use xlink:href="#DejaVuSans-Bold-73" transform="translate(143.701172 0)"/>
     <use xlink:href="#DejaVuSans-Bold-65" transform="translate(203.222656 0)"/>
     <use xlink:href="#DejaVuSans-Bold-6c" transform="translate(271.044922 0)"/>
     <use xlink:href="#DejaVuSans-Bold-69" transform="translate(305.322266 0)"/>
     <use xlink:href="#DejaVuSans-Bold-6e" transform="translate(339.599609 0)"/>
     <use xlink:href="#DejaVuSans-Bold-65" transform="translate(410.791016 0)"/>
     <use xlink:href="#DejaVuSans-Bold-73" transform="translate(478.613281 0)"/>
    </g>
   </g>
   <g id="text_8">
    <!-- BM25 / Selective-Ctx -->
    <g style="fill: #6c757d" transform="translate(225.230117 251.547198) scale(0.085 -0.085)">
     <defs>
      <path id="DejaVuSans-Oblique-42" d="M 1081 4666 
L 2694 4666 
Q 3350 4666 3675 4422 
Q 4000 4178 4000 3688 
Q 4000 3238 3720 2911 
Q 3441 2584 2988 2516 
Q 3375 2428 3569 2181 
Q 3763 1934 3763 1522 
Q 3763 819 3242 409 
Q 2722 0 1819 0 
L 172 0 
L 1081 4666 
z
M 1234 2228 
L 903 519 
L 1919 519 
Q 2491 519 2800 781 
Q 3109 1044 3109 1522 
Q 3109 1891 2904 2059 
Q 2700 2228 2247 2228 
L 1234 2228 
z
M 1606 4147 
L 1331 2741 
L 2272 2741 
Q 2775 2741 3058 2959 
Q 3341 3178 3341 3566 
Q 3341 3869 3150 4008 
Q 2959 4147 2541 4147 
L 1606 4147 
z
" transform="scale(0.015625)"/>
      <path id="DejaVuSans-Oblique-35" d="M 3719 4666 
L 3622 4141 
L 1691 4141 
L 1466 2988 
Q 1609 3034 1757 3056 
Q 1906 3078 2059 3078 
Q 2706 3078 3081 2731 
Q 3456 2384 3456 1791 
Q 3456 1375 3264 994 
Q 3072 613 2719 325 
Q 2469 125 2108 17 
Q 1747 -91 1319 -91 
Q 1038 -91 744 -41 
Q 450 9 128 109 
L 244 697 
Q 531 556 820 486 
Q 1109 416 1403 416 
Q 2013 416 2411 781 
Q 2809 1147 2809 1697 
Q 2809 2103 2548 2328 
Q 2288 2553 1819 2553 
Q 1572 2553 1305 2495 
Q 1038 2438 756 2322 
L 1209 4666 
L 3719 4666 
z
" transform="scale(0.015625)"/>
      <path id="DejaVuSans-Oblique-2f" d="M 2175 4666 
L 2731 4666 
L 84 -594 
L -469 -594 
L 2175 4666 
z
" transform="scale(0.015625)"/>
      <path id="DejaVuSans-Oblique-53" d="M 3859 4513 
L 3738 3897 
Q 3422 4066 3111 4152 
Q 2800 4238 2509 4238 
Q 1944 4238 1609 3991 
Q 1275 3744 1275 3334 
Q 1275 3109 1398 2989 
Q 1522 2869 2034 2731 
L 2413 2638 
Q 3053 2472 3303 2217 
Q 3553 1963 3553 1503 
Q 3553 797 2998 353 
Q 2444 -91 1538 -91 
Q 1166 -91 791 -17 
Q 416 56 38 206 
L 166 856 
Q 513 641 861 531 
Q 1209 422 1556 422 
Q 2147 422 2503 684 
Q 2859 947 2859 1369 
Q 2859 1650 2717 1795 
Q 2575 1941 2106 2059 
L 1728 2156 
Q 1081 2325 845 2545 
Q 609 2766 609 3163 
Q 609 3859 1145 4304 
Q 1681 4750 2541 4750 
Q 2875 4750 3203 4690 
Q 3531 4631 3859 4513 
z
" transform="scale(0.015625)"/>
      <path id="DejaVuSans-Oblique-43" d="M 4447 4306 
L 4319 3641 
Q 4019 3944 3683 4091 
Q 3347 4238 2956 4238 
Q 2422 4238 2017 3981 
Q 1613 3725 1319 3200 
Q 1131 2863 1032 2486 
Q 934 2109 934 1728 
Q 934 1091 1264 756 
Q 1594 422 2222 422 
Q 2656 422 3056 561 
Q 3456 700 3834 978 
L 3688 231 
Q 3316 72 2936 -9 
Q 2556 -91 2175 -91 
Q 1278 -91 773 396 
Q 269 884 269 1753 
Q 269 2309 461 2846 
Q 653 3384 1013 3828 
Q 1394 4300 1883 4525 
Q 2372 4750 3022 4750 
Q 3422 4750 3780 4639 
Q 4138 4528 4447 4306 
z
" transform="scale(0.015625)"/>
      <path id="DejaVuSans-Oblique-78" d="M 3841 3500 
L 2234 1784 
L 3219 0 
L 2559 0 
L 1819 1388 
L 531 0 
L -166 0 
L 1556 1844 
L 641 3500 
L 1300 3500 
L 1972 2234 
L 3144 3500 
L 3841 3500 
z
" transform="scale(0.015625)"/>
     </defs>
     <use xlink:href="#DejaVuSans-Oblique-42"/>
     <use xlink:href="#DejaVuSans-Oblique-4d" transform="translate(68.603516 0)"/>
     <use xlink:href="#DejaVuSans-Oblique-32" transform="translate(154.882812 0)"/>
     <use xlink:href="#DejaVuSans-Oblique-35" transform="translate(218.505859 0)"/>
     <use xlink:href="#DejaVuSans-Oblique-20" transform="translate(282.128906 0)"/>
     <use xlink:href="#DejaVuSans-Oblique-2f" transform="translate(313.916016 0)"/>
     <use xlink:href="#DejaVuSans-Oblique-20" transform="translate(347.607422 0)"/>
     <use xlink:href="#DejaVuSans-Oblique-53" transform="translate(379.394531 0)"/>
     <use xlink:href="#DejaVuSans-Oblique-65" transform="translate(442.871094 0)"/>
     <use xlink:href="#DejaVuSans-Oblique-6c" transform="translate(504.394531 0)"/>
     <use xlink:href="#DejaVuSans-Oblique-65" transform="translate(532.177734 0)"/>
     <use xlink:href="#DejaVuSans-Oblique-63" transform="translate(593.701172 0)"/>
     <use xlink:href="#DejaVuSans-Oblique-74" transform="translate(648.681641 0)"/>
     <use xlink:href="#DejaVuSans-Oblique-69" transform="translate(687.890625 0)"/>
     <use xlink:href="#DejaVuSans-Oblique-76" transform="translate(715.673828 0)"/>
     <use xlink:href="#DejaVuSans-Oblique-65" transform="translate(774.853516 0)"/>
     <use xlink:href="#DejaVuSans-Oblique-2d" transform="translate(836.376953 0)"/>
     <use xlink:href="#DejaVuSans-Oblique-43" transform="translate(872.460938 0)"/>
     <use xlink:href="#DejaVuSans-Oblique-74" transform="translate(942.285156 0)"/>
     <use xlink:href="#DejaVuSans-Oblique-78" transform="translate(981.494141 0)"/>
    </g>
    <!-- LLMLingua / RECOMP -->
    <g style="fill: #6c757d" transform="translate(224.504297 261.065339) scale(0.085 -0.085)">
     <defs>
      <path id="DejaVuSans-Oblique-67" d="M 3816 3500 
L 3219 434 
Q 3047 -456 2561 -893 
Q 2075 -1331 1253 -1331 
Q 950 -1331 690 -1286 
Q 431 -1241 206 -1147 
L 313 -588 
Q 525 -725 762 -790 
Q 1000 -856 1269 -856 
Q 1816 -856 2167 -557 
Q 2519 -259 2631 300 
L 2681 563 
Q 2441 288 2122 144 
Q 1803 0 1434 0 
Q 903 0 598 351 
Q 294 703 294 1319 
Q 294 1803 478 2267 
Q 663 2731 997 3091 
Q 1219 3328 1514 3456 
Q 1809 3584 2131 3584 
Q 2484 3584 2746 3420 
Q 3009 3256 3138 2956 
L 3238 3500 
L 3816 3500 
z
M 2950 2216 
Q 2950 2641 2750 2872 
Q 2550 3103 2181 3103 
Q 1953 3103 1747 3012 
Q 1541 2922 1394 2759 
Q 1156 2491 1023 2127 
Q 891 1763 891 1375 
Q 891 944 1092 712 
Q 1294 481 1672 481 
Q 2219 481 2584 976 
Q 2950 1472 2950 2216 
z
" transform="scale(0.015625)"/>
      <path id="DejaVuSans-Oblique-52" d="M 1613 4147 
L 1294 2491 
L 2106 2491 
Q 2584 2491 2879 2755 
Q 3175 3019 3175 3444 
Q 3175 3784 2976 3965 
Q 2778 4147 2406 4147 
L 1613 4147 
z
M 2772 2241 
Q 2972 2194 3105 2009 
Q 3238 1825 3413 1275 
L 3809 0 
L 3144 0 
L 2778 1197 
Q 2638 1659 2453 1815 
Q 2269 1972 1888 1972 
L 1191 1972 
L 806 0 
L 172 0 
L 1081 4666 
L 2503 4666 
Q 3150 4666 3495 4373 
Q 3841 4081 3841 3531 
Q 3841 3044 3547 2687 
Q 3253 2331 2772 2241 
z
" transform="scale(0.015625)"/>
      <path id="DejaVuSans-Oblique-45" d="M 1081 4666 
L 4031 4666 
L 3928 4134 
L 1606 4134 
L 1338 2753 
L 3566 2753 
L 3463 2222 
L 1234 2222 
L 909 531 
L 3284 531 
L 3181 0 
L 172 0 
L 1081 4666 
z
" transform="scale(0.015625)"/>
      <path id="DejaVuSans-Oblique-4f" d="M 2919 4238 
Q 2400 4238 2003 3986 
Q 1606 3734 1313 3219 
Q 1125 2891 1026 2522 
Q 928 2153 928 1778 
Q 928 1128 1239 775 
Q 1550 422 2119 422 
Q 2631 422 3032 676 
Q 3434 931 3719 1434 
Q 3909 1772 4009 2142 
Q 4109 2513 4109 2881 
Q 4109 3528 3796 3883 
Q 3484 4238 2919 4238 
z
M 2100 -91 
Q 1241 -91 748 418 
Q 256 928 256 1813 
Q 256 2319 448 2847 
Q 641 3375 978 3788 
Q 1375 4272 1862 4511 
Q 2350 4750 2938 4750 
Q 3794 4750 4287 4245 
Q 4781 3741 4781 2869 
Q 4781 2331 4593 1812 
Q 4406 1294 4056 872 
Q 3656 384 3173 146 
Q 2691 -91 2100 -91 
z
" transform="scale(0.015625)"/>
     </defs>
     <use xlink:href="#DejaVuSans-Oblique-4c"/>
     <use xlink:href="#DejaVuSans-Oblique-4c" transform="translate(55.712891 0)"/>
     <use xlink:href="#DejaVuSans-Oblique-4d" transform="translate(111.425781 0)"/>
     <use xlink:href="#DejaVuSans-Oblique-4c" transform="translate(197.705078 0)"/>
     <use xlink:href="#DejaVuSans-Oblique-69" transform="translate(253.417969 0)"/>
     <use xlink:href="#DejaVuSans-Oblique-6e" transform="translate(281.201172 0)"/>
     <use xlink:href="#DejaVuSans-Oblique-67" transform="translate(344.580078 0)"/>
     <use xlink:href="#DejaVuSans-Oblique-75" transform="translate(408.056641 0)"/>
     <use xlink:href="#DejaVuSans-Oblique-61" transform="translate(471.435547 0)"/>
     <use xlink:href="#DejaVuSans-Oblique-20" transform="translate(532.714844 0)"/>
     <use xlink:href="#DejaVuSans-Oblique-2f" transform="translate(564.501953 0)"/>
     <use xlink:href="#DejaVuSans-Oblique-20" transform="translate(598.193359 0)"/>
     <use xlink:href="#DejaVuSans-Oblique-52" transform="translate(629.980469 0)"/>
     <use xlink:href="#DejaVuSans-Oblique-45" transform="translate(699.462891 0)"/>
     <use xlink:href="#DejaVuSans-Oblique-43" transform="translate(762.646484 0)"/>
     <use xlink:href="#DejaVuSans-Oblique-4f" transform="translate(832.470703 0)"/>
     <use xlink:href="#DejaVuSans-Oblique-4d" transform="translate(911.181641 0)"/>
     <use xlink:href="#DejaVuSans-Oblique-50" transform="translate(997.460938 0)"/>
    </g>
   </g>
   <g id="text_9">
    <!-- context -->
    <g style="fill: #1f3a5f" transform="translate(167.608516 116.4696) scale(0.085 -0.085)">
     <defs>
      <path id="DejaVuSans-Bold-78" d="M 1422 1791 
L 159 3500 
L 1344 3500 
L 2059 2463 
L 2784 3500 
L 3969 3500 
L 2706 1797 
L 4031 0 
L 2847 0 
L 2059 1106 
L 1281 0 
L 97 0 
L 1422 1791 
z
" transform="scale(0.015625)"/>
     </defs>
     <use xlink:href="#DejaVuSans-Bold-63"/>
     <use xlink:href="#DejaVuSans-Bold-6f" transform="translate(59.277344 0)"/>
     <use xlink:href="#DejaVuSans-Bold-6e" transform="translate(127.978516 0)"/>
     <use xlink:href="#DejaVuSans-Bold-74" transform="translate(199.169922 0)"/>
     <use xlink:href="#DejaVuSans-Bold-65" transform="translate(246.972656 0)"/>
     <use xlink:href="#DejaVuSans-Bold-78" transform="translate(314.794922 0)"/>
     <use xlink:href="#DejaVuSans-Bold-74" transform="translate(379.296875 0)"/>
    </g>
   </g>
   <g id="text_10">
    <!-- Evaluation Harness -->
    <g style="fill: #283142" transform="translate(387.9775 118.120175) scale(0.1 -0.1)">
     <defs>
      <path id="DejaVuSans-Bold-45" d="M 588 4666 
L 3834 4666 
L 3834 3756 
L 1791 3756 
L 1791 2888 
L 3713 2888 
L 3713 1978 
L 1791 1978 
L 1791 909 
L 3903 909 
L 3903 0 
L 588 0 
L 588 4666 
z
" transform="scale(0.015625)"/>
      <path id="DejaVuSans-Bold-76" d="M 97 3500 
L 1216 3500 
L 2088 1081 
L 2956 3500 
L 4078 3500 
L 2700 0 
L 1472 0 
L 97 3500 
z
" transform="scale(0.015625)"/>
      <path id="DejaVuSans-Bold-75" d="M 500 1363 
L 500 3500 
L 1625 3500 
L 1625 3150 
Q 1625 2866 1622 2436 
Q 1619 2006 1619 1863 
Q 1619 1441 1641 1255 
Q 1663 1069 1716 984 
Q 1784 875 1895 815 
Q 2006 756 2150 756 
Q 2500 756 2700 1025 
Q 2900 1294 2900 1772 
L 2900 3500 
L 4019 3500 
L 4019 0 
L 2900 0 
L 2900 506 
Q 2647 200 2364 54 
Q 2081 -91 1741 -91 
Q 1134 -91 817 281 
Q 500 653 500 1363 
z
" transform="scale(0.015625)"/>
      <path id="DejaVuSans-Bold-48" d="M 588 4666 
L 1791 4666 
L 1791 2888 
L 3566 2888 
L 3566 4666 
L 4769 4666 
L 4769 0 
L 3566 0 
L 3566 1978 
L 1791 1978 
L 1791 0 
L 588 0 
L 588 4666 
z
" transform="scale(0.015625)"/>
     </defs>
     <use xlink:href="#DejaVuSans-Bold-45"/>
     <use xlink:href="#DejaVuSans-Bold-76" transform="translate(68.310547 0)"/>
     <use xlink:href="#DejaVuSans-Bold-61" transform="translate(133.496094 0)"/>
     <use xlink:href="#DejaVuSans-Bold-6c" transform="translate(200.976562 0)"/>
     <use xlink:href="#DejaVuSans-Bold-75" transform="translate(235.253906 0)"/>
     <use xlink:href="#DejaVuSans-Bold-61" transform="translate(306.445312 0)"/>
     <use xlink:href="#DejaVuSans-Bold-74" transform="translate(373.925781 0)"/>
     <use xlink:href="#DejaVuSans-Bold-69" transform="translate(421.728516 0)"/>
     <use xlink:href="#DejaVuSans-Bold-6f" transform="translate(456.005859 0)"/>
     <use xlink:href="#DejaVuSans-Bold-6e" transform="translate(524.707031 0)"/>
     <use xlink:href="#DejaVuSans-Bold-20" transform="translate(595.898438 0)"/>
     <use xlink:href="#DejaVuSans-Bold-48" transform="translate(630.712891 0)"/>
     <use xlink:href="#DejaVuSans-Bold-61" transform="translate(714.404297 0)"/>
     <use xlink:href="#DejaVuSans-Bold-72" transform="translate(781.884766 0)"/>
     <use xlink:href="#DejaVuSans-Bold-6e" transform="translate(831.201172 0)"/>
     <use xlink:href="#DejaVuSans-Bold-65" transform="translate(902.392578 0)"/>
     <use xlink:href="#DejaVuSans-Bold-73" transform="translate(970.214844 0)"/>
     <use xlink:href="#DejaVuSans-Bold-73" transform="translate(1029.736328 0)"/>
    </g>
   </g>
   <g id="text_11">
    <!-- Recall / F1 / nDCG -->
    <g style="fill: #6c757d" transform="translate(403.927695 135.123198) scale(0.085 -0.085)">
     <defs>
      <path id="DejaVuSans-Oblique-46" d="M 1081 4666 
L 3756 4666 
L 3653 4134 
L 1606 4134 
L 1338 2759 
L 3188 2759 
L 3084 2228 
L 1234 2228 
L 800 0 
L 172 0 
L 1081 4666 
z
" transform="scale(0.015625)"/>
     </defs>
     <use xlink:href="#DejaVuSans-Oblique-52"/>
     <use xlink:href="#DejaVuSans-Oblique-65" transform="translate(69.482422 0)"/>
     <use xlink:href="#DejaVuSans-Oblique-63" transform="translate(131.005859 0)"/>
     <use xlink:href="#DejaVuSans-Oblique-61" transform="translate(185.986328 0)"/>
     <use xlink:href="#DejaVuSans-Oblique-6c" transform="translate(247.265625 0)"/>
     <use xlink:href="#DejaVuSans-Oblique-6c" transform="translate(275.048828 0)"/>
     <use xlink:href="#DejaVuSans-Oblique-20" transform="translate(302.832031 0)"/>
     <use xlink:href="#DejaVuSans-Oblique-2f" transform="translate(334.619141 0)"/>
     <use xlink:href="#DejaVuSans-Oblique-20" transform="translate(368.310547 0)"/>
     <use xlink:href="#DejaVuSans-Oblique-46" transform="translate(400.097656 0)"/>
     <use xlink:href="#DejaVuSans-Oblique-31" transform="translate(457.617188 0)"/>
     <use xlink:href="#DejaVuSans-Oblique-20" transform="translate(521.240234 0)"/>
     <use xlink:href="#DejaVuSans-Oblique-2f" transform="translate(553.027344 0)"/>
     <use xlink:href="#DejaVuSans-Oblique-20" transform="translate(586.71875 0)"/>
     <use xlink:href="#DejaVuSans-Oblique-6e" transform="translate(618.505859 0)"/>
     <use xlink:href="#DejaVuSans-Oblique-44" transform="translate(681.884766 0)"/>
     <use xlink:href="#DejaVuSans-Oblique-43" transform="translate(758.886719 0)"/>
     <use xlink:href="#DejaVuSans-Oblique-47" transform="translate(828.710938 0)"/>
    </g>
    <!-- bootstrap-CI, Wilcoxon -->
    <g style="fill: #6c757d" transform="translate(394.178594 144.641339) scale(0.085 -0.085)">
     <defs>
      <path id="DejaVuSans-Oblique-62" d="M 3169 2138 
Q 3169 2591 2961 2847 
Q 2753 3103 2388 3103 
Q 2122 3103 1889 2973 
Q 1656 2844 1484 2597 
Q 1303 2338 1198 1995 
Q 1094 1653 1094 1313 
Q 1094 881 1298 636 
Q 1503 391 1863 391 
Q 2134 391 2365 517 
Q 2597 644 2772 891 
Q 2950 1147 3059 1487 
Q 3169 1828 3169 2138 
z
M 1381 2969 
Q 1594 3256 1914 3420 
Q 2234 3584 2584 3584 
Q 3122 3584 3439 3221 
Q 3756 2859 3756 2241 
Q 3756 1734 3570 1259 
Q 3384 784 3041 416 
Q 2816 172 2522 40 
Q 2228 -91 1906 -91 
Q 1566 -91 1316 65 
Q 1066 222 909 531 
L 806 0 
L 231 0 
L 1178 4863 
L 1753 4863 
L 1381 2969 
z
" transform="scale(0.015625)"/>
      <path id="DejaVuSans-Oblique-70" d="M 3175 2156 
Q 3175 2616 2975 2859 
Q 2775 3103 2400 3103 
Q 2144 3103 1911 2972 
Q 1678 2841 1497 2591 
Q 1319 2344 1212 1994 
Q 1106 1644 1106 1300 
Q 1106 863 1306 627 
Q 1506 391 1875 391 
Q 2147 391 2380 519 
Q 2613 647 2778 891 
Q 2956 1147 3065 1494 
Q 3175 1841 3175 2156 
z
M 1394 2969 
Q 1625 3272 1939 3428 
Q 2253 3584 2638 3584 
Q 3175 3584 3472 3232 
Q 3769 2881 3769 2247 
Q 3769 1728 3584 1258 
Q 3400 788 3053 416 
Q 2822 169 2531 39 
Q 2241 -91 1919 -91 
Q 1547 -91 1294 64 
Q 1041 219 916 525 
L 556 -1331 
L -19 -1331 
L 922 3500 
L 1497 3500 
L 1394 2969 
z
" transform="scale(0.015625)"/>
      <path id="DejaVuSans-Oblique-49" d="M 1081 4666 
L 1716 4666 
L 806 0 
L 172 0 
L 1081 4666 
z
" transform="scale(0.015625)"/>
      <path id="DejaVuSans-Oblique-57" d="M 616 4666 
L 1228 4666 
L 1453 697 
L 3213 4666 
L 3916 4666 
L 4147 697 
L 5888 4666 
L 6528 4666 
L 4453 0 
L 3659 0 
L 3444 3891 
L 1697 0 
L 903 0 
L 616 4666 
z
" transform="scale(0.015625)"/>
     </defs>
     <use xlink:href="#DejaVuSans-Oblique-62"/>
     <use xlink:href="#DejaVuSans-Oblique-6f" transform="translate(63.476562 0)"/>
     <use xlink:href="#DejaVuSans-Oblique-6f" transform="translate(124.658203 0)"/>
     <use xlink:href="#DejaVuSans-Oblique-74" transform="translate(185.839844 0)"/>
     <use xlink:href="#DejaVuSans-Oblique-73" transform="translate(225.048828 0)"/>
     <use xlink:href="#DejaVuSans-Oblique-74" transform="translate(277.148438 0)"/>
     <use xlink:href="#DejaVuSans-Oblique-72" transform="translate(316.357422 0)"/>
     <use xlink:href="#DejaVuSans-Oblique-61" transform="translate(357.470703 0)"/>
     <use xlink:href="#DejaVuSans-Oblique-70" transform="translate(418.75 0)"/>
     <use xlink:href="#DejaVuSans-Oblique-2d" transform="translate(482.226562 0)"/>
     <use xlink:href="#DejaVuSans-Oblique-43" transform="translate(518.310547 0)"/>
     <use xlink:href="#DejaVuSans-Oblique-49" transform="translate(588.134766 0)"/>
     <use xlink:href="#DejaVuSans-Oblique-2c" transform="translate(617.626953 0)"/>
     <use xlink:href="#DejaVuSans-Oblique-20" transform="translate(649.414062 0)"/>
     <use xlink:href="#DejaVuSans-Oblique-57" transform="translate(681.201172 0)"/>
     <use xlink:href="#DejaVuSans-Oblique-69" transform="translate(780.078125 0)"/>
     <use xlink:href="#DejaVuSans-Oblique-6c" transform="translate(807.861328 0)"/>
     <use xlink:href="#DejaVuSans-Oblique-63" transform="translate(835.644531 0)"/>
     <use xlink:href="#DejaVuSans-Oblique-6f" transform="translate(890.625 0)"/>
     <use xlink:href="#DejaVuSans-Oblique-78" transform="translate(951.806641 0)"/>
     <use xlink:href="#DejaVuSans-Oblique-6f" transform="translate(1010.986328 0)"/>
     <use xlink:href="#DejaVuSans-Oblique-6e" transform="translate(1072.167969 0)"/>
    </g>
   </g>
   <g id="text_12">
    <!-- metrics.json -->
    <g style="fill: #283142" transform="translate(407.745469 237.277112) scale(0.1 -0.1)">
     <defs>
      <path id="DejaVuSans-Bold-6d" d="M 3781 2919 
Q 3994 3244 4286 3414 
Q 4578 3584 4928 3584 
Q 5531 3584 5847 3212 
Q 6163 2841 6163 2131 
L 6163 0 
L 5038 0 
L 5038 1825 
Q 5041 1866 5042 1909 
Q 5044 1953 5044 2034 
Q 5044 2406 4934 2573 
Q 4825 2741 4581 2741 
Q 4263 2741 4089 2478 
Q 3916 2216 3909 1719 
L 3909 0 
L 2784 0 
L 2784 1825 
Q 2784 2406 2684 2573 
Q 2584 2741 2328 2741 
Q 2006 2741 1831 2477 
Q 1656 2213 1656 1722 
L 1656 0 
L 531 0 
L 531 3500 
L 1656 3500 
L 1656 2988 
Q 1863 3284 2130 3434 
Q 2397 3584 2719 3584 
Q 3081 3584 3359 3409 
Q 3638 3234 3781 2919 
z
" transform="scale(0.015625)"/>
      <path id="DejaVuSans-Bold-2e" d="M 653 1209 
L 1778 1209 
L 1778 0 
L 653 0 
L 653 1209 
z
" transform="scale(0.015625)"/>
      <path id="DejaVuSans-Bold-6a" d="M 538 3500 
L 1656 3500 
L 1656 63 
Q 1656 -641 1318 -1011 
Q 981 -1381 341 -1381 
L -213 -1381 
L -213 -647 
L -19 -647 
Q 300 -647 419 -503 
Q 538 -359 538 63 
L 538 3500 
z
M 538 4863 
L 1656 4863 
L 1656 3950 
L 538 3950 
L 538 4863 
z
" transform="scale(0.015625)"/>
     </defs>
     <use xlink:href="#DejaVuSans-Bold-6d"/>
     <use xlink:href="#DejaVuSans-Bold-65" transform="translate(104.199219 0)"/>
     <use xlink:href="#DejaVuSans-Bold-74" transform="translate(172.021484 0)"/>
     <use xlink:href="#DejaVuSans-Bold-72" transform="translate(219.824219 0)"/>
     <use xlink:href="#DejaVuSans-Bold-69" transform="translate(269.140625 0)"/>
     <use xlink:href="#DejaVuSans-Bold-63" transform="translate(303.417969 0)"/>
     <use xlink:href="#DejaVuSans-Bold-73" transform="translate(362.695312 0)"/>
     <use xlink:href="#DejaVuSans-Bold-2e" transform="translate(422.216797 0)"/>
     <use xlink:href="#DejaVuSans-Bold-6a" transform="translate(460.205078 0)"/>
     <use xlink:href="#DejaVuSans-Bold-73" transform="translate(494.482422 0)"/>
     <use xlink:href="#DejaVuSans-Bold-6f" transform="translate(554.003906 0)"/>
     <use xlink:href="#DejaVuSans-Bold-6e" transform="translate(622.705078 0)"/>
    </g>
   </g>
   <g id="text_13">
    <!-- results.csv / summary.md -->
    <g style="fill: #6c757d" transform="translate(387.646211 259.078269) scale(0.085 -0.085)">
     <defs>
      <path id="DejaVuSans-Oblique-79" d="M 1588 -325 
Q 1188 -997 936 -1164 
Q 684 -1331 294 -1331 
L -159 -1331 
L -63 -850 
L 269 -850 
Q 509 -850 678 -719 
Q 847 -588 1056 -206 
L 1234 128 
L 459 3500 
L 1069 3500 
L 1650 819 
L 3256 3500 
L 3859 3500 
L 1588 -325 
z
" transform="scale(0.015625)"/>
     </defs>
     <use xlink:href="#DejaVuSans-Oblique-72"/>
     <use xlink:href="#DejaVuSans-Oblique-65" transform="translate(41.113281 0)"/>
     <use xlink:href="#DejaVuSans-Oblique-73" transform="translate(102.636719 0)"/>
     <use xlink:href="#DejaVuSans-Oblique-75" transform="translate(154.736328 0)"/>
     <use xlink:href="#DejaVuSans-Oblique-6c" transform="translate(218.115234 0)"/>
     <use xlink:href="#DejaVuSans-Oblique-74" transform="translate(245.898438 0)"/>
     <use xlink:href="#DejaVuSans-Oblique-73" transform="translate(285.107422 0)"/>
     <use xlink:href="#DejaVuSans-Oblique-2e" transform="translate(337.207031 0)"/>
     <use xlink:href="#DejaVuSans-Oblique-63" transform="translate(368.994141 0)"/>
     <use xlink:href="#DejaVuSans-Oblique-73" transform="translate(423.974609 0)"/>
     <use xlink:href="#DejaVuSans-Oblique-76" transform="translate(476.074219 0)"/>
     <use xlink:href="#DejaVuSans-Oblique-20" transform="translate(535.253906 0)"/>
     <use xlink:href="#DejaVuSans-Oblique-2f" transform="translate(567.041016 0)"/>
     <use xlink:href="#DejaVuSans-Oblique-20" transform="translate(600.732422 0)"/>
     <use xlink:href="#DejaVuSans-Oblique-73" transform="translate(632.519531 0)"/>
     <use xlink:href="#DejaVuSans-Oblique-75" transform="translate(684.619141 0)"/>
     <use xlink:href="#DejaVuSans-Oblique-6d" transform="translate(747.998047 0)"/>
     <use xlink:href="#DejaVuSans-Oblique-6d" transform="translate(845.410156 0)"/>
     <use xlink:href="#DejaVuSans-Oblique-61" transform="translate(942.822266 0)"/>
     <use xlink:href="#DejaVuSans-Oblique-72" transform="translate(1004.101562 0)"/>
     <use xlink:href="#DejaVuSans-Oblique-79" transform="translate(1045.214844 0)"/>
     <use xlink:href="#DejaVuSans-Oblique-2e" transform="translate(1096.644531 0)"/>
     <use xlink:href="#DejaVuSans-Oblique-6d" transform="translate(1128.431641 0)"/>
     <use xlink:href="#DejaVuSans-Oblique-64" transform="translate(1225.84375 0)"/>
    </g>
   </g>
   <g id="text_14">
    <!-- Vercel -->
    <g style="fill: #283142" transform="translate(556.048906 167.961269) scale(0.1 -0.1)">
     <defs>
      <path id="DejaVuSans-Bold-56" d="M 31 4666 
L 1241 4666 
L 2478 1222 
L 3713 4666 
L 4922 4666 
L 3194 0 
L 1759 0 
L 31 4666 
z
" transform="scale(0.015625)"/>
     </defs>
     <use xlink:href="#DejaVuSans-Bold-56"/>
     <use xlink:href="#DejaVuSans-Bold-65" transform="translate(71.892578 0)"/>
     <use xlink:href="#DejaVuSans-Bold-72" transform="translate(139.714844 0)"/>
     <use xlink:href="#DejaVuSans-Bold-63" transform="translate(189.03125 0)"/>
     <use xlink:href="#DejaVuSans-Bold-65" transform="translate(248.308594 0)"/>
     <use xlink:href="#DejaVuSans-Bold-6c" transform="translate(316.130859 0)"/>
    </g>
    <!-- Dashboard -->
    <g style="fill: #283142" transform="translate(543.077031 179.159081) scale(0.1 -0.1)">
     <defs>
      <path id="DejaVuSans-Bold-64" d="M 2919 2988 
L 2919 4863 
L 4044 4863 
L 4044 0 
L 2919 0 
L 2919 506 
Q 2688 197 2409 53 
Q 2131 -91 1766 -91 
Q 1119 -91 703 423 
Q 288 938 288 1747 
Q 288 2556 703 3070 
Q 1119 3584 1766 3584 
Q 2128 3584 2408 3439 
Q 2688 3294 2919 2988 
z
M 2181 722 
Q 2541 722 2730 984 
Q 2919 1247 2919 1747 
Q 2919 2247 2730 2509 
Q 2541 2772 2181 2772 
Q 1825 2772 1636 2509 
Q 1447 2247 1447 1747 
Q 1447 1247 1636 984 
Q 1825 722 2181 722 
z
" transform="scale(0.015625)"/>
     </defs>
     <use xlink:href="#DejaVuSans-Bold-44"/>
     <use xlink:href="#DejaVuSans-Bold-61" transform="translate(83.007812 0)"/>
     <use xlink:href="#DejaVuSans-Bold-73" transform="translate(150.488281 0)"/>
     <use xlink:href="#DejaVuSans-Bold-68" transform="translate(210.009766 0)"/>
     <use xlink:href="#DejaVuSans-Bold-62" transform="translate(281.201172 0)"/>
     <use xlink:href="#DejaVuSans-Bold-6f" transform="translate(352.783203 0)"/>
     <use xlink:href="#DejaVuSans-Bold-61" transform="translate(421.484375 0)"/>
     <use xlink:href="#DejaVuSans-Bold-72" transform="translate(488.964844 0)"/>
     <use xlink:href="#DejaVuSans-Bold-64" transform="translate(538.28125 0)"/>
    </g>
   </g>
   <g id="text_15">
    <!-- Next.js 14 -->
    <g style="fill: #6c757d" transform="translate(552.08957 190.563198) scale(0.085 -0.085)">
     <defs>
      <path id="DejaVuSans-Oblique-4e" d="M 1081 4666 
L 1931 4666 
L 3219 666 
L 4000 4666 
L 4616 4666 
L 3706 0 
L 2853 0 
L 1569 4025 
L 788 0 
L 172 0 
L 1081 4666 
z
" transform="scale(0.015625)"/>
      <path id="DejaVuSans-Oblique-6a" d="M 928 3500 
L 1503 3500 
L 813 -63 
L 809 -78 
Q 694 -675 544 -897 
Q 403 -1106 132 -1218 
Q -138 -1331 -506 -1331 
L -722 -1331 
L -628 -844 
L -481 -844 
Q -144 -844 -1 -703 
Q 141 -563 238 -63 
L 928 3500 
z
M 1197 4863 
L 1772 4863 
L 1631 4134 
L 1056 4134 
L 1197 4863 
z
" transform="scale(0.015625)"/>
     </defs>
     <use xlink:href="#DejaVuSans-Oblique-4e"/>
     <use xlink:href="#DejaVuSans-Oblique-65" transform="translate(74.804688 0)"/>
     <use xlink:href="#DejaVuSans-Oblique-78" transform="translate(136.328125 0)"/>
     <use xlink:href="#DejaVuSans-Oblique-74" transform="translate(195.507812 0)"/>
     <use xlink:href="#DejaVuSans-Oblique-2e" transform="translate(234.716797 0)"/>
     <use xlink:href="#DejaVuSans-Oblique-6a" transform="translate(266.503906 0)"/>
     <use xlink:href="#DejaVuSans-Oblique-73" transform="translate(294.287109 0)"/>
     <use xlink:href="#DejaVuSans-Oblique-20" transform="translate(346.386719 0)"/>
     <use xlink:href="#DejaVuSans-Oblique-31" transform="translate(378.173828 0)"/>
     <use xlink:href="#DejaVuSans-Oblique-34" transform="translate(441.796875 0)"/>
    </g>
    <!-- Recharts -->
    <g style="fill: #6c757d" transform="translate(554.739844 200.081339) scale(0.085 -0.085)">
     <use xlink:href="#DejaVuSans-Oblique-52"/>
     <use xlink:href="#DejaVuSans-Oblique-65" transform="translate(69.482422 0)"/>
     <use xlink:href="#DejaVuSans-Oblique-63" transform="translate(131.005859 0)"/>
     <use xlink:href="#DejaVuSans-Oblique-68" transform="translate(185.986328 0)"/>
     <use xlink:href="#DejaVuSans-Oblique-61" transform="translate(249.365234 0)"/>
     <use xlink:href="#DejaVuSans-Oblique-72" transform="translate(310.644531 0)"/>
     <use xlink:href="#DejaVuSans-Oblique-74" transform="translate(351.757812 0)"/>
     <use xlink:href="#DejaVuSans-Oblique-73" transform="translate(390.966797 0)"/>
    </g>
   </g>
   <g id="text_16">
    <!-- POST /api/metrics -->
    <g style="fill: #c44536" transform="translate(480.480625 229.01225) scale(0.08 -0.08)">
     <defs>
      <path id="DejaVuSans-Bold-4f" d="M 2719 3878 
Q 2169 3878 1866 3472 
Q 1563 3066 1563 2328 
Q 1563 1594 1866 1187 
Q 2169 781 2719 781 
Q 3272 781 3575 1187 
Q 3878 1594 3878 2328 
Q 3878 3066 3575 3472 
Q 3272 3878 2719 3878 
z
M 2719 4750 
Q 3844 4750 4481 4106 
Q 5119 3463 5119 2328 
Q 5119 1197 4481 553 
Q 3844 -91 2719 -91 
Q 1597 -91 958 553 
Q 319 1197 319 2328 
Q 319 3463 958 4106 
Q 1597 4750 2719 4750 
z
" transform="scale(0.015625)"/>
      <path id="DejaVuSans-Bold-53" d="M 3834 4519 
L 3834 3531 
Q 3450 3703 3084 3790 
Q 2719 3878 2394 3878 
Q 1963 3878 1756 3759 
Q 1550 3641 1550 3391 
Q 1550 3203 1689 3098 
Q 1828 2994 2194 2919 
L 2706 2816 
Q 3484 2659 3812 2340 
Q 4141 2022 4141 1434 
Q 4141 663 3683 286 
Q 3225 -91 2284 -91 
Q 1841 -91 1394 -6 
Q 947 78 500 244 
L 500 1259 
Q 947 1022 1364 901 
Q 1781 781 2169 781 
Q 2563 781 2772 912 
Q 2981 1044 2981 1288 
Q 2981 1506 2839 1625 
Q 2697 1744 2272 1838 
L 1806 1941 
Q 1106 2091 782 2419 
Q 459 2747 459 3303 
Q 459 4000 909 4375 
Q 1359 4750 2203 4750 
Q 2588 4750 2994 4692 
Q 3400 4634 3834 4519 
z
" transform="scale(0.015625)"/>
      <path id="DejaVuSans-Bold-2f" d="M 1644 4666 
L 2338 4666 
L 691 -594 
L 0 -594 
L 1644 4666 
z
" transform="scale(0.015625)"/>
      <path id="DejaVuSans-Bold-70" d="M 1656 506 
L 1656 -1331 
L 538 -1331 
L 538 3500 
L 1656 3500 
L 1656 2988 
Q 1888 3294 2169 3439 
Q 2450 3584 2816 3584 
Q 3463 3584 3878 3070 
Q 4294 2556 4294 1747 
Q 4294 938 3878 423 
Q 3463 -91 2816 -91 
Q 2450 -91 2169 54 
Q 1888 200 1656 506 
z
M 2400 2772 
Q 2041 2772 1848 2508 
Q 1656 2244 1656 1747 
Q 1656 1250 1848 986 
Q 2041 722 2400 722 
Q 2759 722 2948 984 
Q 3138 1247 3138 1747 
Q 3138 2247 2948 2509 
Q 2759 2772 2400 2772 
z
" transform="scale(0.015625)"/>
     </defs>
     <use xlink:href="#DejaVuSans-Bold-50"/>
     <use xlink:href="#DejaVuSans-Bold-4f" transform="translate(73.291016 0)"/>
     <use xlink:href="#DejaVuSans-Bold-53" transform="translate(158.300781 0)"/>
     <use xlink:href="#DejaVuSans-Bold-54" transform="translate(230.322266 0)"/>
     <use xlink:href="#DejaVuSans-Bold-20" transform="translate(298.535156 0)"/>
     <use xlink:href="#DejaVuSans-Bold-2f" transform="translate(333.349609 0)"/>
     <use xlink:href="#DejaVuSans-Bold-61" transform="translate(369.873047 0)"/>
     <use xlink:href="#DejaVuSans-Bold-70" transform="translate(437.353516 0)"/>
     <use xlink:href="#DejaVuSans-Bold-69" transform="translate(508.935547 0)"/>
     <use xlink:href="#DejaVuSans-Bold-2f" transform="translate(543.212891 0)"/>
     <use xlink:href="#DejaVuSans-Bold-6d" transform="translate(579.736328 0)"/>
     <use xlink:href="#DejaVuSans-Bold-65" transform="translate(683.935547 0)"/>
     <use xlink:href="#DejaVuSans-Bold-74" transform="translate(751.757812 0)"/>
     <use xlink:href="#DejaVuSans-Bold-72" transform="translate(799.560547 0)"/>
     <use xlink:href="#DejaVuSans-Bold-69" transform="translate(848.876953 0)"/>
     <use xlink:href="#DejaVuSans-Bold-63" transform="translate(883.154297 0)"/>
     <use xlink:href="#DejaVuSans-Bold-73" transform="translate(942.431641 0)"/>
    </g>
   </g>
   <g id="text_17">
    <!-- FCNP Reproducibility Pipeline: Kaggle Benchmark $\rightarrow$ Metrics Artifact $\rightarrow$ Vercel Dashboard -->
    <g transform="translate(7.2 16.32) scale(0.12 -0.12)">
     <defs>
      <path id="DejaVuSans-Bold-52" d="M 2297 2597 
Q 2675 2597 2839 2737 
Q 3003 2878 3003 3200 
Q 3003 3519 2839 3656 
Q 2675 3794 2297 3794 
L 1791 3794 
L 1791 2597 
L 2297 2597 
z
M 1791 1766 
L 1791 0 
L 588 0 
L 588 4666 
L 2425 4666 
Q 3347 4666 3776 4356 
Q 4206 4047 4206 3378 
Q 4206 2916 3982 2619 
Q 3759 2322 3309 2181 
Q 3556 2125 3751 1926 
Q 3947 1728 4147 1325 
L 4800 0 
L 3519 0 
L 2950 1159 
Q 2778 1509 2601 1637 
Q 2425 1766 2131 1766 
L 1791 1766 
z
" transform="scale(0.015625)"/>
      <path id="DejaVuSans-Bold-79" d="M 78 3500 
L 1197 3500 
L 2138 1125 
L 2938 3500 
L 4056 3500 
L 2584 -331 
Q 2363 -916 2067 -1148 
Q 1772 -1381 1288 -1381 
L 641 -1381 
L 641 -647 
L 991 -647 
Q 1275 -647 1404 -556 
Q 1534 -466 1606 -231 
L 1638 -134 
L 78 3500 
z
" transform="scale(0.015625)"/>
      <path id="DejaVuSans-Bold-3a" d="M 716 3500 
L 1844 3500 
L 1844 2291 
L 716 2291 
L 716 3500 
z
M 716 1209 
L 1844 1209 
L 1844 0 
L 716 0 
L 716 1209 
z
" transform="scale(0.015625)"/>
      <path id="DejaVuSans-2192" d="M 5050 2147 
L 5050 1866 
L 3822 638 
L 3447 1013 
L 4175 1741 
L 366 1741 
L 366 2272 
L 4175 2272 
L 3447 3000 
L 3822 3375 
L 5050 2147 
z
" transform="scale(0.015625)"/>
      <path id="DejaVuSans-Bold-4d" d="M 588 4666 
L 2119 4666 
L 3181 2169 
L 4250 4666 
L 5778 4666 
L 5778 0 
L 4641 0 
L 4641 3413 
L 3566 897 
L 2803 897 
L 1728 3413 
L 1728 0 
L 588 0 
L 588 4666 
z
" transform="scale(0.015625)"/>
      <path id="DejaVuSans-Bold-41" d="M 3419 850 
L 1538 850 
L 1241 0 
L 31 0 
L 1759 4666 
L 3194 4666 
L 4922 0 
L 3713 0 
L 3419 850 
z
M 1838 1716 
L 3116 1716 
L 2478 3572 
L 1838 1716 
z
" transform="scale(0.015625)"/>
      <path id="DejaVuSans-Bold-66" d="M 2841 4863 
L 2841 4128 
L 2222 4128 
Q 1984 4128 1890 4042 
Q 1797 3956 1797 3744 
L 1797 3500 
L 2753 3500 
L 2753 2700 
L 1797 2700 
L 1797 0 
L 678 0 
L 678 2700 
L 122 2700 
L 122 3500 
L 678 3500 
L 678 3744 
Q 678 4316 997 4589 
Q 1316 4863 1984 4863 
L 2841 4863 
z
" transform="scale(0.015625)"/>
     </defs>
     <use xlink:href="#DejaVuSans-Bold-46" transform="translate(0 0.015625)"/>
     <use xlink:href="#DejaVuSans-Bold-43" transform="translate(68.310547 0.015625)"/>
     <use xlink:href="#DejaVuSans-Bold-4e" transform="translate(141.699219 0.015625)"/>
     <use xlink:href="#DejaVuSans-Bold-50" transform="translate(225.390625 0.015625)"/>
     <use xlink:href="#DejaVuSans-Bold-20" transform="translate(298.681641 0.015625)"/>
     <use xlink:href="#DejaVuSans-Bold-52" transform="translate(333.496094 0.015625)"/>
     <use xlink:href="#DejaVuSans-Bold-65" transform="translate(410.498047 0.015625)"/>
     <use xlink:href="#DejaVuSans-Bold-70" transform="translate(478.320312 0.015625)"/>
     <use xlink:href="#DejaVuSans-Bold-72" transform="translate(549.902344 0.015625)"/>
     <use xlink:href="#DejaVuSans-Bold-6f" transform="translate(599.21875 0.015625)"/>
     <use xlink:href="#DejaVuSans-Bold-64" transform="translate(667.919922 0.015625)"/>
     <use xlink:href="#DejaVuSans-Bold-75" transform="translate(739.501953 0.015625)"/>
     <use xlink:href="#DejaVuSans-Bold-63" transform="translate(810.693359 0.015625)"/>
     <use xlink:href="#DejaVuSans-Bold-69" transform="translate(869.970703 0.015625)"/>
     <use xlink:href="#DejaVuSans-Bold-62" transform="translate(904.248047 0.015625)"/>
     <use xlink:href="#DejaVuSans-Bold-69" transform="translate(975.830078 0.015625)"/>
     <use xlink:href="#DejaVuSans-Bold-6c" transform="translate(1010.107422 0.015625)"/>
     <use xlink:href="#DejaVuSans-Bold-69" transform="translate(1044.384766 0.015625)"/>
     <use xlink:href="#DejaVuSans-Bold-74" transform="translate(1078.662109 0.015625)"/>
     <use xlink:href="#DejaVuSans-Bold-79" transform="translate(1126.464844 0.015625)"/>
     <use xlink:href="#DejaVuSans-Bold-20" transform="translate(1191.650391 0.015625)"/>
     <use xlink:href="#DejaVuSans-Bold-50" transform="translate(1226.464844 0.015625)"/>
     <use xlink:href="#DejaVuSans-Bold-69" transform="translate(1299.755859 0.015625)"/>
     <use xlink:href="#DejaVuSans-Bold-70" transform="translate(1334.033203 0.015625)"/>
     <use xlink:href="#DejaVuSans-Bold-65" transform="translate(1405.615234 0.015625)"/>
     <use xlink:href="#DejaVuSans-Bold-6c" transform="translate(1473.4375 0.015625)"/>
     <use xlink:href="#DejaVuSans-Bold-69" transform="translate(1507.714844 0.015625)"/>
     <use xlink:href="#DejaVuSans-Bold-6e" transform="translate(1541.992188 0.015625)"/>
     <use xlink:href="#DejaVuSans-Bold-65" transform="translate(1613.183594 0.015625)"/>
     <use xlink:href="#DejaVuSans-Bold-3a" transform="translate(1681.005859 0.015625)"/>
     <use xlink:href="#DejaVuSans-Bold-20" transform="translate(1720.996094 0.015625)"/>
     <use xlink:href="#DejaVuSans-Bold-4b" transform="translate(1755.810547 0.015625)"/>
     <use xlink:href="#DejaVuSans-Bold-61" transform="translate(1833.300781 0.015625)"/>
     <use xlink:href="#DejaVuSans-Bold-67" transform="translate(1900.78125 0.015625)"/>
     <use xlink:href="#DejaVuSans-Bold-67" transform="translate(1972.363281 0.015625)"/>
     <use xlink:href="#DejaVuSans-Bold-6c" transform="translate(2043.945312 0.015625)"/>
     <use xlink:href="#DejaVuSans-Bold-65" transform="translate(2078.222656 0.015625)"/>
     <use xlink:href="#DejaVuSans-Bold-20" transform="translate(2146.044922 0.015625)"/>
     <use xlink:href="#DejaVuSans-Bold-42" transform="translate(2180.859375 0.015625)"/>
     <use xlink:href="#DejaVuSans-Bold-65" transform="translate(2257.080078 0.015625)"/>
     <use xlink:href="#DejaVuSans-Bold-6e" transform="translate(2324.902344 0.015625)"/>
     <use xlink:href="#DejaVuSans-Bold-63" transform="translate(2396.09375 0.015625)"/>
     <use xlink:href="#DejaVuSans-Bold-68" transform="translate(2455.371094 0.015625)"/>
     <use xlink:href="#DejaVuSans-Bold-6d" transform="translate(2526.5625 0.015625)"/>
     <use xlink:href="#DejaVuSans-Bold-61" transform="translate(2630.761719 0.015625)"/>
     <use xlink:href="#DejaVuSans-Bold-72" transform="translate(2698.242188 0.015625)"/>
     <use xlink:href="#DejaVuSans-Bold-6b" transform="translate(2747.558594 0.015625)"/>
     <use xlink:href="#DejaVuSans-Bold-20" transform="translate(2814.0625 0.015625)"/>
     <use xlink:href="#DejaVuSans-2192" transform="translate(2868.359375 0.015625)"/>
     <use xlink:href="#DejaVuSans-Bold-20" transform="translate(2971.630859 0.015625)"/>
     <use xlink:href="#DejaVuSans-Bold-4d" transform="translate(3006.445312 0.015625)"/>
     <use xlink:href="#DejaVuSans-Bold-65" transform="translate(3105.957031 0.015625)"/>
     <use xlink:href="#DejaVuSans-Bold-74" transform="translate(3173.779297 0.015625)"/>
     <use xlink:href="#DejaVuSans-Bold-72" transform="translate(3221.582031 0.015625)"/>
     <use xlink:href="#DejaVuSans-Bold-69" transform="translate(3270.898438 0.015625)"/>
     <use xlink:href="#DejaVuSans-Bold-63" transform="translate(3305.175781 0.015625)"/>
     <use xlink:href="#DejaVuSans-Bold-73" transform="translate(3364.453125 0.015625)"/>
     <use xlink:href="#DejaVuSans-Bold-20" transform="translate(3423.974609 0.015625)"/>
     <use xlink:href="#DejaVuSans-Bold-41" transform="translate(3458.789062 0.015625)"/>
     <use xlink:href="#DejaVuSans-Bold-72" transform="translate(3536.181641 0.015625)"/>
     <use xlink:href="#DejaVuSans-Bold-74" transform="translate(3585.498047 0.015625)"/>
     <use xlink:href="#DejaVuSans-Bold-69" transform="translate(3633.300781 0.015625)"/>
     <use xlink:href="#DejaVuSans-Bold-66" transform="translate(3667.578125 0.015625)"/>
     <use xlink:href="#DejaVuSans-Bold-61" transform="translate(3711.083984 0.015625)"/>
     <use xlink:href="#DejaVuSans-Bold-63" transform="translate(3778.564453 0.015625)"/>
     <use xlink:href="#DejaVuSans-Bold-74" transform="translate(3837.841797 0.015625)"/>
     <use xlink:href="#DejaVuSans-Bold-20" transform="translate(3885.644531 0.015625)"/>
     <use xlink:href="#DejaVuSans-2192" transform="translate(3939.941406 0.015625)"/>
     <use xlink:href="#DejaVuSans-Bold-20" transform="translate(4043.212891 0.015625)"/>
     <use xlink:href="#DejaVuSans-Bold-56" transform="translate(4078.027344 0.015625)"/>
     <use xlink:href="#DejaVuSans-Bold-65" transform="translate(4155.419922 0.015625)"/>
     <use xlink:href="#DejaVuSans-Bold-72" transform="translate(4223.242188 0.015625)"/>
     <use xlink:href="#DejaVuSans-Bold-63" transform="translate(4272.558594 0.015625)"/>
     <use xlink:href="#DejaVuSans-Bold-65" transform="translate(4331.835938 0.015625)"/>
     <use xlink:href="#DejaVuSans-Bold-6c" transform="translate(4399.658203 0.015625)"/>
     <use xlink:href="#DejaVuSans-Bold-20" transform="translate(4433.935547 0.015625)"/>
     <use xlink:href="#DejaVuSans-Bold-44" transform="translate(4468.75 0.015625)"/>
     <use xlink:href="#DejaVuSans-Bold-61" transform="translate(4551.757812 0.015625)"/>
     <use xlink:href="#DejaVuSans-Bold-73" transform="translate(4619.238281 0.015625)"/>
     <use xlink:href="#DejaVuSans-Bold-68" transform="translate(4678.759766 0.015625)"/>
     <use xlink:href="#DejaVuSans-Bold-62" transform="translate(4749.951172 0.015625)"/>
     <use xlink:href="#DejaVuSans-Bold-6f" transform="translate(4821.533203 0.015625)"/>
     <use xlink:href="#DejaVuSans-Bold-61" transform="translate(4890.234375 0.015625)"/>
     <use xlink:href="#DejaVuSans-Bold-72" transform="translate(4957.714844 0.015625)"/>
     <use xlink:href="#DejaVuSans-Bold-64" transform="translate(5007.03125 0.015625)"/>
    </g>
   </g>
   <g id="legend_1">
    <g id="patch_17">
     <path d="M 15.3 321.050681 
L 33.3 321.050681 
L 33.3 314.750681 
L 15.3 314.750681 
z
" style="fill: #eaf1fb; stroke: #283142; stroke-linejoin: miter"/>
    </g>
    <g id="text_18">
     <!-- Compute -->
     <g transform="translate(40.5 321.050681) scale(0.09 -0.09)">
      <defs>
       <path id="DejaVuSans-43" d="M 4122 4306 
L 4122 3641 
Q 3803 3938 3442 4084 
Q 3081 4231 2675 4231 
Q 1875 4231 1450 3742 
Q 1025 3253 1025 2328 
Q 1025 1406 1450 917 
Q 1875 428 2675 428 
Q 3081 428 3442 575 
Q 3803 722 4122 1019 
L 4122 359 
Q 3791 134 3420 21 
Q 3050 -91 2638 -91 
Q 1578 -91 968 557 
Q 359 1206 359 2328 
Q 359 3453 968 4101 
Q 1578 4750 2638 4750 
Q 3056 4750 3426 4639 
Q 3797 4528 4122 4306 
z
" transform="scale(0.015625)"/>
       <path id="DejaVuSans-6f" d="M 1959 3097 
Q 1497 3097 1228 2736 
Q 959 2375 959 1747 
Q 959 1119 1226 758 
Q 1494 397 1959 397 
Q 2419 397 2687 759 
Q 2956 1122 2956 1747 
Q 2956 2369 2687 2733 
Q 2419 3097 1959 3097 
z
M 1959 3584 
Q 2709 3584 3137 3096 
Q 3566 2609 3566 1747 
Q 3566 888 3137 398 
Q 2709 -91 1959 -91 
Q 1206 -91 779 398 
Q 353 888 353 1747 
Q 353 2609 779 3096 
Q 1206 3584 1959 3584 
z
" transform="scale(0.015625)"/>
       <path id="DejaVuSans-6d" d="M 3328 2828 
Q 3544 3216 3844 3400 
Q 4144 3584 4550 3584 
Q 5097 3584 5394 3201 
Q 5691 2819 5691 2113 
L 5691 0 
L 5113 0 
L 5113 2094 
Q 5113 2597 4934 2840 
Q 4756 3084 4391 3084 
Q 3944 3084 3684 2787 
Q 3425 2491 3425 1978 
L 3425 0 
L 2847 0 
L 2847 2094 
Q 2847 2600 2669 2842 
Q 2491 3084 2119 3084 
Q 1678 3084 1418 2786 
Q 1159 2488 1159 1978 
L 1159 0 
L 581 0 
L 581 3500 
L 1159 3500 
L 1159 2956 
Q 1356 3278 1631 3431 
Q 1906 3584 2284 3584 
Q 2666 3584 2933 3390 
Q 3200 3197 3328 2828 
z
" transform="scale(0.015625)"/>
       <path id="DejaVuSans-70" d="M 1159 525 
L 1159 -1331 
L 581 -1331 
L 581 3500 
L 1159 3500 
L 1159 2969 
Q 1341 3281 1617 3432 
Q 1894 3584 2278 3584 
Q 2916 3584 3314 3078 
Q 3713 2572 3713 1747 
Q 3713 922 3314 415 
Q 2916 -91 2278 -91 
Q 1894 -91 1617 61 
Q 1341 213 1159 525 
z
M 3116 1747 
Q 3116 2381 2855 2742 
Q 2594 3103 2138 3103 
Q 1681 3103 1420 2742 
Q 1159 2381 1159 1747 
Q 1159 1113 1420 752 
Q 1681 391 2138 391 
Q 2594 391 2855 752 
Q 3116 1113 3116 1747 
z
" transform="scale(0.015625)"/>
       <path id="DejaVuSans-75" d="M 544 1381 
L 544 3500 
L 1119 3500 
L 1119 1403 
Q 1119 906 1312 657 
Q 1506 409 1894 409 
Q 2359 409 2629 706 
Q 2900 1003 2900 1516 
L 2900 3500 
L 3475 3500 
L 3475 0 
L 2900 0 
L 2900 538 
Q 2691 219 2414 64 
Q 2138 -91 1772 -91 
Q 1169 -91 856 284 
Q 544 659 544 1381 
z
M 1991 3584 
L 1991 3584 
z
" transform="scale(0.015625)"/>
       <path id="DejaVuSans-74" d="M 1172 4494 
L 1172 3500 
L 2356 3500 
L 2356 3053 
L 1172 3053 
L 1172 1153 
Q 1172 725 1289 603 
Q 1406 481 1766 481 
L 2356 481 
L 2356 0 
L 1766 0 
Q 1100 0 847 248 
Q 594 497 594 1153 
L 594 3053 
L 172 3053 
L 172 3500 
L 594 3500 
L 594 4494 
L 1172 4494 
z
" transform="scale(0.015625)"/>
       <path id="DejaVuSans-65" d="M 3597 1894 
L 3597 1613 
L 953 1613 
Q 991 1019 1311 708 
Q 1631 397 2203 397 
Q 2534 397 2845 478 
Q 3156 559 3463 722 
L 3463 178 
Q 3153 47 2828 -22 
Q 2503 -91 2169 -91 
Q 1331 -91 842 396 
Q 353 884 353 1716 
Q 353 2575 817 3079 
Q 1281 3584 2069 3584 
Q 2775 3584 3186 3129 
Q 3597 2675 3597 1894 
z
M 3022 2063 
Q 3016 2534 2758 2815 
Q 2500 3097 2075 3097 
Q 1594 3097 1305 2825 
Q 1016 2553 972 2059 
L 3022 2063 
z
" transform="scale(0.015625)"/>
      </defs>
      <use xlink:href="#DejaVuSans-43"/>
      <use xlink:href="#DejaVuSans-6f" transform="translate(69.824219 0)"/>
      <use xlink:href="#DejaVuSans-6d" transform="translate(131.005859 0)"/>
      <use xlink:href="#DejaVuSans-70" transform="translate(228.417969 0)"/>
      <use xlink:href="#DejaVuSans-75" transform="translate(291.894531 0)"/>
      <use xlink:href="#DejaVuSans-74" transform="translate(355.273438 0)"/>
      <use xlink:href="#DejaVuSans-65" transform="translate(394.482422 0)"/>
     </g>
    </g>
    <g id="patch_18">
     <path d="M 99.541406 321.050681 
L 117.541406 321.050681 
L 117.541406 314.750681 
L 99.541406 314.750681 
z
" style="fill: #f0e5f2; stroke: #283142; stroke-linejoin: miter"/>
    </g>
    <g id="text_19">
     <!-- Method -->
     <g transform="translate(124.741406 321.050681) scale(0.09 -0.09)">
      <defs>
       <path id="DejaVuSans-4d" d="M 628 4666 
L 1569 4666 
L 2759 1491 
L 3956 4666 
L 4897 4666 
L 4897 0 
L 4281 0 
L 4281 4097 
L 3078 897 
L 2444 897 
L 1241 4097 
L 1241 0 
L 628 0 
L 628 4666 
z
" transform="scale(0.015625)"/>
       <path id="DejaVuSans-68" d="M 3513 2113 
L 3513 0 
L 2938 0 
L 2938 2094 
Q 2938 2591 2744 2837 
Q 2550 3084 2163 3084 
Q 1697 3084 1428 2787 
Q 1159 2491 1159 1978 
L 1159 0 
L 581 0 
L 581 4863 
L 1159 4863 
L 1159 2956 
Q 1366 3272 1645 3428 
Q 1925 3584 2291 3584 
Q 2894 3584 3203 3211 
Q 3513 2838 3513 2113 
z
" transform="scale(0.015625)"/>
       <path id="DejaVuSans-64" d="M 2906 2969 
L 2906 4863 
L 3481 4863 
L 3481 0 
L 2906 0 
L 2906 525 
Q 2725 213 2448 61 
Q 2172 -91 1784 -91 
Q 1150 -91 751 415 
Q 353 922 353 1747 
Q 353 2572 751 3078 
Q 1150 3584 1784 3584 
Q 2172 3584 2448 3432 
Q 2725 3281 2906 2969 
z
M 947 1747 
Q 947 1113 1208 752 
Q 1469 391 1925 391 
Q 2381 391 2643 752 
Q 2906 1113 2906 1747 
Q 2906 2381 2643 2742 
Q 2381 3103 1925 3103 
Q 1469 3103 1208 2742 
Q 947 2381 947 1747 
z
" transform="scale(0.015625)"/>
      </defs>
      <use xlink:href="#DejaVuSans-4d"/>
      <use xlink:href="#DejaVuSans-65" transform="translate(86.279297 0)"/>
      <use xlink:href="#DejaVuSans-74" transform="translate(147.802734 0)"/>
      <use xlink:href="#DejaVuSans-68" transform="translate(187.011719 0)"/>
      <use xlink:href="#DejaVuSans-6f" transform="translate(250.390625 0)"/>
      <use xlink:href="#DejaVuSans-64" transform="translate(311.572266 0)"/>
     </g>
    </g>
    <g id="patch_19">
     <path d="M 176.497031 321.050681 
L 194.497031 321.050681 
L 194.497031 314.750681 
L 176.497031 314.750681 
z
" style="fill: #fff7e0; stroke: #283142; stroke-linejoin: miter"/>
    </g>
    <g id="text_20">
     <!-- Data -->
     <g transform="translate(201.697031 321.050681) scale(0.09 -0.09)">
      <defs>
       <path id="DejaVuSans-44" d="M 1259 4147 
L 1259 519 
L 2022 519 
Q 2988 519 3436 956 
Q 3884 1394 3884 2338 
Q 3884 3275 3436 3711 
Q 2988 4147 2022 4147 
L 1259 4147 
z
M 628 4666 
L 1925 4666 
Q 3281 4666 3915 4102 
Q 4550 3538 4550 2338 
Q 4550 1131 3912 565 
Q 3275 0 1925 0 
L 628 0 
L 628 4666 
z
" transform="scale(0.015625)"/>
       <path id="DejaVuSans-61" d="M 2194 1759 
Q 1497 1759 1228 1600 
Q 959 1441 959 1056 
Q 959 750 1161 570 
Q 1363 391 1709 391 
Q 2188 391 2477 730 
Q 2766 1069 2766 1631 
L 2766 1759 
L 2194 1759 
z
M 3341 1997 
L 3341 0 
L 2766 0 
L 2766 531 
Q 2569 213 2275 61 
Q 1981 -91 1556 -91 
Q 1019 -91 701 211 
Q 384 513 384 1019 
Q 384 1609 779 1909 
Q 1175 2209 1959 2209 
L 2766 2209 
L 2766 2266 
Q 2766 2663 2505 2880 
Q 2244 3097 1772 3097 
Q 1472 3097 1187 3025 
Q 903 2953 641 2809 
L 641 3341 
Q 956 3463 1253 3523 
Q 1550 3584 1831 3584 
Q 2591 3584 2966 3190 
Q 3341 2797 3341 1997 
z
" transform="scale(0.015625)"/>
      </defs>
      <use xlink:href="#DejaVuSans-44"/>
      <use xlink:href="#DejaVuSans-61" transform="translate(77.001953 0)"/>
      <use xlink:href="#DejaVuSans-74" transform="translate(138.28125 0)"/>
      <use xlink:href="#DejaVuSans-61" transform="translate(177.490234 0)"/>
     </g>
    </g>
    <g id="patch_20">
     <path d="M 241.185938 321.050681 
L 259.185938 321.050681 
L 259.185938 314.750681 
L 241.185938 314.750681 
z
" style="fill: #e6f4ea; stroke: #283142; stroke-linejoin: miter"/>
    </g>
    <g id="text_21">
     <!-- Serving -->
     <g transform="translate(266.385938 321.050681) scale(0.09 -0.09)">
      <defs>
       <path id="DejaVuSans-53" d="M 3425 4513 
L 3425 3897 
Q 3066 4069 2747 4153 
Q 2428 4238 2131 4238 
Q 1616 4238 1336 4038 
Q 1056 3838 1056 3469 
Q 1056 3159 1242 3001 
Q 1428 2844 1947 2747 
L 2328 2669 
Q 3034 2534 3370 2195 
Q 3706 1856 3706 1288 
Q 3706 609 3251 259 
Q 2797 -91 1919 -91 
Q 1588 -91 1214 -16 
Q 841 59 441 206 
L 441 856 
Q 825 641 1194 531 
Q 1563 422 1919 422 
Q 2459 422 2753 634 
Q 3047 847 3047 1241 
Q 3047 1584 2836 1778 
Q 2625 1972 2144 2069 
L 1759 2144 
Q 1053 2284 737 2584 
Q 422 2884 422 3419 
Q 422 4038 858 4394 
Q 1294 4750 2059 4750 
Q 2388 4750 2728 4690 
Q 3069 4631 3425 4513 
z
" transform="scale(0.015625)"/>
       <path id="DejaVuSans-72" d="M 2631 2963 
Q 2534 3019 2420 3045 
Q 2306 3072 2169 3072 
Q 1681 3072 1420 2755 
Q 1159 2438 1159 1844 
L 1159 0 
L 581 0 
L 581 3500 
L 1159 3500 
L 1159 2956 
Q 1341 3275 1631 3429 
Q 1922 3584 2338 3584 
Q 2397 3584 2469 3576 
Q 2541 3569 2628 3553 
L 2631 2963 
z
" transform="scale(0.015625)"/>
       <path id="DejaVuSans-76" d="M 191 3500 
L 800 3500 
L 1894 563 
L 2988 3500 
L 3597 3500 
L 2284 0 
L 1503 0 
L 191 3500 
z
" transform="scale(0.015625)"/>
       <path id="DejaVuSans-69" d="M 603 3500 
L 1178 3500 
L 1178 0 
L 603 0 
L 603 3500 
z
M 603 4863 
L 1178 4863 
L 1178 4134 
L 603 4134 
L 603 4863 
z
" transform="scale(0.015625)"/>
       <path id="DejaVuSans-6e" d="M 3513 2113 
L 3513 0 
L 2938 0 
L 2938 2094 
Q 2938 2591 2744 2837 
Q 2550 3084 2163 3084 
Q 1697 3084 1428 2787 
Q 1159 2491 1159 1978 
L 1159 0 
L 581 0 
L 581 3500 
L 1159 3500 
L 1159 2956 
Q 1366 3272 1645 3428 
Q 1925 3584 2291 3584 
Q 2894 3584 3203 3211 
Q 3513 2838 3513 2113 
z
" transform="scale(0.015625)"/>
       <path id="DejaVuSans-67" d="M 2906 1791 
Q 2906 2416 2648 2759 
Q 2391 3103 1925 3103 
Q 1463 3103 1205 2759 
Q 947 2416 947 1791 
Q 947 1169 1205 825 
Q 1463 481 1925 481 
Q 2391 481 2648 825 
Q 2906 1169 2906 1791 
z
M 3481 434 
Q 3481 -459 3084 -895 
Q 2688 -1331 1869 -1331 
Q 1566 -1331 1297 -1286 
Q 1028 -1241 775 -1147 
L 775 -588 
Q 1028 -725 1275 -790 
Q 1522 -856 1778 -856 
Q 2344 -856 2625 -561 
Q 2906 -266 2906 331 
L 2906 616 
Q 2728 306 2450 153 
Q 2172 0 1784 0 
Q 1141 0 747 490 
Q 353 981 353 1791 
Q 353 2603 747 3093 
Q 1141 3584 1784 3584 
Q 2172 3584 2450 3431 
Q 2728 3278 2906 2969 
L 2906 3500 
L 3481 3500 
L 3481 434 
z
" transform="scale(0.015625)"/>
      </defs>
      <use xlink:href="#DejaVuSans-53"/>
      <use xlink:href="#DejaVuSans-65" transform="translate(63.476562 0)"/>
      <use xlink:href="#DejaVuSans-72" transform="translate(125 0)"/>
      <use xlink:href="#DejaVuSans-76" transform="translate(166.113281 0)"/>
      <use xlink:href="#DejaVuSans-69" transform="translate(225.292969 0)"/>
      <use xlink:href="#DejaVuSans-6e" transform="translate(253.076172 0)"/>
      <use xlink:href="#DejaVuSans-67" transform="translate(316.455078 0)"/>
     </g>
    </g>
   </g>
  </g>
 </g>
 <defs>
  <clipPath id="p0f283ccdef">
   <rect x="7.2" y="28.32" width="613.8" height="288.288"/>
  </clipPath>
 </defs>
</svg>
