<?xml version="1.0" encoding="utf-8" standalone="no"?>
<!DOCTYPE svg PUBLIC "-//W3C//DTD SVG 1.1//EN"
  "http://www.w3.org/Graphics/SVG/1.1/DTD/svg11.dtd">
<svg xmlns:xlink="http://www.w3.org/1999/xlink" width="628.2pt" height="311.762125pt" viewBox="0 0 628.2 311.762125" xmlns="http://www.w3.org/2000/svg" version="1.1">
 <metadata>
  <rdf:RDF xmlns:dc="http://purl.org/dc/elements/1.1/" xmlns:cc="http://creativecommons.org/ns#" xmlns:rdf="http://www.w3.org/1999/02/22-rdf-syntax-ns#">
   <cc:Work>
    <dc:type rdf:resource="http://purl.org/dc/dcmitype/StillImage"/>
    <dc:date>2026-06-16T03:13:35.611473</dc:date>
    <dc:format>image/svg+xml</dc:format>
    <dc:creator>
     <cc:Agent>
      <dc:title>Matplotlib v3.10.9, https://matplotlib.org/</dc:title>
     </cc:Agent>
    </dc:creator>
   </cc:Work>
  </rdf:RDF>
 </metadata>
 <defs>
  <style type="text/css">*{stroke-linejoin: round; stroke-linecap: butt}</style>
 </defs>
 <g id="figure_1">
  <g id="patch_1">
   <path d="M 0 311.762125 
L 628.2 311.762125 
L 628.2 0 
L 0 0 
z
" style="fill: #ffffff"/>
  </g>
  <g id="axes_1">
   <g id="patch_2">
    <path d="M 17.244 161.591725 
L 114.336 161.591725 
Q 121.032 161.591725 121.032 154.938925 
L 121.032 75.105325 
Q 121.032 68.452525 114.336 68.452525 
L 17.244 68.452525 
Q 10.548 68.452525 10.548 75.105325 
L 10.548 154.938925 
Q 10.548 161.591725 17.244 161.591725 
z
" clip-path="url(#p962b364647)" style="fill: #fff7e0; stroke: #283142; stroke-width: 1.4; stroke-linejoin: miter"/>
   </g>
   <g id="patch_3">
    <path d="M 140.004 161.591725 
L 242.676 161.591725 
Q 249.372 161.591725 249.372 154.938925 
L 249.372 75.105325 
Q 249.372 68.452525 242.676 68.452525 
L 140.004 68.452525 
Q 133.308 68.452525 133.308 75.105325 
L 133.308 154.938925 
Q 133.308 161.591725 140.004 161.591725 
z
" clip-path="url(#p962b364647)" style="fill: #eaf1fb; stroke: #283142; stroke-width: 1.4; stroke-linejoin: miter"/>
   </g>
   <g id="patch_4">
    <path d="M 268.344 161.591725 
L 365.436 161.591725 
Q 372.132 161.591725 372.132 154.938925 
L 372.132 75.105325 
Q 372.132 68.452525 365.436 68.452525 
L 268.344 68.452525 
Q 261.648 68.452525 261.648 75.105325 
L 261.648 154.938925 
Q 261.648 161.591725 268.344 161.591725 
z
" clip-path="url(#p962b364647)" style="fill: #eaf1fb; stroke: #283142; stroke-width: 1.4; stroke-linejoin: miter"/>
   </g>
   <g id="patch_5">
    <path d="M 391.104 161.591725 
L 493.776 161.591725 
Q 500.472 161.591725 500.472 154.938925 
L 500.472 75.105325 
Q 500.472 68.452525 493.776 68.452525 
L 391.104 68.452525 
Q 384.408 68.452525 384.408 75.105325 
L 384.408 154.938925 
Q 384.408 161.591725 391.104 161.591725 
z
" clip-path="url(#p962b364647)" style="fill: #f0e5f2; stroke: #283142; stroke-width: 1.4; stroke-linejoin: miter"/>
   </g>
   <g id="patch_6">
    <path d="M 519.444 161.591725 
L 610.956 161.591725 
Q 617.652 161.591725 617.652 154.938925 
L 617.652 75.105325 
Q 617.652 68.452525 610.956 68.452525 
L 519.444 68.452525 
Q 512.748 68.452525 512.748 75.105325 
L 512.748 154.938925 
Q 512.748 161.591725 519.444 161.591725 
z
" clip-path="url(#p962b364647)" style="fill: #f0e5f2; stroke: #283142; stroke-width: 1.4; stroke-linejoin: miter"/>
   </g>
   <g id="patch_7">
    <path d="M 120.798501 115.022125 
Q 127.170528 115.022125 131.753701 115.022125 
" clip-path="url(#p962b364647)" style="fill: none; stroke: #1f3a5f; stroke-width: 1.6; stroke-linecap: round"/>
    <path d="M 126.153701 112.222125 
L 131.753701 115.022125 
L 126.153701 117.822125 
z
" clip-path="url(#p962b364647)" style="fill: #1f3a5f; stroke: #1f3a5f; stroke-width: 1.6; stroke-linecap: round"/>
   </g>
   <g id="patch_8">
    <path d="M 249.138501 115.022125 
Q 255.510528 115.022125 260.093701 115.022125 
" clip-path="url(#p962b364647)" style="fill: none; stroke: #1f3a5f; stroke-width: 1.6; stroke-linecap: round"/>
    <path d="M 254.493701 112.222125 
L 260.093701 115.022125 
L 254.493701 117.822125 
z
" clip-path="url(#p962b364647)" style="fill: #1f3a5f; stroke: #1f3a5f; stroke-width: 1.6; stroke-linecap: round"/>
   </g>
   <g id="patch_9">
    <path d="M 371.898501 115.022125 
Q 378.270528 115.022125 382.853701 115.022125 
" clip-path="url(#p962b364647)" style="fill: none; stroke: #1f3a5f; stroke-width: 1.6; stroke-linecap: round"/>
    <path d="M 377.253701 112.222125 
L 382.853701 115.022125 
L 377.253701 117.822125 
z
" clip-path="url(#p962b364647)" style="fill: #1f3a5f; stroke: #1f3a5f; stroke-width: 1.6; stroke-linecap: round"/>
   </g>
   <g id="patch_10">
    <path d="M 500.238501 115.022125 
Q 506.610528 115.022125 511.193701 115.022125 
" clip-path="url(#p962b364647)" style="fill: none; stroke: #1f3a5f; stroke-width: 1.6; stroke-linecap: round"/>
    <path d="M 505.593701 112.222125 
L 511.193701 115.022125 
L 505.593701 117.822125 
z
" clip-path="url(#p962b364647)" style="fill: #1f3a5f; stroke: #1f3a5f; stroke-width: 1.6; stroke-linecap: round"/>
   </g>
   <g id="patch_11">
    <path d="M 491.544 283.559725 
L 610.956 283.559725 
Q 617.652 283.559725 617.652 276.906925 
L 617.652 202.617325 
Q 617.652 195.964525 610.956 195.964525 
L 491.544 195.964525 
Q 484.848 195.964525 484.848 202.617325 
L 484.848 276.906925 
Q 484.848 283.559725 491.544 283.559725 
z
" clip-path="url(#p962b364647)" style="fill: #ffe9e6; stroke: #283142; stroke-width: 1.4; stroke-linejoin: miter"/>
   </g>
   <g id="patch_12">
    <path d="M 485.077795 223.130125 
Q 401.983488 223.130125 320.678035 223.130125 
" clip-path="url(#p962b364647)" style="fill: none; stroke: #c44536; stroke-width: 1.6; stroke-linecap: round"/>
    <path d="M 326.278035 225.930125 
L 320.678035 223.130125 
L 326.278035 220.330125 
z
" clip-path="url(#p962b364647)" style="fill: #c44536; stroke: #c44536; stroke-width: 1.6; stroke-linecap: round"/>
   </g>
   <g id="patch_13">
    <path d="M 316.89 221.133859 
Q 316.89 191.254798 316.89 163.164592 
" clip-path="url(#p962b364647)" style="fill: none; stroke: #c44536; stroke-width: 1.6; stroke-linecap: round"/>
    <path d="M 314.09 168.764592 
L 316.89 163.164592 
L 319.69 168.764592 
z
" clip-path="url(#p962b364647)" style="fill: #c44536; stroke: #c44536; stroke-width: 1.6; stroke-linecap: round"/>
   </g>
   <g id="patch_14">
    <path d="M 17.244 283.559725 
L 119.916 283.559725 
Q 126.612 283.559725 126.612 276.906925 
L 126.612 202.617325 
Q 126.612 195.964525 119.916 195.964525 
L 17.244 195.964525 
Q 10.548 195.964525 10.548 202.617325 
L 10.548 276.906925 
Q 10.548 283.559725 17.244 283.559725 
z
" clip-path="url(#p962b364647)" style="fill: #e6f4ea; stroke: #283142; stroke-width: 1.4; stroke-linejoin: miter"/>
   </g>
   <g id="patch_15">
    <path d="M 485.079328 261.938125 
Q 305.729986 261.938125 128.169498 261.938125 
" clip-path="url(#p962b364647)" style="fill: none; stroke: #2e7d32; stroke-width: 1.6; stroke-linecap: round"/>
    <path d="M 133.769498 264.738125 
L 128.169498 261.938125 
L 133.769498 259.138125 
z
" clip-path="url(#p962b364647)" style="fill: #2e7d32; stroke: #2e7d32; stroke-width: 1.6; stroke-linecap: round"/>
   </g>
   <g id="text_1">
    <!-- 1. Input -->
    <g style="fill: #283142" transform="translate(43.723594 93.791763) scale(0.1 -0.1)">
     <defs>
      <path id="DejaVuSans-Bold-31" d="M 750 831 
L 1813 831 
L 1813 3847 
L 722 3622 
L 722 4441 
L 1806 4666 
L 2950 4666 
L 2950 831 
L 4013 831 
L 4013 0 
L 750 0 
L 750 831 
z
" transform="scale(0.015625)"/>
      <path id="DejaVuSans-Bold-2e" d="M 653 1209 
L 1778 1209 
L 1778 0 
L 653 0 
L 653 1209 
z
" transform="scale(0.015625)"/>
      <path id="DejaVuSans-Bold-20" transform="scale(0.015625)"/>
      <path id="DejaVuSans-Bold-49" d="M 588 4666 
L 1791 4666 
L 1791 0 
L 588 0 
L 588 4666 
z
" transform="scale(0.015625)"/>
      <path id="DejaVuSans-Bold-6e" d="M 4056 2131 
L 4056 0 
L 2931 0 
L 2931 347 
L 2931 1631 
Q 2931 2084 2911 2256 
Q 2891 2428 2841 2509 
Q 2775 2619 2662 2680 
Q 2550 2741 2406 2741 
Q 2056 2741 1856 2470 
Q 1656 2200 1656 1722 
L 1656 0 
L 538 0 
L 538 3500 
L 1656 3500 
L 1656 2988 
Q 1909 3294 2193 3439 
Q 2478 3584 2822 3584 
Q 3428 3584 3742 3212 
Q 4056 2841 4056 2131 
z
" transform="scale(0.015625)"/>
      <path id="DejaVuSans-Bold-70" d="M 1656 506 
L 1656 -1331 
L 538 -1331 
L 538 3500 
L 1656 3500 
L 1656 2988 
Q 1888 3294 2169 3439 
Q 2450 3584 2816 3584 
Q 3463 3584 3878 3070 
Q 4294 2556 4294 1747 
Q 4294 938 3878 423 
Q 3463 -91 2816 -91 
Q 2450 -91 2169 54 
Q 1888 200 1656 506 
z
M 2400 2772 
Q 2041 2772 1848 2508 
Q 1656 2244 1656 1747 
Q 1656 1250 1848 986 
Q 2041 722 2400 722 
Q 2759 722 2948 984 
Q 3138 1247 3138 1747 
Q 3138 2247 2948 2509 
Q 2759 2772 2400 2772 
z
" transform="scale(0.015625)"/>
      <path id="DejaVuSans-Bold-75" d="M 500 1363 
L 500 3500 
L 1625 3500 
L 1625 3150 
Q 1625 2866 1622 2436 
Q 1619 2006 1619 1863 
Q 1619 1441 1641 1255 
Q 1663 1069 1716 984 
Q 1784 875 1895 815 
Q 2006 756 2150 756 
Q 2500 756 2700 1025 
Q 2900 1294 2900 1772 
L 2900 3500 
L 4019 3500 
L 4019 0 
L 2900 0 
L 2900 506 
Q 2647 200 2364 54 
Q 2081 -91 1741 -91 
Q 1134 -91 817 281 
Q 500 653 500 1363 
z
" transform="scale(0.015625)"/>
      <path id="DejaVuSans-Bold-74" d="M 1759 4494 
L 1759 3500 
L 2913 3500 
L 2913 2700 
L 1759 2700 
L 1759 1216 
Q 1759 972 1856 886 
Q 1953 800 2241 800 
L 2816 800 
L 2816 0 
L 1856 0 
Q 1194 0 917 276 
Q 641 553 641 1216 
L 641 2700 
L 84 2700 
L 84 3500 
L 641 3500 
L 641 4494 
L 1759 4494 
z
" transform="scale(0.015625)"/>
     </defs>
     <use xlink:href="#DejaVuSans-Bold-31"/>
     <use xlink:href="#DejaVuSans-Bold-2e" transform="translate(69.580078 0)"/>
     <use xlink:href="#DejaVuSans-Bold-20" transform="translate(107.568359 0)"/>
     <use xlink:href="#DejaVuSans-Bold-49" transform="translate(142.382812 0)"/>
     <use xlink:href="#DejaVuSans-Bold-6e" transform="translate(179.589844 0)"/>
     <use xlink:href="#DejaVuSans-Bold-70" transform="translate(250.78125 0)"/>
     <use xlink:href="#DejaVuSans-Bold-75" transform="translate(322.363281 0)"/>
     <use xlink:href="#DejaVuSans-Bold-74" transform="translate(393.554688 0)"/>
    </g>
   </g>
   <g id="text_2">
    <!-- Query $q$, -->
    <g style="fill: #1f3a5f" transform="translate(45.3175 120.621273) scale(0.095 -0.095)">
     <defs>
      <path id="DejaVuSans-51" d="M 2522 4238 
Q 1834 4238 1429 3725 
Q 1025 3213 1025 2328 
Q 1025 1447 1429 934 
Q 1834 422 2522 422 
Q 3209 422 3611 934 
Q 4013 1447 4013 2328 
Q 4013 3213 3611 3725 
Q 3209 4238 2522 4238 
z
M 3406 84 
L 4238 -825 
L 3475 -825 
L 2784 -78 
Q 2681 -84 2626 -87 
Q 2572 -91 2522 -91 
Q 1538 -91 948 567 
Q 359 1225 359 2328 
Q 359 3434 948 4092 
Q 1538 4750 2522 4750 
Q 3503 4750 4090 4092 
Q 4678 3434 4678 2328 
Q 4678 1516 4351 937 
Q 4025 359 3406 84 
z
" transform="scale(0.015625)"/>
      <path id="DejaVuSans-75" d="M 544 1381 
L 544 3500 
L 1119 3500 
L 1119 1403 
Q 1119 906 1312 657 
Q 1506 409 1894 409 
Q 2359 409 2629 706 
Q 2900 1003 2900 1516 
L 2900 3500 
L 3475 3500 
L 3475 0 
L 2900 0 
L 2900 538 
Q 2691 219 2414 64 
Q 2138 -91 1772 -91 
Q 1169 -91 856 284 
Q 544 659 544 1381 
z
M 1991 3584 
L 1991 3584 
z
" transform="scale(0.015625)"/>
      <path id="DejaVuSans-65" d="M 3597 1894 
L 3597 1613 
L 953 1613 
Q 991 1019 1311 708 
Q 1631 397 2203 397 
Q 2534 397 2845 478 
Q 3156 559 3463 722 
L 3463 178 
Q 3153 47 2828 -22 
Q 2503 -91 2169 -91 
Q 1331 -91 842 396 
Q 353 884 353 1716 
Q 353 2575 817 3079 
Q 1281 3584 2069 3584 
Q 2775 3584 3186 3129 
Q 3597 2675 3597 1894 
z
M 3022 2063 
Q 3016 2534 2758 2815 
Q 2500 3097 2075 3097 
Q 1594 3097 1305 2825 
Q 1016 2553 972 2059 
L 3022 2063 
z
" transform="scale(0.015625)"/>
      <path id="DejaVuSans-72" d="M 2631 2963 
Q 2534 3019 2420 3045 
Q 2306 3072 2169 3072 
Q 1681 3072 1420 2755 
Q 1159 2438 1159 1844 
L 1159 0 
L 581 0 
L 581 3500 
L 1159 3500 
L 1159 2956 
Q 1341 3275 1631 3429 
Q 1922 3584 2338 3584 
Q 2397 3584 2469 3576 
Q 2541 3569 2628 3553 
L 2631 2963 
z
" transform="scale(0.015625)"/>
      <path id="DejaVuSans-79" d="M 2059 -325 
Q 1816 -950 1584 -1140 
Q 1353 -1331 966 -1331 
L 506 -1331 
L 506 -850 
L 844 -850 
Q 1081 -850 1212 -737 
Q 1344 -625 1503 -206 
L 1606 56 
L 191 3500 
L 800 3500 
L 1894 763 
L 2988 3500 
L 3597 3500 
L 2059 -325 
z
" transform="scale(0.015625)"/>
      <path id="DejaVuSans-20" transform="scale(0.015625)"/>
      <path id="DejaVuSans-Oblique-71" d="M 2669 525 
Q 2438 222 2123 65 
Q 1809 -91 1428 -91 
Q 897 -91 595 267 
Q 294 625 294 1253 
Q 294 1759 480 2231 
Q 666 2703 1013 3078 
Q 1238 3322 1530 3453 
Q 1822 3584 2144 3584 
Q 2531 3584 2781 3431 
Q 3031 3278 3144 2969 
L 3244 3494 
L 3822 3494 
L 2888 -1319 
L 2309 -1319 
L 2669 525 
z
M 891 1338 
Q 891 875 1084 633 
Q 1278 391 1644 391 
Q 2188 391 2572 911 
Q 2956 1431 2956 2175 
Q 2956 2625 2757 2864 
Q 2559 3103 2188 3103 
Q 1916 3103 1684 2976 
Q 1453 2850 1281 2606 
Q 1100 2350 995 2006 
Q 891 1663 891 1338 
z
" transform="scale(0.015625)"/>
      <path id="DejaVuSans-2c" d="M 750 794 
L 1409 794 
L 1409 256 
L 897 -744 
L 494 -744 
L 750 256 
L 750 794 
z
" transform="scale(0.015625)"/>
     </defs>
     <use xlink:href="#DejaVuSans-51" transform="translate(0 0.78125)"/>
     <use xlink:href="#DejaVuSans-75" transform="translate(78.710938 0.78125)"/>
     <use xlink:href="#DejaVuSans-65" transform="translate(142.089844 0.78125)"/>
     <use xlink:href="#DejaVuSans-72" transform="translate(203.613281 0.78125)"/>
     <use xlink:href="#DejaVuSans-79" transform="translate(244.726562 0.78125)"/>
     <use xlink:href="#DejaVuSans-20" transform="translate(303.90625 0.78125)"/>
     <use xlink:href="#DejaVuSans-Oblique-71" transform="translate(335.693359 0.78125)"/>
     <use xlink:href="#DejaVuSans-2c" transform="translate(399.169922 0.78125)"/>
    </g>
    <!-- context $\{c_1..c_n\}$ -->
    <g style="fill: #1f3a5f" transform="translate(25.6525 131.278492) scale(0.095 -0.095)">
     <defs>
      <path id="DejaVuSans-63" d="M 3122 3366 
L 3122 2828 
Q 2878 2963 2633 3030 
Q 2388 3097 2138 3097 
Q 1578 3097 1268 2742 
Q 959 2388 959 1747 
Q 959 1106 1268 751 
Q 1578 397 2138 397 
Q 2388 397 2633 464 
Q 2878 531 3122 666 
L 3122 134 
Q 2881 22 2623 -34 
Q 2366 -91 2075 -91 
Q 1284 -91 818 406 
Q 353 903 353 1747 
Q 353 2603 823 3093 
Q 1294 3584 2113 3584 
Q 2378 3584 2631 3529 
Q 2884 3475 3122 3366 
z
" transform="scale(0.015625)"/>
      <path id="DejaVuSans-6f" d="M 1959 3097 
Q 1497 3097 1228 2736 
Q 959 2375 959 1747 
Q 959 1119 1226 758 
Q 1494 397 1959 397 
Q 2419 397 2687 759 
Q 2956 1122 2956 1747 
Q 2956 2369 2687 2733 
Q 2419 3097 1959 3097 
z
M 1959 3584 
Q 2709 3584 3137 3096 
Q 3566 2609 3566 1747 
Q 3566 888 3137 398 
Q 2709 -91 1959 -91 
Q 1206 -91 779 398 
Q 353 888 353 1747 
Q 353 2609 779 3096 
Q 1206 3584 1959 3584 
z
" transform="scale(0.015625)"/>
      <path id="DejaVuSans-6e" d="M 3513 2113 
L 3513 0 
L 2938 0 
L 2938 2094 
Q 2938 2591 2744 2837 
Q 2550 3084 2163 3084 
Q 1697 3084 1428 2787 
Q 1159 2491 1159 1978 
L 1159 0 
L 581 0 
L 581 3500 
L 1159 3500 
L 1159 2956 
Q 1366 3272 1645 3428 
Q 1925 3584 2291 3584 
Q 2894 3584 3203 3211 
Q 3513 2838 3513 2113 
z
" transform="scale(0.015625)"/>
      <path id="DejaVuSans-74" d="M 1172 4494 
L 1172 3500 
L 2356 3500 
L 2356 3053 
L 1172 3053 
L 1172 1153 
Q 1172 725 1289 603 
Q 1406 481 1766 481 
L 2356 481 
L 2356 0 
L 1766 0 
Q 1100 0 847 248 
Q 594 497 594 1153 
L 594 3053 
L 172 3053 
L 172 3500 
L 594 3500 
L 594 4494 
L 1172 4494 
z
" transform="scale(0.015625)"/>
      <path id="DejaVuSans-78" d="M 3513 3500 
L 2247 1797 
L 3578 0 
L 2900 0 
L 1881 1375 
L 863 0 
L 184 0 
L 1544 1831 
L 300 3500 
L 978 3500 
L 1906 2253 
L 2834 3500 
L 3513 3500 
z
" transform="scale(0.015625)"/>
      <path id="DejaVuSans-7b" d="M 3272 -594 
L 3272 -1044 
L 3078 -1044 
Q 2300 -1044 2036 -812 
Q 1772 -581 1772 109 
L 1772 856 
Q 1772 1328 1603 1509 
Q 1434 1691 991 1691 
L 800 1691 
L 800 2138 
L 991 2138 
Q 1438 2138 1605 2317 
Q 1772 2497 1772 2963 
L 1772 3713 
Q 1772 4403 2036 4633 
Q 2300 4863 3078 4863 
L 3272 4863 
L 3272 4416 
L 3059 4416 
Q 2619 4416 2484 4278 
Q 2350 4141 2350 3700 
L 2350 2925 
Q 2350 2434 2208 2212 
Q 2066 1991 1722 1913 
Q 2069 1828 2209 1606 
Q 2350 1384 2350 897 
L 2350 122 
Q 2350 -319 2484 -456 
Q 2619 -594 3059 -594 
L 3272 -594 
z
" transform="scale(0.015625)"/>
      <path id="DejaVuSans-Oblique-63" d="M 3431 3366 
L 3316 2797 
Q 3109 2947 2876 3022 
Q 2644 3097 2394 3097 
Q 2119 3097 1870 3000 
Q 1622 2903 1453 2725 
Q 1184 2453 1037 2087 
Q 891 1722 891 1331 
Q 891 859 1127 628 
Q 1363 397 1844 397 
Q 2081 397 2348 469 
Q 2616 541 2906 684 
L 2797 116 
Q 2547 13 2283 -39 
Q 2019 -91 1741 -91 
Q 1044 -91 669 257 
Q 294 606 294 1253 
Q 294 1797 489 2255 
Q 684 2713 1069 3078 
Q 1331 3328 1684 3456 
Q 2038 3584 2456 3584 
Q 2700 3584 2940 3529 
Q 3181 3475 3431 3366 
z
" transform="scale(0.015625)"/>
      <path id="DejaVuSans-31" d="M 794 531 
L 1825 531 
L 1825 4091 
L 703 3866 
L 703 4441 
L 1819 4666 
L 2450 4666 
L 2450 531 
L 3481 531 
L 3481 0 
L 794 0 
L 794 531 
z
" transform="scale(0.015625)"/>
      <path id="DejaVuSans-2e" d="M 684 794 
L 1344 794 
L 1344 0 
L 684 0 
L 684 794 
z
" transform="scale(0.015625)"/>
      <path id="DejaVuSans-Oblique-6e" d="M 3566 2113 
L 3156 0 
L 2578 0 
L 2988 2091 
Q 3016 2238 3031 2350 
Q 3047 2463 3047 2528 
Q 3047 2791 2881 2937 
Q 2716 3084 2419 3084 
Q 1956 3084 1622 2776 
Q 1288 2469 1184 1941 
L 800 0 
L 225 0 
L 903 3500 
L 1478 3500 
L 1363 2950 
Q 1603 3253 1940 3418 
Q 2278 3584 2650 3584 
Q 3113 3584 3367 3334 
Q 3622 3084 3622 2631 
Q 3622 2519 3608 2391 
Q 3594 2263 3566 2113 
z
" transform="scale(0.015625)"/>
      <path id="DejaVuSans-7d" d="M 800 -594 
L 1019 -594 
Q 1456 -594 1589 -459 
Q 1722 -325 1722 122 
L 1722 897 
Q 1722 1384 1862 1606 
Q 2003 1828 2350 1913 
Q 2003 1991 1862 2212 
Q 1722 2434 1722 2925 
L 1722 3700 
Q 1722 4144 1589 4280 
Q 1456 4416 1019 4416 
L 800 4416 
L 800 4863 
L 997 4863 
Q 1775 4863 2036 4633 
Q 2297 4403 2297 3713 
L 2297 2963 
Q 2297 2497 2465 2317 
Q 2634 2138 3078 2138 
L 3272 2138 
L 3272 1691 
L 3078 1691 
Q 2634 1691 2465 1509 
Q 2297 1328 2297 856 
L 2297 109 
Q 2297 -581 2036 -812 
Q 1775 -1044 997 -1044 
L 800 -1044 
L 800 -594 
z
" transform="scale(0.015625)"/>
     </defs>
     <use xlink:href="#DejaVuSans-63" transform="translate(0 0.015625)"/>
     <use xlink:href="#DejaVuSans-6f" transform="translate(54.980469 0.015625)"/>
     <use xlink:href="#DejaVuSans-6e" transform="translate(116.162109 0.015625)"/>
     <use xlink:href="#DejaVuSans-74" transform="translate(179.541016 0.015625)"/>
     <use xlink:href="#DejaVuSans-65" transform="translate(218.75 0.015625)"/>
     <use xlink:href="#DejaVuSans-78" transform="translate(280.273438 0.015625)"/>
     <use xlink:href="#DejaVuSans-74" transform="translate(339.453125 0.015625)"/>
     <use xlink:href="#DejaVuSans-20" transform="translate(378.662109 0.015625)"/>
     <use xlink:href="#DejaVuSans-7b" transform="translate(410.449219 0.015625)"/>
     <use xlink:href="#DejaVuSans-Oblique-63" transform="translate(474.072266 0.015625)"/>
     <use xlink:href="#DejaVuSans-31" transform="translate(529.052734 -16.390625) scale(0.7)"/>
     <use xlink:href="#DejaVuSans-2e" transform="translate(576.323242 0.015625)"/>
     <use xlink:href="#DejaVuSans-2e" transform="translate(627.592773 0.015625)"/>
     <use xlink:href="#DejaVuSans-Oblique-63" transform="translate(678.862305 0.015625)"/>
     <use xlink:href="#DejaVuSans-Oblique-6e" transform="translate(733.842773 -16.390625) scale(0.7)"/>
     <use xlink:href="#DejaVuSans-7d" transform="translate(780.942383 0.015625)"/>
    </g>
   </g>
   <g id="text_3">
    <!-- 2. Build Graph -->
    <g style="fill: #283142" transform="translate(151.02125 93.791763) scale(0.1 -0.1)">
     <defs>
      <path id="DejaVuSans-Bold-32" d="M 1844 884 
L 3897 884 
L 3897 0 
L 506 0 
L 506 884 
L 2209 2388 
Q 2438 2594 2547 2791 
Q 2656 2988 2656 3200 
Q 2656 3528 2436 3728 
Q 2216 3928 1850 3928 
Q 1569 3928 1234 3808 
Q 900 3688 519 3450 
L 519 4475 
Q 925 4609 1322 4679 
Q 1719 4750 2100 4750 
Q 2938 4750 3402 4381 
Q 3866 4013 3866 3353 
Q 3866 2972 3669 2642 
Q 3472 2313 2841 1759 
L 1844 884 
z
" transform="scale(0.015625)"/>
      <path id="DejaVuSans-Bold-42" d="M 2456 2859 
Q 2741 2859 2887 2984 
Q 3034 3109 3034 3353 
Q 3034 3594 2887 3720 
Q 2741 3847 2456 3847 
L 1791 3847 
L 1791 2859 
L 2456 2859 
z
M 2497 819 
Q 2859 819 3042 972 
Q 3225 1125 3225 1434 
Q 3225 1738 3044 1889 
Q 2863 2041 2497 2041 
L 1791 2041 
L 1791 819 
L 2497 819 
z
M 3616 2497 
Q 4003 2384 4215 2081 
Q 4428 1778 4428 1338 
Q 4428 663 3972 331 
Q 3516 0 2584 0 
L 588 0 
L 588 4666 
L 2394 4666 
Q 3366 4666 3802 4372 
Q 4238 4078 4238 3431 
Q 4238 3091 4078 2852 
Q 3919 2613 3616 2497 
z
" transform="scale(0.015625)"/>
      <path id="DejaVuSans-Bold-69" d="M 538 3500 
L 1656 3500 
L 1656 0 
L 538 0 
L 538 3500 
z
M 538 4863 
L 1656 4863 
L 1656 3950 
L 538 3950 
L 538 4863 
z
" transform="scale(0.015625)"/>
      <path id="DejaVuSans-Bold-6c" d="M 538 4863 
L 1656 4863 
L 1656 0 
L 538 0 
L 538 4863 
z
" transform="scale(0.015625)"/>
      <path id="DejaVuSans-Bold-64" d="M 2919 2988 
L 2919 4863 
L 4044 4863 
L 4044 0 
L 2919 0 
L 2919 506 
Q 2688 197 2409 53 
Q 2131 -91 1766 -91 
Q 1119 -91 703 423 
Q 288 938 288 1747 
Q 288 2556 703 3070 
Q 1119 3584 1766 3584 
Q 2128 3584 2408 3439 
Q 2688 3294 2919 2988 
z
M 2181 722 
Q 2541 722 2730 984 
Q 2919 1247 2919 1747 
Q 2919 2247 2730 2509 
Q 2541 2772 2181 2772 
Q 1825 2772 1636 2509 
Q 1447 2247 1447 1747 
Q 1447 1247 1636 984 
Q 1825 722 2181 722 
z
" transform="scale(0.015625)"/>
      <path id="DejaVuSans-Bold-47" d="M 4781 347 
Q 4331 128 3847 18 
Q 3363 -91 2847 -91 
Q 1681 -91 1000 561 
Q 319 1213 319 2328 
Q 319 3456 1012 4103 
Q 1706 4750 2913 4750 
Q 3378 4750 3804 4662 
Q 4231 4575 4609 4403 
L 4609 3438 
Q 4219 3659 3833 3768 
Q 3447 3878 3059 3878 
Q 2341 3878 1952 3476 
Q 1563 3075 1563 2328 
Q 1563 1588 1938 1184 
Q 2313 781 3003 781 
Q 3191 781 3352 804 
Q 3513 828 3641 878 
L 3641 1784 
L 2906 1784 
L 2906 2591 
L 4781 2591 
L 4781 347 
z
" transform="scale(0.015625)"/>
      <path id="DejaVuSans-Bold-72" d="M 3138 2547 
Q 2991 2616 2845 2648 
Q 2700 2681 2553 2681 
Q 2122 2681 1889 2404 
Q 1656 2128 1656 1613 
L 1656 0 
L 538 0 
L 538 3500 
L 1656 3500 
L 1656 2925 
Q 1872 3269 2151 3426 
Q 2431 3584 2822 3584 
Q 2878 3584 2943 3579 
Q 3009 3575 3134 3559 
L 3138 2547 
z
" transform="scale(0.015625)"/>
      <path id="DejaVuSans-Bold-61" d="M 2106 1575 
Q 1756 1575 1579 1456 
Q 1403 1338 1403 1106 
Q 1403 894 1545 773 
Q 1688 653 1941 653 
Q 2256 653 2472 879 
Q 2688 1106 2688 1447 
L 2688 1575 
L 2106 1575 
z
M 3816 1997 
L 3816 0 
L 2688 0 
L 2688 519 
Q 2463 200 2181 54 
Q 1900 -91 1497 -91 
Q 953 -91 614 226 
Q 275 544 275 1050 
Q 275 1666 698 1953 
Q 1122 2241 2028 2241 
L 2688 2241 
L 2688 2328 
Q 2688 2594 2478 2717 
Q 2269 2841 1825 2841 
Q 1466 2841 1156 2769 
Q 847 2697 581 2553 
L 581 3406 
Q 941 3494 1303 3539 
Q 1666 3584 2028 3584 
Q 2975 3584 3395 3211 
Q 3816 2838 3816 1997 
z
" transform="scale(0.015625)"/>
      <path id="DejaVuSans-Bold-68" d="M 4056 2131 
L 4056 0 
L 2931 0 
L 2931 347 
L 2931 1625 
Q 2931 2084 2911 2256 
Q 2891 2428 2841 2509 
Q 2775 2619 2662 2680 
Q 2550 2741 2406 2741 
Q 2056 2741 1856 2470 
Q 1656 2200 1656 1722 
L 1656 0 
L 538 0 
L 538 4863 
L 1656 4863 
L 1656 2988 
Q 1909 3294 2193 3439 
Q 2478 3584 2822 3584 
Q 3428 3584 3742 3212 
Q 4056 2841 4056 2131 
z
" transform="scale(0.015625)"/>
     </defs>
     <use xlink:href="#DejaVuSans-Bold-32"/>
     <use xlink:href="#DejaVuSans-Bold-2e" transform="translate(69.580078 0)"/>
     <use xlink:href="#DejaVuSans-Bold-20" transform="translate(107.568359 0)"/>
     <use xlink:href="#DejaVuSans-Bold-42" transform="translate(142.382812 0)"/>
     <use xlink:href="#DejaVuSans-Bold-75" transform="translate(218.603516 0)"/>
     <use xlink:href="#DejaVuSans-Bold-69" transform="translate(289.794922 0)"/>
     <use xlink:href="#DejaVuSans-Bold-6c" transform="translate(324.072266 0)"/>
     <use xlink:href="#DejaVuSans-Bold-64" transform="translate(358.349609 0)"/>
     <use xlink:href="#DejaVuSans-Bold-20" transform="translate(429.931641 0)"/>
     <use xlink:href="#DejaVuSans-Bold-47" transform="translate(464.746094 0)"/>
     <use xlink:href="#DejaVuSans-Bold-72" transform="translate(546.826172 0)"/>
     <use xlink:href="#DejaVuSans-Bold-61" transform="translate(596.142578 0)"/>
     <use xlink:href="#DejaVuSans-Bold-70" transform="translate(663.623047 0)"/>
     <use xlink:href="#DejaVuSans-Bold-68" transform="translate(735.205078 0)"/>
    </g>
   </g>
   <g id="text_4">
    <!-- $w_{ij}=\cos(\phi_i,\phi_j)$ -->
    <g style="fill: #1f3a5f" transform="translate(157.0925 120.156664) scale(0.095 -0.095)">
     <defs>
      <path id="DejaVuSans-Oblique-77" d="M 544 3500 
L 1113 3500 
L 1259 684 
L 2566 3500 
L 3231 3500 
L 3425 684 
L 4666 3500 
L 5241 3500 
L 3641 0 
L 2969 0 
L 2797 2900 
L 1459 0 
L 781 0 
L 544 3500 
z
" transform="scale(0.015625)"/>
      <path id="DejaVuSans-Oblique-69" d="M 1172 4863 
L 1747 4863 
L 1606 4134 
L 1031 4134 
L 1172 4863 
z
M 909 3500 
L 1484 3500 
L 800 0 
L 225 0 
L 909 3500 
z
" transform="scale(0.015625)"/>
      <path id="DejaVuSans-Oblique-6a" d="M 928 3500 
L 1503 3500 
L 813 -63 
L 809 -78 
Q 694 -675 544 -897 
Q 403 -1106 132 -1218 
Q -138 -1331 -506 -1331 
L -722 -1331 
L -628 -844 
L -481 -844 
Q -144 -844 -1 -703 
Q 141 -563 238 -63 
L 928 3500 
z
M 1197 4863 
L 1772 4863 
L 1631 4134 
L 1056 4134 
L 1197 4863 
z
" transform="scale(0.015625)"/>
      <path id="DejaVuSans-3d" d="M 678 2906 
L 4684 2906 
L 4684 2381 
L 678 2381 
L 678 2906 
z
M 678 1631 
L 4684 1631 
L 4684 1100 
L 678 1100 
L 678 1631 
z
" transform="scale(0.015625)"/>
      <path id="DejaVuSans-73" d="M 2834 3397 
L 2834 2853 
Q 2591 2978 2328 3040 
Q 2066 3103 1784 3103 
Q 1356 3103 1142 2972 
Q 928 2841 928 2578 
Q 928 2378 1081 2264 
Q 1234 2150 1697 2047 
L 1894 2003 
Q 2506 1872 2764 1633 
Q 3022 1394 3022 966 
Q 3022 478 2636 193 
Q 2250 -91 1575 -91 
Q 1294 -91 989 -36 
Q 684 19 347 128 
L 347 722 
Q 666 556 975 473 
Q 1284 391 1588 391 
Q 1994 391 2212 530 
Q 2431 669 2431 922 
Q 2431 1156 2273 1281 
Q 2116 1406 1581 1522 
L 1381 1569 
Q 847 1681 609 1914 
Q 372 2147 372 2553 
Q 372 3047 722 3315 
Q 1072 3584 1716 3584 
Q 2034 3584 2315 3537 
Q 2597 3491 2834 3397 
z
" transform="scale(0.015625)"/>
      <path id="DejaVuSans-28" d="M 1984 4856 
Q 1566 4138 1362 3434 
Q 1159 2731 1159 2009 
Q 1159 1288 1364 580 
Q 1569 -128 1984 -844 
L 1484 -844 
Q 1016 -109 783 600 
Q 550 1309 550 2009 
Q 550 2706 781 3412 
Q 1013 4119 1484 4856 
L 1984 4856 
z
" transform="scale(0.015625)"/>
      <path id="DejaVuSans-Oblique-3d5" d="M 2991 4863 
L 2738 3572 
Q 3363 3572 3684 3094 
Q 4016 2606 3850 1747 
Q 3681 888 3159 400 
Q 2653 -78 2028 -78 
L 1784 -1331 
L 1213 -1331 
L 1456 -78 
Q 834 -78 509 400 
Q 178 888 347 1747 
Q 513 2606 1034 3094 
Q 1544 3572 2166 3572 
L 2419 4863 
L 2991 4863 
z
M 2128 434 
Q 2481 434 2784 756 
Q 3116 1116 3244 1747 
Q 3369 2372 3169 2738 
Q 2991 3059 2638 3059 
L 2128 434 
z
M 1556 434 
L 2066 3059 
Q 1716 3059 1413 2738 
Q 1072 2372 953 1747 
Q 834 1116 1028 756 
Q 1203 434 1556 434 
z
" transform="scale(0.015625)"/>
      <path id="DejaVuSans-29" d="M 513 4856 
L 1013 4856 
Q 1481 4119 1714 3412 
Q 1947 2706 1947 2009 
Q 1947 1309 1714 600 
Q 1481 -109 1013 -844 
L 513 -844 
Q 928 -128 1133 580 
Q 1338 1288 1338 2009 
Q 1338 2731 1133 3434 
Q 928 4138 513 4856 
z
" transform="scale(0.015625)"/>
     </defs>
     <use xlink:href="#DejaVuSans-Oblique-77" transform="translate(0 0.015625)"/>
     <use xlink:href="#DejaVuSans-Oblique-69" transform="translate(81.787109 -16.390625) scale(0.7)"/>
     <use xlink:href="#DejaVuSans-Oblique-6a" transform="translate(101.235352 -16.390625) scale(0.7)"/>
     <use xlink:href="#DejaVuSans-3d" transform="translate(142.900391 0.015625)"/>
     <use xlink:href="#DejaVuSans-63" transform="translate(246.171875 0.015625)"/>
     <use xlink:href="#DejaVuSans-6f" transform="translate(301.152344 0.015625)"/>
     <use xlink:href="#DejaVuSans-73" transform="translate(362.333984 0.015625)"/>
     <use xlink:href="#DejaVuSans-28" transform="translate(414.433594 0.015625)"/>
     <use xlink:href="#DejaVuSans-Oblique-3d5" transform="translate(453.447266 0.015625)"/>
     <use xlink:href="#DejaVuSans-Oblique-69" transform="translate(519.414062 -16.390625) scale(0.7)"/>
     <use xlink:href="#DejaVuSans-2c" transform="translate(541.59668 0.015625)"/>
     <use xlink:href="#DejaVuSans-Oblique-3d5" transform="translate(592.866211 0.015625)"/>
     <use xlink:href="#DejaVuSans-Oblique-6a" transform="translate(658.833008 -16.390625) scale(0.7)"/>
     <use xlink:href="#DejaVuSans-29" transform="translate(681.015625 0.015625)"/>
    </g>
    <!-- $\geq \tau$ -->
    <g style="fill: #1f3a5f" transform="translate(182.6475 131.763883) scale(0.095 -0.095)">
     <defs>
      <path id="DejaVuSans-2265" d="M 678 3175 
L 678 3725 
L 4684 2578 
L 4684 2047 
L 678 897 
L 678 1453 
L 3681 2309 
L 678 3175 
z
M 4684 531 
L 4684 0 
L 678 0 
L 678 531 
L 4684 531 
z
" transform="scale(0.015625)"/>
      <path id="DejaVuSans-Oblique-3c4" d="M 2103 638 
Q 2188 488 2525 488 
L 2800 488 
L 2706 0 
L 2363 0 
Q 1800 0 1600 300 
Q 1403 606 1534 1269 
L 1856 2925 
L 541 2925 
L 653 3500 
L 3881 3500 
L 3769 2925 
L 2444 2925 
L 2113 1234 
Q 2025 781 2103 638 
z
" transform="scale(0.015625)"/>
     </defs>
     <use xlink:href="#DejaVuSans-2265" transform="translate(19.482422 0.796875)"/>
     <use xlink:href="#DejaVuSans-Oblique-3c4" transform="translate(122.753906 0.796875)"/>
    </g>
   </g>
   <g id="text_5">
    <!-- 3. Inject Current -->
    <g style="fill: #283142" transform="translate(270.650937 93.791763) scale(0.1 -0.1)">
     <defs>
      <path id="DejaVuSans-Bold-33" d="M 2981 2516 
Q 3453 2394 3698 2092 
Q 3944 1791 3944 1325 
Q 3944 631 3412 270 
Q 2881 -91 1863 -91 
Q 1503 -91 1142 -33 
Q 781 25 428 141 
L 428 1069 
Q 766 900 1098 814 
Q 1431 728 1753 728 
Q 2231 728 2486 893 
Q 2741 1059 2741 1369 
Q 2741 1688 2480 1852 
Q 2219 2016 1709 2016 
L 1228 2016 
L 1228 2791 
L 1734 2791 
Q 2188 2791 2409 2933 
Q 2631 3075 2631 3366 
Q 2631 3634 2415 3781 
Q 2200 3928 1806 3928 
Q 1516 3928 1219 3862 
Q 922 3797 628 3669 
L 628 4550 
Q 984 4650 1334 4700 
Q 1684 4750 2022 4750 
Q 2931 4750 3382 4451 
Q 3834 4153 3834 3553 
Q 3834 3144 3618 2883 
Q 3403 2622 2981 2516 
z
" transform="scale(0.015625)"/>
      <path id="DejaVuSans-Bold-6a" d="M 538 3500 
L 1656 3500 
L 1656 63 
Q 1656 -641 1318 -1011 
Q 981 -1381 341 -1381 
L -213 -1381 
L -213 -647 
L -19 -647 
Q 300 -647 419 -503 
Q 538 -359 538 63 
L 538 3500 
z
M 538 4863 
L 1656 4863 
L 1656 3950 
L 538 3950 
L 538 4863 
z
" transform="scale(0.015625)"/>
      <path id="DejaVuSans-Bold-65" d="M 4031 1759 
L 4031 1441 
L 1416 1441 
Q 1456 1047 1700 850 
Q 1944 653 2381 653 
Q 2734 653 3104 758 
Q 3475 863 3866 1075 
L 3866 213 
Q 3469 63 3072 -14 
Q 2675 -91 2278 -91 
Q 1328 -91 801 392 
Q 275 875 275 1747 
Q 275 2603 792 3093 
Q 1309 3584 2216 3584 
Q 3041 3584 3536 3087 
Q 4031 2591 4031 1759 
z
M 2881 2131 
Q 2881 2450 2695 2645 
Q 2509 2841 2209 2841 
Q 1884 2841 1681 2658 
Q 1478 2475 1428 2131 
L 2881 2131 
z
" transform="scale(0.015625)"/>
      <path id="DejaVuSans-Bold-63" d="M 3366 3391 
L 3366 2478 
Q 3138 2634 2908 2709 
Q 2678 2784 2431 2784 
Q 1963 2784 1702 2511 
Q 1441 2238 1441 1747 
Q 1441 1256 1702 982 
Q 1963 709 2431 709 
Q 2694 709 2930 787 
Q 3166 866 3366 1019 
L 3366 103 
Q 3103 6 2833 -42 
Q 2563 -91 2291 -91 
Q 1344 -91 809 395 
Q 275 881 275 1747 
Q 275 2613 809 3098 
Q 1344 3584 2291 3584 
Q 2566 3584 2833 3536 
Q 3100 3488 3366 3391 
z
" transform="scale(0.015625)"/>
      <path id="DejaVuSans-Bold-43" d="M 4288 256 
Q 3956 84 3597 -3 
Q 3238 -91 2847 -91 
Q 1681 -91 1000 561 
Q 319 1213 319 2328 
Q 319 3447 1000 4098 
Q 1681 4750 2847 4750 
Q 3238 4750 3597 4662 
Q 3956 4575 4288 4403 
L 4288 3438 
Q 3953 3666 3628 3772 
Q 3303 3878 2944 3878 
Q 2300 3878 1931 3465 
Q 1563 3053 1563 2328 
Q 1563 1606 1931 1193 
Q 2300 781 2944 781 
Q 3303 781 3628 887 
Q 3953 994 4288 1222 
L 4288 256 
z
" transform="scale(0.015625)"/>
     </defs>
     <use xlink:href="#DejaVuSans-Bold-33"/>
     <use xlink:href="#DejaVuSans-Bold-2e" transform="translate(69.580078 0)"/>
     <use xlink:href="#DejaVuSans-Bold-20" transform="translate(107.568359 0)"/>
     <use xlink:href="#DejaVuSans-Bold-49" transform="translate(142.382812 0)"/>
     <use xlink:href="#DejaVuSans-Bold-6e" transform="translate(179.589844 0)"/>
     <use xlink:href="#DejaVuSans-Bold-6a" transform="translate(250.78125 0)"/>
     <use xlink:href="#DejaVuSans-Bold-65" transform="translate(285.058594 0)"/>
     <use xlink:href="#DejaVuSans-Bold-63" transform="translate(352.880859 0)"/>
     <use xlink:href="#DejaVuSans-Bold-74" transform="translate(412.158203 0)"/>
     <use xlink:href="#DejaVuSans-Bold-20" transform="translate(459.960938 0)"/>
     <use xlink:href="#DejaVuSans-Bold-43" transform="translate(494.775391 0)"/>
     <use xlink:href="#DejaVuSans-Bold-75" transform="translate(568.164062 0)"/>
     <use xlink:href="#DejaVuSans-Bold-72" transform="translate(639.355469 0)"/>
     <use xlink:href="#DejaVuSans-Bold-72" transform="translate(688.671875 0)"/>
     <use xlink:href="#DejaVuSans-Bold-65" transform="translate(737.988281 0)"/>
     <use xlink:href="#DejaVuSans-Bold-6e" transform="translate(805.810547 0)"/>
     <use xlink:href="#DejaVuSans-Bold-74" transform="translate(877.001953 0)"/>
    </g>
   </g>
   <g id="text_6">
    <!-- $I_i = \cos(q, c_i)$ -->
    <g style="fill: #1f3a5f" transform="translate(287.7725 125.950625) scale(0.095 -0.095)">
     <defs>
      <path id="DejaVuSans-Oblique-49" d="M 1081 4666 
L 1716 4666 
L 806 0 
L 172 0 
L 1081 4666 
z
" transform="scale(0.015625)"/>
     </defs>
     <use xlink:href="#DejaVuSans-Oblique-49" transform="translate(0 0.125)"/>
     <use xlink:href="#DejaVuSans-Oblique-69" transform="translate(29.492188 -16.28125) scale(0.7)"/>
     <use xlink:href="#DejaVuSans-3d" transform="translate(71.157227 0.125)"/>
     <use xlink:href="#DejaVuSans-63" transform="translate(174.428711 0.125)"/>
     <use xlink:href="#DejaVuSans-6f" transform="translate(229.40918 0.125)"/>
     <use xlink:href="#DejaVuSans-73" transform="translate(290.59082 0.125)"/>
     <use xlink:href="#DejaVuSans-28" transform="translate(342.69043 0.125)"/>
     <use xlink:href="#DejaVuSans-Oblique-71" transform="translate(381.704102 0.125)"/>
     <use xlink:href="#DejaVuSans-2c" transform="translate(445.180664 0.125)"/>
     <use xlink:href="#DejaVuSans-Oblique-63" transform="translate(496.450195 0.125)"/>
     <use xlink:href="#DejaVuSans-Oblique-69" transform="translate(551.430664 -16.28125) scale(0.7)"/>
     <use xlink:href="#DejaVuSans-29" transform="translate(573.613281 0.125)"/>
    </g>
   </g>
   <g id="text_7">
    <!-- 4. Solve Kirchhoff -->
    <g style="fill: #283142" transform="translate(392.257969 93.791763) scale(0.1 -0.1)">
     <defs>
      <path id="DejaVuSans-Bold-34" d="M 2356 3675 
L 1038 1722 
L 2356 1722 
L 2356 3675 
z
M 2156 4666 
L 3494 4666 
L 3494 1722 
L 4159 1722 
L 4159 850 
L 3494 850 
L 3494 0 
L 2356 0 
L 2356 850 
L 288 850 
L 288 1881 
L 2156 4666 
z
" transform="scale(0.015625)"/>
      <path id="DejaVuSans-Bold-53" d="M 3834 4519 
L 3834 3531 
Q 3450 3703 3084 3790 
Q 2719 3878 2394 3878 
Q 1963 3878 1756 3759 
Q 1550 3641 1550 3391 
Q 1550 3203 1689 3098 
Q 1828 2994 2194 2919 
L 2706 2816 
Q 3484 2659 3812 2340 
Q 4141 2022 4141 1434 
Q 4141 663 3683 286 
Q 3225 -91 2284 -91 
Q 1841 -91 1394 -6 
Q 947 78 500 244 
L 500 1259 
Q 947 1022 1364 901 
Q 1781 781 2169 781 
Q 2563 781 2772 912 
Q 2981 1044 2981 1288 
Q 2981 1506 2839 1625 
Q 2697 1744 2272 1838 
L 1806 1941 
Q 1106 2091 782 2419 
Q 459 2747 459 3303 
Q 459 4000 909 4375 
Q 1359 4750 2203 4750 
Q 2588 4750 2994 4692 
Q 3400 4634 3834 4519 
z
" transform="scale(0.015625)"/>
      <path id="DejaVuSans-Bold-6f" d="M 2203 2784 
Q 1831 2784 1636 2517 
Q 1441 2250 1441 1747 
Q 1441 1244 1636 976 
Q 1831 709 2203 709 
Q 2569 709 2762 976 
Q 2956 1244 2956 1747 
Q 2956 2250 2762 2517 
Q 2569 2784 2203 2784 
z
M 2203 3584 
Q 3106 3584 3614 3096 
Q 4122 2609 4122 1747 
Q 4122 884 3614 396 
Q 3106 -91 2203 -91 
Q 1297 -91 786 396 
Q 275 884 275 1747 
Q 275 2609 786 3096 
Q 1297 3584 2203 3584 
z
" transform="scale(0.015625)"/>
      <path id="DejaVuSans-Bold-76" d="M 97 3500 
L 1216 3500 
L 2088 1081 
L 2956 3500 
L 4078 3500 
L 2700 0 
L 1472 0 
L 97 3500 
z
" transform="scale(0.015625)"/>
      <path id="DejaVuSans-Bold-4b" d="M 588 4666 
L 1791 4666 
L 1791 2963 
L 3525 4666 
L 4922 4666 
L 2675 2456 
L 5153 0 
L 3647 0 
L 1791 1838 
L 1791 0 
L 588 0 
L 588 4666 
z
" transform="scale(0.015625)"/>
      <path id="DejaVuSans-Bold-66" d="M 2841 4863 
L 2841 4128 
L 2222 4128 
Q 1984 4128 1890 4042 
Q 1797 3956 1797 3744 
L 1797 3500 
L 2753 3500 
L 2753 2700 
L 1797 2700 
L 1797 0 
L 678 0 
L 678 2700 
L 122 2700 
L 122 3500 
L 678 3500 
L 678 3744 
Q 678 4316 997 4589 
Q 1316 4863 1984 4863 
L 2841 4863 
z
" transform="scale(0.015625)"/>
     </defs>
     <use xlink:href="#DejaVuSans-Bold-34"/>
     <use xlink:href="#DejaVuSans-Bold-2e" transform="translate(69.580078 0)"/>
     <use xlink:href="#DejaVuSans-Bold-20" transform="translate(107.568359 0)"/>
     <use xlink:href="#DejaVuSans-Bold-53" transform="translate(142.382812 0)"/>
     <use xlink:href="#DejaVuSans-Bold-6f" transform="translate(214.404297 0)"/>
     <use xlink:href="#DejaVuSans-Bold-6c" transform="translate(283.105469 0)"/>
     <use xlink:href="#DejaVuSans-Bold-76" transform="translate(317.382812 0)"/>
     <use xlink:href="#DejaVuSans-Bold-65" transform="translate(382.568359 0)"/>
     <use xlink:href="#DejaVuSans-Bold-20" transform="translate(450.390625 0)"/>
     <use xlink:href="#DejaVuSans-Bold-4b" transform="translate(485.205078 0)"/>
     <use xlink:href="#DejaVuSans-Bold-69" transform="translate(562.695312 0)"/>
     <use xlink:href="#DejaVuSans-Bold-72" transform="translate(596.972656 0)"/>
     <use xlink:href="#DejaVuSans-Bold-63" transform="translate(646.289062 0)"/>
     <use xlink:href="#DejaVuSans-Bold-68" transform="translate(705.566406 0)"/>
     <use xlink:href="#DejaVuSans-Bold-68" transform="translate(776.757812 0)"/>
     <use xlink:href="#DejaVuSans-Bold-6f" transform="translate(847.949219 0)"/>
     <use xlink:href="#DejaVuSans-Bold-66" transform="translate(916.650391 0)"/>
     <use xlink:href="#DejaVuSans-Bold-66" transform="translate(960.15625 0)"/>
    </g>
   </g>
   <g id="text_8">
    <!-- $L\,p = I$ -->
    <g style="fill: #1f3a5f" transform="translate(428.76 120.621273) scale(0.095 -0.095)">
     <defs>
      <path id="DejaVuSans-Oblique-4c" d="M 1075 4666 
L 1709 4666 
L 909 525 
L 3181 525 
L 3078 0 
L 172 0 
L 1075 4666 
z
" transform="scale(0.015625)"/>
      <path id="DejaVuSans-Oblique-70" d="M 3175 2156 
Q 3175 2616 2975 2859 
Q 2775 3103 2400 3103 
Q 2144 3103 1911 2972 
Q 1678 2841 1497 2591 
Q 1319 2344 1212 1994 
Q 1106 1644 1106 1300 
Q 1106 863 1306 627 
Q 1506 391 1875 391 
Q 2147 391 2380 519 
Q 2613 647 2778 891 
Q 2956 1147 3065 1494 
Q 3175 1841 3175 2156 
z
M 1394 2969 
Q 1625 3272 1939 3428 
Q 2253 3584 2638 3584 
Q 3175 3584 3472 3232 
Q 3769 2881 3769 2247 
Q 3769 1728 3584 1258 
Q 3400 788 3053 416 
Q 2822 169 2531 39 
Q 2241 -91 1919 -91 
Q 1547 -91 1294 64 
Q 1041 219 916 525 
L 556 -1331 
L -19 -1331 
L 922 3500 
L 1497 3500 
L 1394 2969 
z
" transform="scale(0.015625)"/>
     </defs>
     <use xlink:href="#DejaVuSans-Oblique-4c" transform="translate(0 0.09375)"/>
     <use xlink:href="#DejaVuSans-Oblique-70" transform="translate(71.948567 0.09375)"/>
     <use xlink:href="#DejaVuSans-3d" transform="translate(154.907551 0.09375)"/>
     <use xlink:href="#DejaVuSans-Oblique-49" transform="translate(258.179036 0.09375)"/>
    </g>
    <!-- (sparse CG) -->
    <g style="fill: #1f3a5f" transform="translate(414.475859 131.278492) scale(0.095 -0.095)">
     <defs>
      <path id="DejaVuSans-70" d="M 1159 525 
L 1159 -1331 
L 581 -1331 
L 581 3500 
L 1159 3500 
L 1159 2969 
Q 1341 3281 1617 3432 
Q 1894 3584 2278 3584 
Q 2916 3584 3314 3078 
Q 3713 2572 3713 1747 
Q 3713 922 3314 415 
Q 2916 -91 2278 -91 
Q 1894 -91 1617 61 
Q 1341 213 1159 525 
z
M 3116 1747 
Q 3116 2381 2855 2742 
Q 2594 3103 2138 3103 
Q 1681 3103 1420 2742 
Q 1159 2381 1159 1747 
Q 1159 1113 1420 752 
Q 1681 391 2138 391 
Q 2594 391 2855 752 
Q 3116 1113 3116 1747 
z
" transform="scale(0.015625)"/>
      <path id="DejaVuSans-61" d="M 2194 1759 
Q 1497 1759 1228 1600 
Q 959 1441 959 1056 
Q 959 750 1161 570 
Q 1363 391 1709 391 
Q 2188 391 2477 730 
Q 2766 1069 2766 1631 
L 2766 1759 
L 2194 1759 
z
M 3341 1997 
L 3341 0 
L 2766 0 
L 2766 531 
Q 2569 213 2275 61 
Q 1981 -91 1556 -91 
Q 1019 -91 701 211 
Q 384 513 384 1019 
Q 384 1609 779 1909 
Q 1175 2209 1959 2209 
L 2766 2209 
L 2766 2266 
Q 2766 2663 2505 2880 
Q 2244 3097 1772 3097 
Q 1472 3097 1187 3025 
Q 903 2953 641 2809 
L 641 3341 
Q 956 3463 1253 3523 
Q 1550 3584 1831 3584 
Q 2591 3584 2966 3190 
Q 3341 2797 3341 1997 
z
" transform="scale(0.015625)"/>
      <path id="DejaVuSans-43" d="M 4122 4306 
L 4122 3641 
Q 3803 3938 3442 4084 
Q 3081 4231 2675 4231 
Q 1875 4231 1450 3742 
Q 1025 3253 1025 2328 
Q 1025 1406 1450 917 
Q 1875 428 2675 428 
Q 3081 428 3442 575 
Q 3803 722 4122 1019 
L 4122 359 
Q 3791 134 3420 21 
Q 3050 -91 2638 -91 
Q 1578 -91 968 557 
Q 359 1206 359 2328 
Q 359 3453 968 4101 
Q 1578 4750 2638 4750 
Q 3056 4750 3426 4639 
Q 3797 4528 4122 4306 
z
" transform="scale(0.015625)"/>
      <path id="DejaVuSans-47" d="M 3809 666 
L 3809 1919 
L 2778 1919 
L 2778 2438 
L 4434 2438 
L 4434 434 
Q 4069 175 3628 42 
Q 3188 -91 2688 -91 
Q 1594 -91 976 548 
Q 359 1188 359 2328 
Q 359 3472 976 4111 
Q 1594 4750 2688 4750 
Q 3144 4750 3555 4637 
Q 3966 4525 4313 4306 
L 4313 3634 
Q 3963 3931 3569 4081 
Q 3175 4231 2741 4231 
Q 1884 4231 1454 3753 
Q 1025 3275 1025 2328 
Q 1025 1384 1454 906 
Q 1884 428 2741 428 
Q 3075 428 3337 486 
Q 3600 544 3809 666 
z
" transform="scale(0.015625)"/>
     </defs>
     <use xlink:href="#DejaVuSans-28"/>
     <use xlink:href="#DejaVuSans-73" transform="translate(39.013672 0)"/>
     <use xlink:href="#DejaVuSans-70" transform="translate(91.113281 0)"/>
     <use xlink:href="#DejaVuSans-61" transform="translate(154.589844 0)"/>
     <use xlink:href="#DejaVuSans-72" transform="translate(215.869141 0)"/>
     <use xlink:href="#DejaVuSans-73" transform="translate(256.982422 0)"/>
     <use xlink:href="#DejaVuSans-65" transform="translate(309.082031 0)"/>
     <use xlink:href="#DejaVuSans-20" transform="translate(370.605469 0)"/>
     <use xlink:href="#DejaVuSans-43" transform="translate(402.392578 0)"/>
     <use xlink:href="#DejaVuSans-47" transform="translate(472.216797 0)"/>
     <use xlink:href="#DejaVuSans-29" transform="translate(549.707031 0)"/>
    </g>
   </g>
   <g id="text_9">
    <!-- 5. Reinforce -->
    <g style="fill: #283142" transform="translate(531.135156 93.791763) scale(0.1 -0.1)">
     <defs>
      <path id="DejaVuSans-Bold-35" d="M 678 4666 
L 3669 4666 
L 3669 3781 
L 1638 3781 
L 1638 3059 
Q 1775 3097 1914 3117 
Q 2053 3138 2203 3138 
Q 3056 3138 3531 2711 
Q 4006 2284 4006 1522 
Q 4006 766 3489 337 
Q 2972 -91 2053 -91 
Q 1656 -91 1267 -14 
Q 878 63 494 219 
L 494 1166 
Q 875 947 1217 837 
Q 1559 728 1863 728 
Q 2300 728 2551 942 
Q 2803 1156 2803 1522 
Q 2803 1891 2551 2103 
Q 2300 2316 1863 2316 
Q 1603 2316 1309 2248 
Q 1016 2181 678 2041 
L 678 4666 
z
" transform="scale(0.015625)"/>
      <path id="DejaVuSans-Bold-52" d="M 2297 2597 
Q 2675 2597 2839 2737 
Q 3003 2878 3003 3200 
Q 3003 3519 2839 3656 
Q 2675 3794 2297 3794 
L 1791 3794 
L 1791 2597 
L 2297 2597 
z
M 1791 1766 
L 1791 0 
L 588 0 
L 588 4666 
L 2425 4666 
Q 3347 4666 3776 4356 
Q 4206 4047 4206 3378 
Q 4206 2916 3982 2619 
Q 3759 2322 3309 2181 
Q 3556 2125 3751 1926 
Q 3947 1728 4147 1325 
L 4800 0 
L 3519 0 
L 2950 1159 
Q 2778 1509 2601 1637 
Q 2425 1766 2131 1766 
L 1791 1766 
z
" transform="scale(0.015625)"/>
     </defs>
     <use xlink:href="#DejaVuSans-Bold-35"/>
     <use xlink:href="#DejaVuSans-Bold-2e" transform="translate(69.580078 0)"/>
     <use xlink:href="#DejaVuSans-Bold-20" transform="translate(107.568359 0)"/>
     <use xlink:href="#DejaVuSans-Bold-52" transform="translate(142.382812 0)"/>
     <use xlink:href="#DejaVuSans-Bold-65" transform="translate(219.384766 0)"/>
     <use xlink:href="#DejaVuSans-Bold-69" transform="translate(287.207031 0)"/>
     <use xlink:href="#DejaVuSans-Bold-6e" transform="translate(321.484375 0)"/>
     <use xlink:href="#DejaVuSans-Bold-66" transform="translate(392.675781 0)"/>
     <use xlink:href="#DejaVuSans-Bold-6f" transform="translate(436.181641 0)"/>
     <use xlink:href="#DejaVuSans-Bold-72" transform="translate(504.882812 0)"/>
     <use xlink:href="#DejaVuSans-Bold-63" transform="translate(554.199219 0)"/>
     <use xlink:href="#DejaVuSans-Bold-65" transform="translate(613.476562 0)"/>
    </g>
   </g>
   <g id="text_10">
    <!-- $D \leftarrow (1{-}\mu)D + \alpha|Q|^{\gamma}$ -->
    <g style="fill: #1f3a5f" transform="translate(520.6925 125.855625) scale(0.095 -0.095)">
     <defs>
      <path id="DejaVuSans-Oblique-44" d="M 1081 4666 
L 2438 4666 
Q 3519 4666 4070 4208 
Q 4622 3750 4622 2847 
Q 4622 2250 4412 1698 
Q 4203 1147 3834 769 
Q 3463 381 2891 190 
Q 2319 0 1538 0 
L 172 0 
L 1081 4666 
z
M 1613 4147 
L 909 519 
L 1734 519 
Q 2794 519 3375 1128 
Q 3956 1738 3956 2847 
Q 3956 3519 3581 3833 
Q 3206 4147 2406 4147 
L 1613 4147 
z
" transform="scale(0.015625)"/>
      <path id="DejaVuSans-2190" d="M 313 1866 
L 313 2147 
L 1541 3375 
L 1916 3000 
L 1188 2272 
L 4997 2272 
L 4997 1741 
L 1188 1741 
L 1916 1013 
L 1541 638 
L 313 1866 
z
" transform="scale(0.015625)"/>
      <path id="DejaVuSans-2212" d="M 678 2272 
L 4684 2272 
L 4684 1741 
L 678 1741 
L 678 2272 
z
" transform="scale(0.015625)"/>
      <path id="DejaVuSans-Oblique-3bc" d="M -84 -1331 
L 856 3500 
L 1434 3500 
L 1009 1322 
Q 997 1256 987 1175 
Q 978 1094 978 1013 
Q 978 722 1161 565 
Q 1344 409 1684 409 
Q 2147 409 2431 671 
Q 2716 934 2816 1459 
L 3213 3500 
L 3788 3500 
L 3266 809 
Q 3253 750 3248 706 
Q 3244 663 3244 628 
Q 3244 531 3283 486 
Q 3322 441 3406 441 
Q 3438 441 3492 456 
Q 3547 472 3647 513 
L 3559 50 
Q 3422 -19 3297 -55 
Q 3172 -91 3053 -91 
Q 2847 -91 2730 40 
Q 2613 172 2613 403 
Q 2438 153 2195 31 
Q 1953 -91 1625 -91 
Q 1334 -91 1117 43 
Q 900 178 831 397 
L 494 -1331 
L -84 -1331 
z
" transform="scale(0.015625)"/>
      <path id="DejaVuSans-2b" d="M 2944 4013 
L 2944 2272 
L 4684 2272 
L 4684 1741 
L 2944 1741 
L 2944 0 
L 2419 0 
L 2419 1741 
L 678 1741 
L 678 2272 
L 2419 2272 
L 2419 4013 
L 2944 4013 
z
" transform="scale(0.015625)"/>
      <path id="DejaVuSans-Oblique-3b1" d="M 2619 1628 
L 2622 2350 
Q 2625 3088 2069 3091 
Q 1653 3094 1394 2747 
Q 1069 2319 959 1747 
Q 825 1059 994 731 
Q 1169 397 1547 397 
Q 1966 397 2319 1063 
L 2619 1628 
z
M 2166 3578 
Q 3141 3594 3128 2584 
Q 3128 2584 3616 3500 
L 4128 3500 
L 3119 1603 
L 3109 919 
Q 3109 766 3194 638 
Q 3291 488 3391 488 
L 3669 488 
L 3575 0 
L 3228 0 
Q 2934 0 2722 263 
Q 2622 394 2619 669 
Q 2416 334 2066 50 
Q 1900 -81 1453 -78 
Q 722 -72 456 397 
Q 184 884 353 1747 
Q 534 2675 1009 3097 
Q 1544 3569 2166 3578 
z
" transform="scale(0.015625)"/>
      <path id="DejaVuSans-7c" d="M 1344 4891 
L 1344 -1509 
L 813 -1509 
L 813 4891 
L 1344 4891 
z
" transform="scale(0.015625)"/>
      <path id="DejaVuSans-Oblique-51" d="M 2309 -84 
Q 2275 -88 2237 -89 
Q 2200 -91 2125 -91 
Q 1250 -91 756 411 
Q 263 913 263 1797 
Q 263 2319 452 2844 
Q 641 3369 978 3788 
Q 1369 4269 1858 4509 
Q 2347 4750 2938 4750 
Q 3794 4750 4287 4245 
Q 4781 3741 4781 2869 
Q 4781 1928 4265 1147 
Q 3750 366 2919 44 
L 3553 -825 
L 2847 -825 
L 2309 -84 
z
M 2919 4238 
Q 2400 4238 2003 3986 
Q 1606 3734 1313 3219 
Q 1125 2891 1026 2522 
Q 928 2153 928 1778 
Q 928 1128 1239 775 
Q 1550 422 2119 422 
Q 2631 422 3032 676 
Q 3434 931 3719 1434 
Q 3909 1772 4009 2142 
Q 4109 2513 4109 2881 
Q 4109 3528 3796 3883 
Q 3484 4238 2919 4238 
z
" transform="scale(0.015625)"/>
      <path id="DejaVuSans-Oblique-3b3" d="M 1491 2950 
L 1838 788 
L 3456 3500 
L 4066 3500 
L 1972 0 
L 1713 -1331 
L 1138 -1331 
L 1397 0 
L 988 2613 
Q 925 3006 628 3006 
L 475 3006 
L 569 3500 
L 788 3500 
Q 1403 3500 1491 2950 
z
" transform="scale(0.015625)"/>
     </defs>
     <use xlink:href="#DejaVuSans-Oblique-44" transform="translate(0 0.4375)"/>
     <use xlink:href="#DejaVuSans-2190" transform="translate(96.484375 0.4375)"/>
     <use xlink:href="#DejaVuSans-28" transform="translate(199.755859 0.4375)"/>
     <use xlink:href="#DejaVuSans-31" transform="translate(238.769531 0.4375)"/>
     <use xlink:href="#DejaVuSans-2212" transform="translate(302.392578 0.4375)"/>
     <use xlink:href="#DejaVuSans-Oblique-3bc" transform="translate(386.181641 0.4375)"/>
     <use xlink:href="#DejaVuSans-29" transform="translate(449.804688 0.4375)"/>
     <use xlink:href="#DejaVuSans-Oblique-44" transform="translate(479.693359 0.4375)"/>
     <use xlink:href="#DejaVuSans-2b" transform="translate(576.177734 0.4375)"/>
     <use xlink:href="#DejaVuSans-Oblique-3b1" transform="translate(679.449219 0.4375)"/>
     <use xlink:href="#DejaVuSans-7c" transform="translate(745.367188 0.4375)"/>
     <use xlink:href="#DejaVuSans-Oblique-51" transform="translate(779.058594 0.4375)"/>
     <use xlink:href="#DejaVuSans-7c" transform="translate(857.769531 0.4375)"/>
     <use xlink:href="#DejaVuSans-Oblique-3b3" transform="translate(892.417969 38.71875) scale(0.7)"/>
    </g>
   </g>
   <g id="text_11">
    <!-- 6. Convergence? -->
    <g style="fill: #283142" transform="translate(504.564844 221.225638) scale(0.1 -0.1)">
     <defs>
      <path id="DejaVuSans-Bold-36" d="M 2316 2303 
Q 2000 2303 1842 2098 
Q 1684 1894 1684 1484 
Q 1684 1075 1842 870 
Q 2000 666 2316 666 
Q 2634 666 2792 870 
Q 2950 1075 2950 1484 
Q 2950 1894 2792 2098 
Q 2634 2303 2316 2303 
z
M 3803 4544 
L 3803 3681 
Q 3506 3822 3243 3889 
Q 2981 3956 2731 3956 
Q 2194 3956 1894 3657 
Q 1594 3359 1544 2772 
Q 1750 2925 1990 3001 
Q 2231 3078 2516 3078 
Q 3231 3078 3670 2659 
Q 4109 2241 4109 1563 
Q 4109 813 3618 361 
Q 3128 -91 2303 -91 
Q 1394 -91 895 523 
Q 397 1138 397 2266 
Q 397 3422 980 4083 
Q 1563 4744 2578 4744 
Q 2900 4744 3203 4694 
Q 3506 4644 3803 4544 
z
" transform="scale(0.015625)"/>
      <path id="DejaVuSans-Bold-67" d="M 2919 594 
Q 2688 288 2409 144 
Q 2131 0 1766 0 
Q 1125 0 706 504 
Q 288 1009 288 1791 
Q 288 2575 706 3076 
Q 1125 3578 1766 3578 
Q 2131 3578 2409 3434 
Q 2688 3291 2919 2981 
L 2919 3500 
L 4044 3500 
L 4044 353 
Q 4044 -491 3511 -936 
Q 2978 -1381 1966 -1381 
Q 1638 -1381 1331 -1331 
Q 1025 -1281 716 -1178 
L 716 -306 
Q 1009 -475 1290 -558 
Q 1572 -641 1856 -641 
Q 2406 -641 2662 -400 
Q 2919 -159 2919 353 
L 2919 594 
z
M 2181 2772 
Q 1834 2772 1640 2515 
Q 1447 2259 1447 1791 
Q 1447 1309 1634 1061 
Q 1822 813 2181 813 
Q 2531 813 2725 1069 
Q 2919 1325 2919 1791 
Q 2919 2259 2725 2515 
Q 2531 2772 2181 2772 
z
" transform="scale(0.015625)"/>
      <path id="DejaVuSans-Bold-3f" d="M 2216 1575 
L 1088 1575 
L 1088 1728 
Q 1088 1984 1191 2182 
Q 1294 2381 1625 2688 
L 1825 2869 
Q 2003 3031 2086 3175 
Q 2169 3319 2169 3463 
Q 2169 3681 2019 3804 
Q 1869 3928 1600 3928 
Q 1347 3928 1053 3823 
Q 759 3719 441 3513 
L 441 4494 
Q 819 4625 1131 4687 
Q 1444 4750 1734 4750 
Q 2497 4750 2897 4439 
Q 3297 4128 3297 3531 
Q 3297 3225 3175 2983 
Q 3053 2741 2759 2463 
L 2559 2284 
Q 2347 2091 2281 1973 
Q 2216 1856 2216 1716 
L 2216 1575 
z
M 1088 1113 
L 2216 1113 
L 2216 0 
L 1088 0 
L 1088 1113 
z
" transform="scale(0.015625)"/>
     </defs>
     <use xlink:href="#DejaVuSans-Bold-36"/>
     <use xlink:href="#DejaVuSans-Bold-2e" transform="translate(69.580078 0)"/>
     <use xlink:href="#DejaVuSans-Bold-20" transform="translate(107.568359 0)"/>
     <use xlink:href="#DejaVuSans-Bold-43" transform="translate(142.382812 0)"/>
     <use xlink:href="#DejaVuSans-Bold-6f" transform="translate(215.771484 0)"/>
     <use xlink:href="#DejaVuSans-Bold-6e" transform="translate(284.472656 0)"/>
     <use xlink:href="#DejaVuSans-Bold-76" transform="translate(355.664062 0)"/>
     <use xlink:href="#DejaVuSans-Bold-65" transform="translate(420.849609 0)"/>
     <use xlink:href="#DejaVuSans-Bold-72" transform="translate(488.671875 0)"/>
     <use xlink:href="#DejaVuSans-Bold-67" transform="translate(537.988281 0)"/>
     <use xlink:href="#DejaVuSans-Bold-65" transform="translate(609.570312 0)"/>
     <use xlink:href="#DejaVuSans-Bold-6e" transform="translate(677.392578 0)"/>
     <use xlink:href="#DejaVuSans-Bold-63" transform="translate(748.583984 0)"/>
     <use xlink:href="#DejaVuSans-Bold-65" transform="translate(807.861328 0)"/>
     <use xlink:href="#DejaVuSans-Bold-3f" transform="translate(875.683594 0)"/>
    </g>
   </g>
   <g id="text_12">
    <!-- $\sum|\Delta D| &lt; \varepsilon \sum D$ -->
    <g style="fill: #1f3a5f" transform="translate(519.995 251.593125) scale(0.095 -0.095)">
     <defs>
      <path id="DejaVuSansDisplay-2211" d="M 244 6509 
L 5803 6509 
L 5803 5656 
L 1566 5656 
L 4534 2488 
L 1469 -888 
L 5919 -888 
L 5919 -1738 
L 109 -1738 
L 109 -1078 
L 3316 2463 
L 244 5728 
L 244 6509 
z
" transform="scale(0.015625)"/>
      <path id="DejaVuSans-394" d="M 2188 4044 
L 906 525 
L 3472 525 
L 2188 4044 
z
M 50 0 
L 1831 4666 
L 2547 4666 
L 4325 0 
L 50 0 
z
" transform="scale(0.015625)"/>
      <path id="DejaVuSans-3c" d="M 4684 3150 
L 1459 2003 
L 4684 863 
L 4684 294 
L 678 1747 
L 678 2266 
L 4684 3719 
L 4684 3150 
z
" transform="scale(0.015625)"/>
      <path id="DejaVuSans-Oblique-3b5" d="M 1263 1888 
Q 925 1963 778 2166 
Q 669 2309 669 2503 
Q 669 3034 1175 3344 
Q 1575 3588 2188 3588 
Q 2425 3588 2684 3550 
Q 2944 3513 3234 3438 
L 3134 2916 
Q 2847 3006 2606 3047 
Q 2359 3088 2138 3088 
Q 1766 3088 1522 2944 
Q 1228 2772 1228 2522 
Q 1228 2356 1381 2241 
Q 1563 2103 1925 2103 
L 2409 2103 
L 2319 1628 
L 1856 1628 
Q 1425 1628 1172 1469 
Q 828 1253 828 916 
Q 828 703 1013 563 
Q 1244 388 1716 388 
Q 2006 388 2284 444 
Q 2563 503 2806 619 
L 2700 84 
Q 2403 -3 2131 -47 
Q 1859 -91 1609 -91 
Q 866 -91 516 194 
Q 250 413 250 781 
Q 250 1278 600 1584 
Q 859 1813 1263 1888 
z
" transform="scale(0.015625)"/>
     </defs>
     <use xlink:href="#DejaVuSansDisplay-2211" transform="translate(0 0.296875)"/>
     <use xlink:href="#DejaVuSans-7c" transform="translate(95.263672 0.296875)"/>
     <use xlink:href="#DejaVuSans-394" transform="translate(128.955078 0.296875)"/>
     <use xlink:href="#DejaVuSans-Oblique-44" transform="translate(197.363281 0.296875)"/>
     <use xlink:href="#DejaVuSans-7c" transform="translate(274.365234 0.296875)"/>
     <use xlink:href="#DejaVuSans-3c" transform="translate(327.539062 0.296875)"/>
     <use xlink:href="#DejaVuSans-Oblique-3b5" transform="translate(430.810547 0.296875)"/>
     <use xlink:href="#DejaVuSansDisplay-2211" transform="translate(484.863281 0.296875)"/>
     <use xlink:href="#DejaVuSans-Oblique-44" transform="translate(580.126953 0.296875)"/>
    </g>
   </g>
   <g id="text_13">
    <!-- iterate (no) -->
    <g style="fill: #c44536" transform="translate(370.241406 214.814125) scale(0.085 -0.085)">
     <defs>
      <path id="DejaVuSans-Bold-28" d="M 2413 -844 
L 1484 -844 
Q 1006 -72 778 623 
Q 550 1319 550 2003 
Q 550 2688 779 3389 
Q 1009 4091 1484 4856 
L 2413 4856 
Q 2013 4116 1813 3408 
Q 1613 2700 1613 2009 
Q 1613 1319 1811 609 
Q 2009 -100 2413 -844 
z
" transform="scale(0.015625)"/>
      <path id="DejaVuSans-Bold-29" d="M 513 -844 
Q 913 -100 1113 609 
Q 1313 1319 1313 2009 
Q 1313 2700 1113 3408 
Q 913 4116 513 4856 
L 1441 4856 
Q 1916 4091 2145 3389 
Q 2375 2688 2375 2003 
Q 2375 1319 2147 623 
Q 1919 -72 1441 -844 
L 513 -844 
z
" transform="scale(0.015625)"/>
     </defs>
     <use xlink:href="#DejaVuSans-Bold-69"/>
     <use xlink:href="#DejaVuSans-Bold-74" transform="translate(34.277344 0)"/>
     <use xlink:href="#DejaVuSans-Bold-65" transform="translate(82.080078 0)"/>
     <use xlink:href="#DejaVuSans-Bold-72" transform="translate(149.902344 0)"/>
     <use xlink:href="#DejaVuSans-Bold-61" transform="translate(199.21875 0)"/>
     <use xlink:href="#DejaVuSans-Bold-74" transform="translate(266.699219 0)"/>
     <use xlink:href="#DejaVuSans-Bold-65" transform="translate(314.501953 0)"/>
     <use xlink:href="#DejaVuSans-Bold-20" transform="translate(382.324219 0)"/>
     <use xlink:href="#DejaVuSans-Bold-28" transform="translate(417.138672 0)"/>
     <use xlink:href="#DejaVuSans-Bold-6e" transform="translate(462.841797 0)"/>
     <use xlink:href="#DejaVuSans-Bold-6f" transform="translate(534.033203 0)"/>
     <use xlink:href="#DejaVuSans-Bold-29" transform="translate(602.734375 0)"/>
    </g>
   </g>
   <g id="text_14">
    <!-- 7. Prune Top-k -->
    <g style="fill: #283142" transform="translate(27.9175 221.303763) scale(0.1 -0.1)">
     <defs>
      <path id="DejaVuSans-Bold-37" d="M 428 4666 
L 3944 4666 
L 3944 3988 
L 2125 0 
L 953 0 
L 2675 3781 
L 428 3781 
L 428 4666 
z
" transform="scale(0.015625)"/>
      <path id="DejaVuSans-Bold-50" d="M 588 4666 
L 2584 4666 
Q 3475 4666 3951 4270 
Q 4428 3875 4428 3144 
Q 4428 2409 3951 2014 
Q 3475 1619 2584 1619 
L 1791 1619 
L 1791 0 
L 588 0 
L 588 4666 
z
M 1791 3794 
L 1791 2491 
L 2456 2491 
Q 2806 2491 2997 2661 
Q 3188 2831 3188 3144 
Q 3188 3456 2997 3625 
Q 2806 3794 2456 3794 
L 1791 3794 
z
" transform="scale(0.015625)"/>
      <path id="DejaVuSans-Bold-54" d="M 31 4666 
L 4331 4666 
L 4331 3756 
L 2784 3756 
L 2784 0 
L 1581 0 
L 1581 3756 
L 31 3756 
L 31 4666 
z
" transform="scale(0.015625)"/>
      <path id="DejaVuSans-Bold-2d" d="M 347 2297 
L 2309 2297 
L 2309 1388 
L 347 1388 
L 347 2297 
z
" transform="scale(0.015625)"/>
      <path id="DejaVuSans-Bold-6b" d="M 538 4863 
L 1656 4863 
L 1656 2216 
L 2944 3500 
L 4244 3500 
L 2534 1894 
L 4378 0 
L 3022 0 
L 1656 1459 
L 1656 0 
L 538 0 
L 538 4863 
z
" transform="scale(0.015625)"/>
     </defs>
     <use xlink:href="#DejaVuSans-Bold-37"/>
     <use xlink:href="#DejaVuSans-Bold-2e" transform="translate(69.580078 0)"/>
     <use xlink:href="#DejaVuSans-Bold-20" transform="translate(107.568359 0)"/>
     <use xlink:href="#DejaVuSans-Bold-50" transform="translate(142.382812 0)"/>
     <use xlink:href="#DejaVuSans-Bold-72" transform="translate(215.673828 0)"/>
     <use xlink:href="#DejaVuSans-Bold-75" transform="translate(264.990234 0)"/>
     <use xlink:href="#DejaVuSans-Bold-6e" transform="translate(336.181641 0)"/>
     <use xlink:href="#DejaVuSans-Bold-65" transform="translate(407.373047 0)"/>
     <use xlink:href="#DejaVuSans-Bold-20" transform="translate(475.195312 0)"/>
     <use xlink:href="#DejaVuSans-Bold-54" transform="translate(510.009766 0)"/>
     <use xlink:href="#DejaVuSans-Bold-6f" transform="translate(564.972656 0)"/>
     <use xlink:href="#DejaVuSans-Bold-70" transform="translate(633.673828 0)"/>
     <use xlink:href="#DejaVuSans-Bold-2d" transform="translate(705.255859 0)"/>
     <use xlink:href="#DejaVuSans-Bold-6b" transform="translate(746.759766 0)"/>
    </g>
   </g>
   <g id="text_15">
    <!-- rank by -->
    <g style="fill: #1f3a5f" transform="translate(50.619063 245.38057) scale(0.095 -0.095)">
     <defs>
      <path id="DejaVuSans-6b" d="M 581 4863 
L 1159 4863 
L 1159 1991 
L 2875 3500 
L 3609 3500 
L 1753 1863 
L 3688 0 
L 2938 0 
L 1159 1709 
L 1159 0 
L 581 0 
L 581 4863 
z
" transform="scale(0.015625)"/>
      <path id="DejaVuSans-62" d="M 3116 1747 
Q 3116 2381 2855 2742 
Q 2594 3103 2138 3103 
Q 1681 3103 1420 2742 
Q 1159 2381 1159 1747 
Q 1159 1113 1420 752 
Q 1681 391 2138 391 
Q 2594 391 2855 752 
Q 3116 1113 3116 1747 
z
M 1159 2969 
Q 1341 3281 1617 3432 
Q 1894 3584 2278 3584 
Q 2916 3584 3314 3078 
Q 3713 2572 3713 1747 
Q 3713 922 3314 415 
Q 2916 -91 2278 -91 
Q 1894 -91 1617 61 
Q 1341 213 1159 525 
L 1159 0 
L 581 0 
L 581 4863 
L 1159 4863 
L 1159 2969 
z
" transform="scale(0.015625)"/>
     </defs>
     <use xlink:href="#DejaVuSans-72"/>
     <use xlink:href="#DejaVuSans-61" transform="translate(41.113281 0)"/>
     <use xlink:href="#DejaVuSans-6e" transform="translate(102.392578 0)"/>
     <use xlink:href="#DejaVuSans-6b" transform="translate(165.771484 0)"/>
     <use xlink:href="#DejaVuSans-20" transform="translate(223.681641 0)"/>
     <use xlink:href="#DejaVuSans-62" transform="translate(255.46875 0)"/>
     <use xlink:href="#DejaVuSans-79" transform="translate(318.945312 0)"/>
    </g>
    <!-- node flow $F_i$ -->
    <g style="fill: #1f3a5f" transform="translate(40.1275 256.018492) scale(0.095 -0.095)">
     <defs>
      <path id="DejaVuSans-64" d="M 2906 2969 
L 2906 4863 
L 3481 4863 
L 3481 0 
L 2906 0 
L 2906 525 
Q 2725 213 2448 61 
Q 2172 -91 1784 -91 
Q 1150 -91 751 415 
Q 353 922 353 1747 
Q 353 2572 751 3078 
Q 1150 3584 1784 3584 
Q 2172 3584 2448 3432 
Q 2725 3281 2906 2969 
z
M 947 1747 
Q 947 1113 1208 752 
Q 1469 391 1925 391 
Q 2381 391 2643 752 
Q 2906 1113 2906 1747 
Q 2906 2381 2643 2742 
Q 2381 3103 1925 3103 
Q 1469 3103 1208 2742 
Q 947 2381 947 1747 
z
" transform="scale(0.015625)"/>
      <path id="DejaVuSans-66" d="M 2375 4863 
L 2375 4384 
L 1825 4384 
Q 1516 4384 1395 4259 
Q 1275 4134 1275 3809 
L 1275 3500 
L 2222 3500 
L 2222 3053 
L 1275 3053 
L 1275 0 
L 697 0 
L 697 3053 
L 147 3053 
L 147 3500 
L 697 3500 
L 697 3744 
Q 697 4328 969 4595 
Q 1241 4863 1831 4863 
L 2375 4863 
z
" transform="scale(0.015625)"/>
      <path id="DejaVuSans-6c" d="M 603 4863 
L 1178 4863 
L 1178 0 
L 603 0 
L 603 4863 
z
" transform="scale(0.015625)"/>
      <path id="DejaVuSans-77" d="M 269 3500 
L 844 3500 
L 1563 769 
L 2278 3500 
L 2956 3500 
L 3675 769 
L 4391 3500 
L 4966 3500 
L 4050 0 
L 3372 0 
L 2619 2869 
L 1863 0 
L 1184 0 
L 269 3500 
z
" transform="scale(0.015625)"/>
      <path id="DejaVuSans-Oblique-46" d="M 1081 4666 
L 3756 4666 
L 3653 4134 
L 1606 4134 
L 1338 2759 
L 3188 2759 
L 3084 2228 
L 1234 2228 
L 800 0 
L 172 0 
L 1081 4666 
z
" transform="scale(0.015625)"/>
     </defs>
     <use xlink:href="#DejaVuSans-6e" transform="translate(0 0.015625)"/>
     <use xlink:href="#DejaVuSans-6f" transform="translate(63.378906 0.015625)"/>
     <use xlink:href="#DejaVuSans-64" transform="translate(124.560547 0.015625)"/>
     <use xlink:href="#DejaVuSans-65" transform="translate(188.037109 0.015625)"/>
     <use xlink:href="#DejaVuSans-20" transform="translate(249.560547 0.015625)"/>
     <use xlink:href="#DejaVuSans-66" transform="translate(281.347656 0.015625)"/>
     <use xlink:href="#DejaVuSans-6c" transform="translate(316.552734 0.015625)"/>
     <use xlink:href="#DejaVuSans-6f" transform="translate(344.335938 0.015625)"/>
     <use xlink:href="#DejaVuSans-77" transform="translate(405.517578 0.015625)"/>
     <use xlink:href="#DejaVuSans-20" transform="translate(487.304688 0.015625)"/>
     <use xlink:href="#DejaVuSans-Oblique-46" transform="translate(519.091797 0.015625)"/>
     <use xlink:href="#DejaVuSans-Oblique-69" transform="translate(576.611328 -16.390625) scale(0.7)"/>
    </g>
   </g>
   <g id="text_16">
    <!-- yes (converged) -->
    <g style="fill: #2e7d32" transform="translate(247.472539 252.513325) scale(0.085 -0.085)">
     <defs>
      <path id="DejaVuSans-Bold-79" d="M 78 3500 
L 1197 3500 
L 2138 1125 
L 2938 3500 
L 4056 3500 
L 2584 -331 
Q 2363 -916 2067 -1148 
Q 1772 -1381 1288 -1381 
L 641 -1381 
L 641 -647 
L 991 -647 
Q 1275 -647 1404 -556 
Q 1534 -466 1606 -231 
L 1638 -134 
L 78 3500 
z
" transform="scale(0.015625)"/>
      <path id="DejaVuSans-Bold-73" d="M 3272 3391 
L 3272 2541 
Q 2913 2691 2578 2766 
Q 2244 2841 1947 2841 
Q 1628 2841 1473 2761 
Q 1319 2681 1319 2516 
Q 1319 2381 1436 2309 
Q 1553 2238 1856 2203 
L 2053 2175 
Q 2913 2066 3209 1816 
Q 3506 1566 3506 1031 
Q 3506 472 3093 190 
Q 2681 -91 1863 -91 
Q 1516 -91 1145 -36 
Q 775 19 384 128 
L 384 978 
Q 719 816 1070 734 
Q 1422 653 1784 653 
Q 2113 653 2278 743 
Q 2444 834 2444 1013 
Q 2444 1163 2330 1236 
Q 2216 1309 1875 1350 
L 1678 1375 
Q 931 1469 631 1722 
Q 331 1975 331 2491 
Q 331 3047 712 3315 
Q 1094 3584 1881 3584 
Q 2191 3584 2531 3537 
Q 2872 3491 3272 3391 
z
" transform="scale(0.015625)"/>
     </defs>
     <use xlink:href="#DejaVuSans-Bold-79"/>
     <use xlink:href="#DejaVuSans-Bold-65" transform="translate(65.185547 0)"/>
     <use xlink:href="#DejaVuSans-Bold-73" transform="translate(133.007812 0)"/>
     <use xlink:href="#DejaVuSans-Bold-20" transform="translate(192.529297 0)"/>
     <use xlink:href="#DejaVuSans-Bold-28" transform="translate(227.34375 0)"/>
     <use xlink:href="#DejaVuSans-Bold-63" transform="translate(273.046875 0)"/>
     <use xlink:href="#DejaVuSans-Bold-6f" transform="translate(332.324219 0)"/>
     <use xlink:href="#DejaVuSans-Bold-6e" transform="translate(401.025391 0)"/>
     <use xlink:href="#DejaVuSans-Bold-76" transform="translate(472.216797 0)"/>
     <use xlink:href="#DejaVuSans-Bold-65" transform="translate(537.402344 0)"/>
     <use xlink:href="#DejaVuSans-Bold-72" transform="translate(605.224609 0)"/>
     <use xlink:href="#DejaVuSans-Bold-67" transform="translate(654.541016 0)"/>
     <use xlink:href="#DejaVuSans-Bold-65" transform="translate(726.123047 0)"/>
     <use xlink:href="#DejaVuSans-Bold-64" transform="translate(793.945312 0)"/>
     <use xlink:href="#DejaVuSans-Bold-29" transform="translate(865.527344 0)"/>
    </g>
   </g>
   <g id="text_17">
    <!-- FCNP Algorithm: Kirchhoff Iteration Loop -->
    <g transform="translate(7.2 16.318125) scale(0.12 -0.12)">
     <defs>
      <path id="DejaVuSans-Bold-46" d="M 588 4666 
L 3834 4666 
L 3834 3756 
L 1791 3756 
L 1791 2888 
L 3713 2888 
L 3713 1978 
L 1791 1978 
L 1791 0 
L 588 0 
L 588 4666 
z
" transform="scale(0.015625)"/>
      <path id="DejaVuSans-Bold-4e" d="M 588 4666 
L 1931 4666 
L 3628 1466 
L 3628 4666 
L 4769 4666 
L 4769 0 
L 3425 0 
L 1728 3200 
L 1728 0 
L 588 0 
L 588 4666 
z
" transform="scale(0.015625)"/>
      <path id="DejaVuSans-Bold-41" d="M 3419 850 
L 1538 850 
L 1241 0 
L 31 0 
L 1759 4666 
L 3194 4666 
L 4922 0 
L 3713 0 
L 3419 850 
z
M 1838 1716 
L 3116 1716 
L 2478 3572 
L 1838 1716 
z
" transform="scale(0.015625)"/>
      <path id="DejaVuSans-Bold-6d" d="M 3781 2919 
Q 3994 3244 4286 3414 
Q 4578 3584 4928 3584 
Q 5531 3584 5847 3212 
Q 6163 2841 6163 2131 
L 6163 0 
L 5038 0 
L 5038 1825 
Q 5041 1866 5042 1909 
Q 5044 1953 5044 2034 
Q 5044 2406 4934 2573 
Q 4825 2741 4581 2741 
Q 4263 2741 4089 2478 
Q 3916 2216 3909 1719 
L 3909 0 
L 2784 0 
L 2784 1825 
Q 2784 2406 2684 2573 
Q 2584 2741 2328 2741 
Q 2006 2741 1831 2477 
Q 1656 2213 1656 1722 
L 1656 0 
L 531 0 
L 531 3500 
L 1656 3500 
L 1656 2988 
Q 1863 3284 2130 3434 
Q 2397 3584 2719 3584 
Q 3081 3584 3359 3409 
Q 3638 3234 3781 2919 
z
" transform="scale(0.015625)"/>
      <path id="DejaVuSans-Bold-3a" d="M 716 3500 
L 1844 3500 
L 1844 2291 
L 716 2291 
L 716 3500 
z
M 716 1209 
L 1844 1209 
L 1844 0 
L 716 0 
L 716 1209 
z
" transform="scale(0.015625)"/>
      <path id="DejaVuSans-Bold-4c" d="M 588 4666 
L 1791 4666 
L 1791 909 
L 3903 909 
L 3903 0 
L 588 0 
L 588 4666 
z
" transform="scale(0.015625)"/>
     </defs>
     <use xlink:href="#DejaVuSans-Bold-46"/>
     <use xlink:href="#DejaVuSans-Bold-43" transform="translate(68.310547 0)"/>
     <use xlink:href="#DejaVuSans-Bold-4e" transform="translate(141.699219 0)"/>
     <use xlink:href="#DejaVuSans-Bold-50" transform="translate(225.390625 0)"/>
     <use xlink:href="#DejaVuSans-Bold-20" transform="translate(298.681641 0)"/>
     <use xlink:href="#DejaVuSans-Bold-41" transform="translate(333.496094 0)"/>
     <use xlink:href="#DejaVuSans-Bold-6c" transform="translate(410.888672 0)"/>
     <use xlink:href="#DejaVuSans-Bold-67" transform="translate(445.166016 0)"/>
     <use xlink:href="#DejaVuSans-Bold-6f" transform="translate(516.748047 0)"/>
     <use xlink:href="#DejaVuSans-Bold-72" transform="translate(585.449219 0)"/>
     <use xlink:href="#DejaVuSans-Bold-69" transform="translate(634.765625 0)"/>
     <use xlink:href="#DejaVuSans-Bold-74" transform="translate(669.042969 0)"/>
     <use xlink:href="#DejaVuSans-Bold-68" transform="translate(716.845703 0)"/>
     <use xlink:href="#DejaVuSans-Bold-6d" transform="translate(788.037109 0)"/>
     <use xlink:href="#DejaVuSans-Bold-3a" transform="translate(892.236328 0)"/>
     <use xlink:href="#DejaVuSans-Bold-20" transform="translate(932.226562 0)"/>
     <use xlink:href="#DejaVuSans-Bold-4b" transform="translate(967.041016 0)"/>
     <use xlink:href="#DejaVuSans-Bold-69" transform="translate(1044.53125 0)"/>
     <use xlink:href="#DejaVuSans-Bold-72" transform="translate(1078.808594 0)"/>
     <use xlink:href="#DejaVuSans-Bold-63" transform="translate(1128.125 0)"/>
     <use xlink:href="#DejaVuSans-Bold-68" transform="translate(1187.402344 0)"/>
     <use xlink:href="#DejaVuSans-Bold-68" transform="translate(1258.59375 0)"/>
     <use xlink:href="#DejaVuSans-Bold-6f" transform="translate(1329.785156 0)"/>
     <use xlink:href="#DejaVuSans-Bold-66" transform="translate(1398.486328 0)"/>
     <use xlink:href="#DejaVuSans-Bold-66" transform="translate(1441.992188 0)"/>
     <use xlink:href="#DejaVuSans-Bold-20" transform="translate(1485.498047 0)"/>
     <use xlink:href="#DejaVuSans-Bold-49" transform="translate(1520.3125 0)"/>
     <use xlink:href="#DejaVuSans-Bold-74" transform="translate(1557.519531 0)"/>
     <use xlink:href="#DejaVuSans-Bold-65" transform="translate(1605.322266 0)"/>
     <use xlink:href="#DejaVuSans-Bold-72" transform="translate(1673.144531 0)"/>
     <use xlink:href="#DejaVuSans-Bold-61" transform="translate(1722.460938 0)"/>
     <use xlink:href="#DejaVuSans-Bold-74" transform="translate(1789.941406 0)"/>
     <use xlink:href="#DejaVuSans-Bold-69" transform="translate(1837.744141 0)"/>
     <use xlink:href="#DejaVuSans-Bold-6f" transform="translate(1872.021484 0)"/>
     <use xlink:href="#DejaVuSans-Bold-6e" transform="translate(1940.722656 0)"/>
     <use xlink:href="#DejaVuSans-Bold-20" transform="translate(2011.914062 0)"/>
     <use xlink:href="#DejaVuSans-Bold-4c" transform="translate(2046.728516 0)"/>
     <use xlink:href="#DejaVuSans-Bold-6f" transform="translate(2110.449219 0)"/>
     <use xlink:href="#DejaVuSans-Bold-6f" transform="translate(2179.150391 0)"/>
     <use xlink:href="#DejaVuSans-Bold-70" transform="translate(2247.851562 0)"/>
    </g>
   </g>
   <g id="legend_1">
    <g id="line2d_1">
     <path d="M 308.310469 295.940406 
L 317.310469 295.940406 
L 326.310469 295.940406 
" style="fill: none; stroke: #1f3a5f; stroke-width: 2; stroke-linecap: square"/>
    </g>
    <g id="text_18">
     <!-- Forward pass -->
     <g transform="translate(333.510469 299.090406) scale(0.09 -0.09)">
      <defs>
       <path id="DejaVuSans-46" d="M 628 4666 
L 3309 4666 
L 3309 4134 
L 1259 4134 
L 1259 2759 
L 3109 2759 
L 3109 2228 
L 1259 2228 
L 1259 0 
L 628 0 
L 628 4666 
z
" transform="scale(0.015625)"/>
      </defs>
      <use xlink:href="#DejaVuSans-46"/>
      <use xlink:href="#DejaVuSans-6f" transform="translate(53.894531 0)"/>
      <use xlink:href="#DejaVuSans-72" transform="translate(115.076172 0)"/>
      <use xlink:href="#DejaVuSans-77" transform="translate(156.189453 0)"/>
      <use xlink:href="#DejaVuSans-61" transform="translate(237.976562 0)"/>
      <use xlink:href="#DejaVuSans-72" transform="translate(299.255859 0)"/>
      <use xlink:href="#DejaVuSans-64" transform="translate(338.619141 0)"/>
      <use xlink:href="#DejaVuSans-20" transform="translate(402.095703 0)"/>
      <use xlink:href="#DejaVuSans-70" transform="translate(433.882812 0)"/>
      <use xlink:href="#DejaVuSans-61" transform="translate(497.359375 0)"/>
      <use xlink:href="#DejaVuSans-73" transform="translate(558.638672 0)"/>
      <use xlink:href="#DejaVuSans-73" transform="translate(610.738281 0)"/>
     </g>
    </g>
    <g id="line2d_2">
     <path d="M 411.165 295.940406 
L 420.165 295.940406 
L 429.165 295.940406 
" style="fill: none; stroke: #c44536; stroke-width: 2; stroke-linecap: square"/>
    </g>
    <g id="text_19">
     <!-- Iterate (Kirchhoff loop) -->
     <g transform="translate(436.365 299.090406) scale(0.09 -0.09)">
      <defs>
       <path id="DejaVuSans-49" d="M 628 4666 
L 1259 4666 
L 1259 0 
L 628 0 
L 628 4666 
z
" transform="scale(0.015625)"/>
       <path id="DejaVuSans-4b" d="M 628 4666 
L 1259 4666 
L 1259 2694 
L 3353 4666 
L 4166 4666 
L 1850 2491 
L 4331 0 
L 3500 0 
L 1259 2247 
L 1259 0 
L 628 0 
L 628 4666 
z
" transform="scale(0.015625)"/>
       <path id="DejaVuSans-69" d="M 603 3500 
L 1178 3500 
L 1178 0 
L 603 0 
L 603 3500 
z
M 603 4863 
L 1178 4863 
L 1178 4134 
L 603 4134 
L 603 4863 
z
" transform="scale(0.015625)"/>
       <path id="DejaVuSans-68" d="M 3513 2113 
L 3513 0 
L 2938 0 
L 2938 2094 
Q 2938 2591 2744 2837 
Q 2550 3084 2163 3084 
Q 1697 3084 1428 2787 
Q 1159 2491 1159 1978 
L 1159 0 
L 581 0 
L 581 4863 
L 1159 4863 
L 1159 2956 
Q 1366 3272 1645 3428 
Q 1925 3584 2291 3584 
Q 2894 3584 3203 3211 
Q 3513 2838 3513 2113 
z
" transform="scale(0.015625)"/>
      </defs>
      <use xlink:href="#DejaVuSans-49"/>
      <use xlink:href="#DejaVuSans-74" transform="translate(29.492188 0)"/>
      <use xlink:href="#DejaVuSans-65" transform="translate(68.701172 0)"/>
      <use xlink:href="#DejaVuSans-72" transform="translate(130.224609 0)"/>
      <use xlink:href="#DejaVuSans-61" transform="translate(171.337891 0)"/>
      <use xlink:href="#DejaVuSans-74" transform="translate(232.617188 0)"/>
      <use xlink:href="#DejaVuSans-65" transform="translate(271.826172 0)"/>
      <use xlink:href="#DejaVuSans-20" transform="translate(333.349609 0)"/>
      <use xlink:href="#DejaVuSans-28" transform="translate(365.136719 0)"/>
      <use xlink:href="#DejaVuSans-4b" transform="translate(404.150391 0)"/>
      <use xlink:href="#DejaVuSans-69" transform="translate(469.726562 0)"/>
      <use xlink:href="#DejaVuSans-72" transform="translate(497.509766 0)"/>
      <use xlink:href="#DejaVuSans-63" transform="translate(536.373047 0)"/>
      <use xlink:href="#DejaVuSans-68" transform="translate(591.353516 0)"/>
      <use xlink:href="#DejaVuSans-68" transform="translate(654.732422 0)"/>
      <use xlink:href="#DejaVuSans-6f" transform="translate(718.111328 0)"/>
      <use xlink:href="#DejaVuSans-66" transform="translate(779.292969 0)"/>
      <use xlink:href="#DejaVuSans-66" transform="translate(814.498047 0)"/>
      <use xlink:href="#DejaVuSans-20" transform="translate(849.703125 0)"/>
      <use xlink:href="#DejaVuSans-6c" transform="translate(881.490234 0)"/>
      <use xlink:href="#DejaVuSans-6f" transform="translate(909.273438 0)"/>
      <use xlink:href="#DejaVuSans-6f" transform="translate(970.455078 0)"/>
      <use xlink:href="#DejaVuSans-70" transform="translate(1031.636719 0)"/>
      <use xlink:href="#DejaVuSans-29" transform="translate(1095.113281 0)"/>
     </g>
    </g>
    <g id="line2d_3">
     <path d="M 556.437656 295.940406 
L 565.437656 295.940406 
L 574.437656 295.940406 
" style="fill: none; stroke: #2e7d32; stroke-width: 2; stroke-linecap: square"/>
    </g>
    <g id="text_20">
     <!-- Output -->
     <g transform="translate(581.637656 299.090406) scale(0.09 -0.09)">
      <defs>
       <path id="DejaVuSans-4f" d="M 2522 4238 
Q 1834 4238 1429 3725 
Q 1025 3213 1025 2328 
Q 1025 1447 1429 934 
Q 1834 422 2522 422 
Q 3209 422 3611 934 
Q 4013 1447 4013 2328 
Q 4013 3213 3611 3725 
Q 3209 4238 2522 4238 
z
M 2522 4750 
Q 3503 4750 4090 4092 
Q 4678 3434 4678 2328 
Q 4678 1225 4090 567 
Q 3503 -91 2522 -91 
Q 1538 -91 948 565 
Q 359 1222 359 2328 
Q 359 3434 948 4092 
Q 1538 4750 2522 4750 
z
" transform="scale(0.015625)"/>
      </defs>
      <use xlink:href="#DejaVuSans-4f"/>
      <use xlink:href="#DejaVuSans-75" transform="translate(78.710938 0)"/>
      <use xlink:href="#DejaVuSans-74" transform="translate(142.089844 0)"/>
      <use xlink:href="#DejaVuSans-70" transform="translate(181.298828 0)"/>
      <use xlink:href="#DejaVuSans-75" transform="translate(244.775391 0)"/>
      <use xlink:href="#DejaVuSans-74" transform="translate(308.154297 0)"/>
     </g>
    </g>
   </g>
  </g>
 </g>
 <defs>
  <clipPath id="p962b364647">
   <rect x="7.2" y="26.318125" width="613.8" height="277.2"/>
  </clipPath>
 </defs>
</svg>
