<?xml version="1.0" encoding="utf-8" standalone="no"?>
<!DOCTYPE svg PUBLIC "-//W3C//DTD SVG 1.1//EN"
  "http://www.w3.org/Graphics/SVG/1.1/DTD/svg11.dtd">
<svg xmlns:xlink="http://www.w3.org/1999/xlink" width="572.4pt" height="377.246125pt" viewBox="0 0 572.4 377.246125" xmlns="http://www.w3.org/2000/svg" version="1.1">
 <metadata>
  <rdf:RDF xmlns:dc="http://purl.org/dc/elements/1.1/" xmlns:cc="http://creativecommons.org/ns#" xmlns:rdf="http://www.w3.org/1999/02/22-rdf-syntax-ns#">
   <cc:Work>
    <dc:type rdf:resource="http://purl.org/dc/dcmitype/StillImage"/>
    <dc:date>2026-06-16T03:13:35.979319</dc:date>
    <dc:format>image/svg+xml</dc:format>
    <dc:creator>
     <cc:Agent>
      <dc:title>Matplotlib v3.10.9, https://matplotlib.org/</dc:title>
     </cc:Agent>
    </dc:creator>
   </cc:Work>
  </rdf:RDF>
 </metadata>
 <defs>
  <style type="text/css">*{stroke-linejoin: round; stroke-linecap: butt}</style>
 </defs>
 <g id="figure_1">
  <g id="patch_1">
   <path d="M 0 377.246125 
L 572.4 377.246125 
L 572.4 0 
L 0 0 
z
" style="fill: #ffffff"/>
  </g>
  <g id="axes_1">
   <g id="patch_2">
    <path d="M 7.2 370.046125 
L 565.2 370.046125 
L 565.2 26.318125 
L 7.2 26.318125 
z
" style="fill: #ffffff"/>
   </g>
   <g id="matplotlib.axis_1"/>
   <g id="matplotlib.axis_2"/>
   <g id="line2d_1">
    <path d="M 381.06 325.694125 
L 381.06 42.950125 
" clip-path="url(#pfc642aa864)" style="fill: none; stroke-dasharray: 3.7,1.6; stroke-dashoffset: 0; stroke: #6c757d; stroke-opacity: 0.5"/>
   </g>
   <g id="patch_3">
    <path d="M 42.676798 336.782125 
Q 286.196598 336.782125 528.039346 336.782125 
" style="fill: none; stroke: #283142; stroke-width: 1.5; stroke-linecap: round"/>
    <path d="M 524.039346 334.782125 
L 528.039346 336.782125 
L 524.039346 338.782125 
z
" style="fill: #283142; stroke: #283142; stroke-width: 1.5; stroke-linecap: round"/>
   </g>
   <g id="patch_4">
    <path d="M 40.68 334.777991 
Q 40.68 189.863743 40.68 46.626546 
" style="fill: none; stroke: #283142; stroke-width: 1.5; stroke-linecap: round"/>
    <path d="M 38.68 50.626546 
L 40.68 46.626546 
L 42.68 50.626546 
z
" style="fill: #283142; stroke: #283142; stroke-width: 1.5; stroke-linecap: round"/>
   </g>
   <g id="text_1">
    <!-- Granularity (per-item $\rightarrow$ structural) -->
    <g style="fill: #283142" transform="translate(186.2 356.186125) scale(0.1 -0.1)">
     <defs>
      <path id="DejaVuSans-Bold-47" d="M 4781 347 
Q 4331 128 3847 18 
Q 3363 -91 2847 -91 
Q 1681 -91 1000 561 
Q 319 1213 319 2328 
Q 319 3456 1012 4103 
Q 1706 4750 2913 4750 
Q 3378 4750 3804 4662 
Q 4231 4575 4609 4403 
L 4609 3438 
Q 4219 3659 3833 3768 
Q 3447 3878 3059 3878 
Q 2341 3878 1952 3476 
Q 1563 3075 1563 2328 
Q 1563 1588 1938 1184 
Q 2313 781 3003 781 
Q 3191 781 3352 804 
Q 3513 828 3641 878 
L 3641 1784 
L 2906 1784 
L 2906 2591 
L 4781 2591 
L 4781 347 
z
" transform="scale(0.015625)"/>
      <path id="DejaVuSans-Bold-72" d="M 3138 2547 
Q 2991 2616 2845 2648 
Q 2700 2681 2553 2681 
Q 2122 2681 1889 2404 
Q 1656 2128 1656 1613 
L 1656 0 
L 538 0 
L 538 3500 
L 1656 3500 
L 1656 2925 
Q 1872 3269 2151 3426 
Q 2431 3584 2822 3584 
Q 2878 3584 2943 3579 
Q 3009 3575 3134 3559 
L 3138 2547 
z
" transform="scale(0.015625)"/>
      <path id="DejaVuSans-Bold-61" d="M 2106 1575 
Q 1756 1575 1579 1456 
Q 1403 1338 1403 1106 
Q 1403 894 1545 773 
Q 1688 653 1941 653 
Q 2256 653 2472 879 
Q 2688 1106 2688 1447 
L 2688 1575 
L 2106 1575 
z
M 3816 1997 
L 3816 0 
L 2688 0 
L 2688 519 
Q 2463 200 2181 54 
Q 1900 -91 1497 -91 
Q 953 -91 614 226 
Q 275 544 275 1050 
Q 275 1666 698 1953 
Q 1122 2241 2028 2241 
L 2688 2241 
L 2688 2328 
Q 2688 2594 2478 2717 
Q 2269 2841 1825 2841 
Q 1466 2841 1156 2769 
Q 847 2697 581 2553 
L 581 3406 
Q 941 3494 1303 3539 
Q 1666 3584 2028 3584 
Q 2975 3584 3395 3211 
Q 3816 2838 3816 1997 
z
" transform="scale(0.015625)"/>
      <path id="DejaVuSans-Bold-6e" d="M 4056 2131 
L 4056 0 
L 2931 0 
L 2931 347 
L 2931 1631 
Q 2931 2084 2911 2256 
Q 2891 2428 2841 2509 
Q 2775 2619 2662 2680 
Q 2550 2741 2406 2741 
Q 2056 2741 1856 2470 
Q 1656 2200 1656 1722 
L 1656 0 
L 538 0 
L 538 3500 
L 1656 3500 
L 1656 2988 
Q 1909 3294 2193 3439 
Q 2478 3584 2822 3584 
Q 3428 3584 3742 3212 
Q 4056 2841 4056 2131 
z
" transform="scale(0.015625)"/>
      <path id="DejaVuSans-Bold-75" d="M 500 1363 
L 500 3500 
L 1625 3500 
L 1625 3150 
Q 1625 2866 1622 2436 
Q 1619 2006 1619 1863 
Q 1619 1441 1641 1255 
Q 1663 1069 1716 984 
Q 1784 875 1895 815 
Q 2006 756 2150 756 
Q 2500 756 2700 1025 
Q 2900 1294 2900 1772 
L 2900 3500 
L 4019 3500 
L 4019 0 
L 2900 0 
L 2900 506 
Q 2647 200 2364 54 
Q 2081 -91 1741 -91 
Q 1134 -91 817 281 
Q 500 653 500 1363 
z
" transform="scale(0.015625)"/>
      <path id="DejaVuSans-Bold-6c" d="M 538 4863 
L 1656 4863 
L 1656 0 
L 538 0 
L 538 4863 
z
" transform="scale(0.015625)"/>
      <path id="DejaVuSans-Bold-69" d="M 538 3500 
L 1656 3500 
L 1656 0 
L 538 0 
L 538 3500 
z
M 538 4863 
L 1656 4863 
L 1656 3950 
L 538 3950 
L 538 4863 
z
" transform="scale(0.015625)"/>
      <path id="DejaVuSans-Bold-74" d="M 1759 4494 
L 1759 3500 
L 2913 3500 
L 2913 2700 
L 1759 2700 
L 1759 1216 
Q 1759 972 1856 886 
Q 1953 800 2241 800 
L 2816 800 
L 2816 0 
L 1856 0 
Q 1194 0 917 276 
Q 641 553 641 1216 
L 641 2700 
L 84 2700 
L 84 3500 
L 641 3500 
L 641 4494 
L 1759 4494 
z
" transform="scale(0.015625)"/>
      <path id="DejaVuSans-Bold-79" d="M 78 3500 
L 1197 3500 
L 2138 1125 
L 2938 3500 
L 4056 3500 
L 2584 -331 
Q 2363 -916 2067 -1148 
Q 1772 -1381 1288 -1381 
L 641 -1381 
L 641 -647 
L 991 -647 
Q 1275 -647 1404 -556 
Q 1534 -466 1606 -231 
L 1638 -134 
L 78 3500 
z
" transform="scale(0.015625)"/>
      <path id="DejaVuSans-Bold-20" transform="scale(0.015625)"/>
      <path id="DejaVuSans-Bold-28" d="M 2413 -844 
L 1484 -844 
Q 1006 -72 778 623 
Q 550 1319 550 2003 
Q 550 2688 779 3389 
Q 1009 4091 1484 4856 
L 2413 4856 
Q 2013 4116 1813 3408 
Q 1613 2700 1613 2009 
Q 1613 1319 1811 609 
Q 2009 -100 2413 -844 
z
" transform="scale(0.015625)"/>
      <path id="DejaVuSans-Bold-70" d="M 1656 506 
L 1656 -1331 
L 538 -1331 
L 538 3500 
L 1656 3500 
L 1656 2988 
Q 1888 3294 2169 3439 
Q 2450 3584 2816 3584 
Q 3463 3584 3878 3070 
Q 4294 2556 4294 1747 
Q 4294 938 3878 423 
Q 3463 -91 2816 -91 
Q 2450 -91 2169 54 
Q 1888 200 1656 506 
z
M 2400 2772 
Q 2041 2772 1848 2508 
Q 1656 2244 1656 1747 
Q 1656 1250 1848 986 
Q 2041 722 2400 722 
Q 2759 722 2948 984 
Q 3138 1247 3138 1747 
Q 3138 2247 2948 2509 
Q 2759 2772 2400 2772 
z
" transform="scale(0.015625)"/>
      <path id="DejaVuSans-Bold-65" d="M 4031 1759 
L 4031 1441 
L 1416 1441 
Q 1456 1047 1700 850 
Q 1944 653 2381 653 
Q 2734 653 3104 758 
Q 3475 863 3866 1075 
L 3866 213 
Q 3469 63 3072 -14 
Q 2675 -91 2278 -91 
Q 1328 -91 801 392 
Q 275 875 275 1747 
Q 275 2603 792 3093 
Q 1309 3584 2216 3584 
Q 3041 3584 3536 3087 
Q 4031 2591 4031 1759 
z
M 2881 2131 
Q 2881 2450 2695 2645 
Q 2509 2841 2209 2841 
Q 1884 2841 1681 2658 
Q 1478 2475 1428 2131 
L 2881 2131 
z
" transform="scale(0.015625)"/>
      <path id="DejaVuSans-Bold-2d" d="M 347 2297 
L 2309 2297 
L 2309 1388 
L 347 1388 
L 347 2297 
z
" transform="scale(0.015625)"/>
      <path id="DejaVuSans-Bold-6d" d="M 3781 2919 
Q 3994 3244 4286 3414 
Q 4578 3584 4928 3584 
Q 5531 3584 5847 3212 
Q 6163 2841 6163 2131 
L 6163 0 
L 5038 0 
L 5038 1825 
Q 5041 1866 5042 1909 
Q 5044 1953 5044 2034 
Q 5044 2406 4934 2573 
Q 4825 2741 4581 2741 
Q 4263 2741 4089 2478 
Q 3916 2216 3909 1719 
L 3909 0 
L 2784 0 
L 2784 1825 
Q 2784 2406 2684 2573 
Q 2584 2741 2328 2741 
Q 2006 2741 1831 2477 
Q 1656 2213 1656 1722 
L 1656 0 
L 531 0 
L 531 3500 
L 1656 3500 
L 1656 2988 
Q 1863 3284 2130 3434 
Q 2397 3584 2719 3584 
Q 3081 3584 3359 3409 
Q 3638 3234 3781 2919 
z
" transform="scale(0.015625)"/>
      <path id="DejaVuSans-2192" d="M 5050 2147 
L 5050 1866 
L 3822 638 
L 3447 1013 
L 4175 1741 
L 366 1741 
L 366 2272 
L 4175 2272 
L 3447 3000 
L 3822 3375 
L 5050 2147 
z
" transform="scale(0.015625)"/>
      <path id="DejaVuSans-Bold-73" d="M 3272 3391 
L 3272 2541 
Q 2913 2691 2578 2766 
Q 2244 2841 1947 2841 
Q 1628 2841 1473 2761 
Q 1319 2681 1319 2516 
Q 1319 2381 1436 2309 
Q 1553 2238 1856 2203 
L 2053 2175 
Q 2913 2066 3209 1816 
Q 3506 1566 3506 1031 
Q 3506 472 3093 190 
Q 2681 -91 1863 -91 
Q 1516 -91 1145 -36 
Q 775 19 384 128 
L 384 978 
Q 719 816 1070 734 
Q 1422 653 1784 653 
Q 2113 653 2278 743 
Q 2444 834 2444 1013 
Q 2444 1163 2330 1236 
Q 2216 1309 1875 1350 
L 1678 1375 
Q 931 1469 631 1722 
Q 331 1975 331 2491 
Q 331 3047 712 3315 
Q 1094 3584 1881 3584 
Q 2191 3584 2531 3537 
Q 2872 3491 3272 3391 
z
" transform="scale(0.015625)"/>
      <path id="DejaVuSans-Bold-63" d="M 3366 3391 
L 3366 2478 
Q 3138 2634 2908 2709 
Q 2678 2784 2431 2784 
Q 1963 2784 1702 2511 
Q 1441 2238 1441 1747 
Q 1441 1256 1702 982 
Q 1963 709 2431 709 
Q 2694 709 2930 787 
Q 3166 866 3366 1019 
L 3366 103 
Q 3103 6 2833 -42 
Q 2563 -91 2291 -91 
Q 1344 -91 809 395 
Q 275 881 275 1747 
Q 275 2613 809 3098 
Q 1344 3584 2291 3584 
Q 2566 3584 2833 3536 
Q 3100 3488 3366 3391 
z
" transform="scale(0.015625)"/>
      <path id="DejaVuSans-Bold-29" d="M 513 -844 
Q 913 -100 1113 609 
Q 1313 1319 1313 2009 
Q 1313 2700 1113 3408 
Q 913 4116 513 4856 
L 1441 4856 
Q 1916 4091 2145 3389 
Q 2375 2688 2375 2003 
Q 2375 1319 2147 623 
Q 1919 -72 1441 -844 
L 513 -844 
z
" transform="scale(0.015625)"/>
     </defs>
     <use xlink:href="#DejaVuSans-Bold-47" transform="translate(0 0.015625)"/>
     <use xlink:href="#DejaVuSans-Bold-72" transform="translate(82.080078 0.015625)"/>
     <use xlink:href="#DejaVuSans-Bold-61" transform="translate(131.396484 0.015625)"/>
     <use xlink:href="#DejaVuSans-Bold-6e" transform="translate(198.876953 0.015625)"/>
     <use xlink:href="#DejaVuSans-Bold-75" transform="translate(270.068359 0.015625)"/>
     <use xlink:href="#DejaVuSans-Bold-6c" transform="translate(341.259766 0.015625)"/>
     <use xlink:href="#DejaVuSans-Bold-61" transform="translate(375.537109 0.015625)"/>
     <use xlink:href="#DejaVuSans-Bold-72" transform="translate(443.017578 0.015625)"/>
     <use xlink:href="#DejaVuSans-Bold-69" transform="translate(492.333984 0.015625)"/>
     <use xlink:href="#DejaVuSans-Bold-74" transform="translate(526.611328 0.015625)"/>
     <use xlink:href="#DejaVuSans-Bold-79" transform="translate(574.414062 0.015625)"/>
     <use xlink:href="#DejaVuSans-Bold-20" transform="translate(639.599609 0.015625)"/>
     <use xlink:href="#DejaVuSans-Bold-28" transform="translate(674.414062 0.015625)"/>
     <use xlink:href="#DejaVuSans-Bold-70" transform="translate(720.117188 0.015625)"/>
     <use xlink:href="#DejaVuSans-Bold-65" transform="translate(791.699219 0.015625)"/>
     <use xlink:href="#DejaVuSans-Bold-72" transform="translate(859.521484 0.015625)"/>
     <use xlink:href="#DejaVuSans-Bold-2d" transform="translate(908.837891 0.015625)"/>
     <use xlink:href="#DejaVuSans-Bold-69" transform="translate(950.341797 0.015625)"/>
     <use xlink:href="#DejaVuSans-Bold-74" transform="translate(984.619141 0.015625)"/>
     <use xlink:href="#DejaVuSans-Bold-65" transform="translate(1032.421875 0.015625)"/>
     <use xlink:href="#DejaVuSans-Bold-6d" transform="translate(1100.244141 0.015625)"/>
     <use xlink:href="#DejaVuSans-Bold-20" transform="translate(1204.443359 0.015625)"/>
     <use xlink:href="#DejaVuSans-2192" transform="translate(1258.740234 0.015625)"/>
     <use xlink:href="#DejaVuSans-Bold-20" transform="translate(1362.011719 0.015625)"/>
     <use xlink:href="#DejaVuSans-Bold-73" transform="translate(1396.826172 0.015625)"/>
     <use xlink:href="#DejaVuSans-Bold-74" transform="translate(1456.347656 0.015625)"/>
     <use xlink:href="#DejaVuSans-Bold-72" transform="translate(1504.150391 0.015625)"/>
     <use xlink:href="#DejaVuSans-Bold-75" transform="translate(1553.466797 0.015625)"/>
     <use xlink:href="#DejaVuSans-Bold-63" transform="translate(1624.658203 0.015625)"/>
     <use xlink:href="#DejaVuSans-Bold-74" transform="translate(1683.935547 0.015625)"/>
     <use xlink:href="#DejaVuSans-Bold-75" transform="translate(1731.738281 0.015625)"/>
     <use xlink:href="#DejaVuSans-Bold-72" transform="translate(1802.929688 0.015625)"/>
     <use xlink:href="#DejaVuSans-Bold-61" transform="translate(1852.246094 0.015625)"/>
     <use xlink:href="#DejaVuSans-Bold-6c" transform="translate(1919.726562 0.015625)"/>
     <use xlink:href="#DejaVuSans-Bold-29" transform="translate(1954.003906 0.015625)"/>
    </g>
   </g>
   <g id="text_2">
    <!-- Inter-element interaction modeling -->
    <g style="fill: #283142" transform="translate(23.870313 289.2755) rotate(-90) scale(0.1 -0.1)">
     <defs>
      <path id="DejaVuSans-Bold-49" d="M 588 4666 
L 1791 4666 
L 1791 0 
L 588 0 
L 588 4666 
z
" transform="scale(0.015625)"/>
      <path id="DejaVuSans-Bold-6f" d="M 2203 2784 
Q 1831 2784 1636 2517 
Q 1441 2250 1441 1747 
Q 1441 1244 1636 976 
Q 1831 709 2203 709 
Q 2569 709 2762 976 
Q 2956 1244 2956 1747 
Q 2956 2250 2762 2517 
Q 2569 2784 2203 2784 
z
M 2203 3584 
Q 3106 3584 3614 3096 
Q 4122 2609 4122 1747 
Q 4122 884 3614 396 
Q 3106 -91 2203 -91 
Q 1297 -91 786 396 
Q 275 884 275 1747 
Q 275 2609 786 3096 
Q 1297 3584 2203 3584 
z
" transform="scale(0.015625)"/>
      <path id="DejaVuSans-Bold-64" d="M 2919 2988 
L 2919 4863 
L 4044 4863 
L 4044 0 
L 2919 0 
L 2919 506 
Q 2688 197 2409 53 
Q 2131 -91 1766 -91 
Q 1119 -91 703 423 
Q 288 938 288 1747 
Q 288 2556 703 3070 
Q 1119 3584 1766 3584 
Q 2128 3584 2408 3439 
Q 2688 3294 2919 2988 
z
M 2181 722 
Q 2541 722 2730 984 
Q 2919 1247 2919 1747 
Q 2919 2247 2730 2509 
Q 2541 2772 2181 2772 
Q 1825 2772 1636 2509 
Q 1447 2247 1447 1747 
Q 1447 1247 1636 984 
Q 1825 722 2181 722 
z
" transform="scale(0.015625)"/>
      <path id="DejaVuSans-Bold-67" d="M 2919 594 
Q 2688 288 2409 144 
Q 2131 0 1766 0 
Q 1125 0 706 504 
Q 288 1009 288 1791 
Q 288 2575 706 3076 
Q 1125 3578 1766 3578 
Q 2131 3578 2409 3434 
Q 2688 3291 2919 2981 
L 2919 3500 
L 4044 3500 
L 4044 353 
Q 4044 -491 3511 -936 
Q 2978 -1381 1966 -1381 
Q 1638 -1381 1331 -1331 
Q 1025 -1281 716 -1178 
L 716 -306 
Q 1009 -475 1290 -558 
Q 1572 -641 1856 -641 
Q 2406 -641 2662 -400 
Q 2919 -159 2919 353 
L 2919 594 
z
M 2181 2772 
Q 1834 2772 1640 2515 
Q 1447 2259 1447 1791 
Q 1447 1309 1634 1061 
Q 1822 813 2181 813 
Q 2531 813 2725 1069 
Q 2919 1325 2919 1791 
Q 2919 2259 2725 2515 
Q 2531 2772 2181 2772 
z
" transform="scale(0.015625)"/>
     </defs>
     <use xlink:href="#DejaVuSans-Bold-49"/>
     <use xlink:href="#DejaVuSans-Bold-6e" transform="translate(37.207031 0)"/>
     <use xlink:href="#DejaVuSans-Bold-74" transform="translate(108.398438 0)"/>
     <use xlink:href="#DejaVuSans-Bold-65" transform="translate(156.201172 0)"/>
     <use xlink:href="#DejaVuSans-Bold-72" transform="translate(224.023438 0)"/>
     <use xlink:href="#DejaVuSans-Bold-2d" transform="translate(273.339844 0)"/>
     <use xlink:href="#DejaVuSans-Bold-65" transform="translate(314.84375 0)"/>
     <use xlink:href="#DejaVuSans-Bold-6c" transform="translate(382.666016 0)"/>
     <use xlink:href="#DejaVuSans-Bold-65" transform="translate(416.943359 0)"/>
     <use xlink:href="#DejaVuSans-Bold-6d" transform="translate(484.765625 0)"/>
     <use xlink:href="#DejaVuSans-Bold-65" transform="translate(588.964844 0)"/>
     <use xlink:href="#DejaVuSans-Bold-6e" transform="translate(656.787109 0)"/>
     <use xlink:href="#DejaVuSans-Bold-74" transform="translate(727.978516 0)"/>
     <use xlink:href="#DejaVuSans-Bold-20" transform="translate(775.78125 0)"/>
     <use xlink:href="#DejaVuSans-Bold-69" transform="translate(810.595703 0)"/>
     <use xlink:href="#DejaVuSans-Bold-6e" transform="translate(844.873047 0)"/>
     <use xlink:href="#DejaVuSans-Bold-74" transform="translate(916.064453 0)"/>
     <use xlink:href="#DejaVuSans-Bold-65" transform="translate(963.867188 0)"/>
     <use xlink:href="#DejaVuSans-Bold-72" transform="translate(1031.689453 0)"/>
     <use xlink:href="#DejaVuSans-Bold-61" transform="translate(1081.005859 0)"/>
     <use xlink:href="#DejaVuSans-Bold-63" transform="translate(1148.486328 0)"/>
     <use xlink:href="#DejaVuSans-Bold-74" transform="translate(1207.763672 0)"/>
     <use xlink:href="#DejaVuSans-Bold-69" transform="translate(1255.566406 0)"/>
     <use xlink:href="#DejaVuSans-Bold-6f" transform="translate(1289.84375 0)"/>
     <use xlink:href="#DejaVuSans-Bold-6e" transform="translate(1358.544922 0)"/>
     <use xlink:href="#DejaVuSans-Bold-20" transform="translate(1429.736328 0)"/>
     <use xlink:href="#DejaVuSans-Bold-6d" transform="translate(1464.550781 0)"/>
     <use xlink:href="#DejaVuSans-Bold-6f" transform="translate(1568.75 0)"/>
     <use xlink:href="#DejaVuSans-Bold-64" transform="translate(1637.451172 0)"/>
     <use xlink:href="#DejaVuSans-Bold-65" transform="translate(1709.033203 0)"/>
     <use xlink:href="#DejaVuSans-Bold-6c" transform="translate(1776.855469 0)"/>
     <use xlink:href="#DejaVuSans-Bold-69" transform="translate(1811.132812 0)"/>
     <use xlink:href="#DejaVuSans-Bold-6e" transform="translate(1845.410156 0)"/>
     <use xlink:href="#DejaVuSans-Bold-67" transform="translate(1916.601562 0)"/>
    </g>
   </g>
   <g id="PathCollection_1">
    <defs>
     <path id="m99528bdb6c" d="M 0 15 
C 3.978047 15 7.793698 13.419505 10.606602 10.606602 
C 13.419505 7.793698 15 3.978047 15 0 
C 15 -3.978047 13.419505 -7.793698 10.606602 -10.606602 
C 7.793698 -13.419505 3.978047 -15 0 -15 
C -3.978047 -15 -7.793698 -13.419505 -10.606602 -10.606602 
C -13.419505 -7.793698 -15 -3.978047 -15 0 
C -15 3.978047 -13.419505 7.793698 -10.606602 10.606602 
C -7.793698 13.419505 -3.978047 15 0 15 
z
" style="stroke: #283142; stroke-width: 1.3"/>
    </defs>
    <g clip-path="url(#pfc642aa864)">
     <use xlink:href="#m99528bdb6c" x="96.48" y="259.166125" style="fill: #b0bec5; stroke: #283142; stroke-width: 1.3"/>
    </g>
   </g>
   <g id="text_3">
    <!-- BM25 -->
    <g style="fill: #283142" transform="translate(83.097148 286.886125) scale(0.085 -0.085)">
     <defs>
      <path id="DejaVuSans-Bold-42" d="M 2456 2859 
Q 2741 2859 2887 2984 
Q 3034 3109 3034 3353 
Q 3034 3594 2887 3720 
Q 2741 3847 2456 3847 
L 1791 3847 
L 1791 2859 
L 2456 2859 
z
M 2497 819 
Q 2859 819 3042 972 
Q 3225 1125 3225 1434 
Q 3225 1738 3044 1889 
Q 2863 2041 2497 2041 
L 1791 2041 
L 1791 819 
L 2497 819 
z
M 3616 2497 
Q 4003 2384 4215 2081 
Q 4428 1778 4428 1338 
Q 4428 663 3972 331 
Q 3516 0 2584 0 
L 588 0 
L 588 4666 
L 2394 4666 
Q 3366 4666 3802 4372 
Q 4238 4078 4238 3431 
Q 4238 3091 4078 2852 
Q 3919 2613 3616 2497 
z
" transform="scale(0.015625)"/>
      <path id="DejaVuSans-Bold-4d" d="M 588 4666 
L 2119 4666 
L 3181 2169 
L 4250 4666 
L 5778 4666 
L 5778 0 
L 4641 0 
L 4641 3413 
L 3566 897 
L 2803 897 
L 1728 3413 
L 1728 0 
L 588 0 
L 588 4666 
z
" transform="scale(0.015625)"/>
      <path id="DejaVuSans-Bold-32" d="M 1844 884 
L 3897 884 
L 3897 0 
L 506 0 
L 506 884 
L 2209 2388 
Q 2438 2594 2547 2791 
Q 2656 2988 2656 3200 
Q 2656 3528 2436 3728 
Q 2216 3928 1850 3928 
Q 1569 3928 1234 3808 
Q 900 3688 519 3450 
L 519 4475 
Q 925 4609 1322 4679 
Q 1719 4750 2100 4750 
Q 2938 4750 3402 4381 
Q 3866 4013 3866 3353 
Q 3866 2972 3669 2642 
Q 3472 2313 2841 1759 
L 1844 884 
z
" transform="scale(0.015625)"/>
      <path id="DejaVuSans-Bold-35" d="M 678 4666 
L 3669 4666 
L 3669 3781 
L 1638 3781 
L 1638 3059 
Q 1775 3097 1914 3117 
Q 2053 3138 2203 3138 
Q 3056 3138 3531 2711 
Q 4006 2284 4006 1522 
Q 4006 766 3489 337 
Q 2972 -91 2053 -91 
Q 1656 -91 1267 -14 
Q 878 63 494 219 
L 494 1166 
Q 875 947 1217 837 
Q 1559 728 1863 728 
Q 2300 728 2551 942 
Q 2803 1156 2803 1522 
Q 2803 1891 2551 2103 
Q 2300 2316 1863 2316 
Q 1603 2316 1309 2248 
Q 1016 2181 678 2041 
L 678 4666 
z
" transform="scale(0.015625)"/>
     </defs>
     <use xlink:href="#DejaVuSans-Bold-42"/>
     <use xlink:href="#DejaVuSans-Bold-4d" transform="translate(76.220703 0)"/>
     <use xlink:href="#DejaVuSans-Bold-32" transform="translate(175.732422 0)"/>
     <use xlink:href="#DejaVuSans-Bold-35" transform="translate(245.3125 0)"/>
    </g>
   </g>
   <g id="text_4">
    <!-- lexical-rank -->
    <g style="fill: #6c757d" transform="translate(74.72707 300.746125) scale(0.075 -0.075)">
     <defs>
      <path id="DejaVuSans-Oblique-6c" d="M 1172 4863 
L 1747 4863 
L 800 0 
L 225 0 
L 1172 4863 
z
" transform="scale(0.015625)"/>
      <path id="DejaVuSans-Oblique-65" d="M 3078 2063 
Q 3088 2113 3092 2166 
Q 3097 2219 3097 2272 
Q 3097 2653 2873 2875 
Q 2650 3097 2266 3097 
Q 1838 3097 1509 2826 
Q 1181 2556 1013 2059 
L 3078 2063 
z
M 3578 1613 
L 903 1613 
Q 884 1494 878 1425 
Q 872 1356 872 1306 
Q 872 872 1139 634 
Q 1406 397 1894 397 
Q 2269 397 2603 481 
Q 2938 566 3225 728 
L 3116 159 
Q 2806 34 2476 -28 
Q 2147 -91 1806 -91 
Q 1078 -91 686 257 
Q 294 606 294 1247 
Q 294 1794 489 2264 
Q 684 2734 1063 3103 
Q 1306 3334 1642 3459 
Q 1978 3584 2356 3584 
Q 2950 3584 3301 3228 
Q 3653 2872 3653 2272 
Q 3653 2128 3634 1964 
Q 3616 1800 3578 1613 
z
" transform="scale(0.015625)"/>
      <path id="DejaVuSans-Oblique-78" d="M 3841 3500 
L 2234 1784 
L 3219 0 
L 2559 0 
L 1819 1388 
L 531 0 
L -166 0 
L 1556 1844 
L 641 3500 
L 1300 3500 
L 1972 2234 
L 3144 3500 
L 3841 3500 
z
" transform="scale(0.015625)"/>
      <path id="DejaVuSans-Oblique-69" d="M 1172 4863 
L 1747 4863 
L 1606 4134 
L 1031 4134 
L 1172 4863 
z
M 909 3500 
L 1484 3500 
L 800 0 
L 225 0 
L 909 3500 
z
" transform="scale(0.015625)"/>
      <path id="DejaVuSans-Oblique-63" d="M 3431 3366 
L 3316 2797 
Q 3109 2947 2876 3022 
Q 2644 3097 2394 3097 
Q 2119 3097 1870 3000 
Q 1622 2903 1453 2725 
Q 1184 2453 1037 2087 
Q 891 1722 891 1331 
Q 891 859 1127 628 
Q 1363 397 1844 397 
Q 2081 397 2348 469 
Q 2616 541 2906 684 
L 2797 116 
Q 2547 13 2283 -39 
Q 2019 -91 1741 -91 
Q 1044 -91 669 257 
Q 294 606 294 1253 
Q 294 1797 489 2255 
Q 684 2713 1069 3078 
Q 1331 3328 1684 3456 
Q 2038 3584 2456 3584 
Q 2700 3584 2940 3529 
Q 3181 3475 3431 3366 
z
" transform="scale(0.015625)"/>
      <path id="DejaVuSans-Oblique-61" d="M 3438 1997 
L 3047 0 
L 2472 0 
L 2578 531 
Q 2325 219 2001 64 
Q 1678 -91 1281 -91 
Q 834 -91 548 182 
Q 263 456 263 884 
Q 263 1497 752 1853 
Q 1241 2209 2100 2209 
L 2900 2209 
L 2931 2363 
Q 2938 2388 2941 2417 
Q 2944 2447 2944 2509 
Q 2944 2788 2717 2942 
Q 2491 3097 2081 3097 
Q 1800 3097 1504 3025 
Q 1209 2953 897 2809 
L 997 3341 
Q 1322 3463 1633 3523 
Q 1944 3584 2234 3584 
Q 2853 3584 3176 3315 
Q 3500 3047 3500 2534 
Q 3500 2431 3484 2292 
Q 3469 2153 3438 1997 
z
M 2816 1759 
L 2241 1759 
Q 1534 1759 1195 1570 
Q 856 1381 856 984 
Q 856 709 1029 553 
Q 1203 397 1509 397 
Q 1978 397 2328 733 
Q 2678 1069 2791 1631 
L 2816 1759 
z
" transform="scale(0.015625)"/>
      <path id="DejaVuSans-Oblique-2d" d="M 391 2009 
L 2075 2009 
L 1978 1497 
L 288 1497 
L 391 2009 
z
" transform="scale(0.015625)"/>
      <path id="DejaVuSans-Oblique-72" d="M 2853 2969 
Q 2766 3016 2653 3041 
Q 2541 3066 2413 3066 
Q 1953 3066 1609 2717 
Q 1266 2369 1153 1784 
L 800 0 
L 225 0 
L 909 3500 
L 1484 3500 
L 1375 2956 
Q 1603 3259 1920 3421 
Q 2238 3584 2597 3584 
Q 2691 3584 2781 3573 
Q 2872 3563 2963 3538 
L 2853 2969 
z
" transform="scale(0.015625)"/>
      <path id="DejaVuSans-Oblique-6e" d="M 3566 2113 
L 3156 0 
L 2578 0 
L 2988 2091 
Q 3016 2238 3031 2350 
Q 3047 2463 3047 2528 
Q 3047 2791 2881 2937 
Q 2716 3084 2419 3084 
Q 1956 3084 1622 2776 
Q 1288 2469 1184 1941 
L 800 0 
L 225 0 
L 903 3500 
L 1478 3500 
L 1363 2950 
Q 1603 3253 1940 3418 
Q 2278 3584 2650 3584 
Q 3113 3584 3367 3334 
Q 3622 3084 3622 2631 
Q 3622 2519 3608 2391 
Q 3594 2263 3566 2113 
z
" transform="scale(0.015625)"/>
      <path id="DejaVuSans-Oblique-6b" d="M 1172 4863 
L 1747 4863 
L 1197 2028 
L 3169 3500 
L 3916 3500 
L 1716 1825 
L 3322 0 
L 2625 0 
L 1131 1709 
L 800 0 
L 225 0 
L 1172 4863 
z
" transform="scale(0.015625)"/>
     </defs>
     <use xlink:href="#DejaVuSans-Oblique-6c"/>
     <use xlink:href="#DejaVuSans-Oblique-65" transform="translate(27.783203 0)"/>
     <use xlink:href="#DejaVuSans-Oblique-78" transform="translate(89.306641 0)"/>
     <use xlink:href="#DejaVuSans-Oblique-69" transform="translate(148.486328 0)"/>
     <use xlink:href="#DejaVuSans-Oblique-63" transform="translate(176.269531 0)"/>
     <use xlink:href="#DejaVuSans-Oblique-61" transform="translate(231.25 0)"/>
     <use xlink:href="#DejaVuSans-Oblique-6c" transform="translate(292.529297 0)"/>
     <use xlink:href="#DejaVuSans-Oblique-2d" transform="translate(320.3125 0)"/>
     <use xlink:href="#DejaVuSans-Oblique-72" transform="translate(356.396484 0)"/>
     <use xlink:href="#DejaVuSans-Oblique-61" transform="translate(397.509766 0)"/>
     <use xlink:href="#DejaVuSans-Oblique-6e" transform="translate(458.789062 0)"/>
     <use xlink:href="#DejaVuSans-Oblique-6b" transform="translate(522.167969 0)"/>
    </g>
   </g>
   <g id="PathCollection_2">
    <g clip-path="url(#pfc642aa864)">
     <use xlink:href="#m99528bdb6c" x="196.92" y="231.446125" style="fill: #b0bec5; stroke: #283142; stroke-width: 1.3"/>
    </g>
   </g>
   <g id="text_5">
    <!-- Dense Top-k -->
    <g style="fill: #283142" transform="translate(167.703906 259.166125) scale(0.085 -0.085)">
     <defs>
      <path id="DejaVuSans-Bold-44" d="M 1791 3756 
L 1791 909 
L 2222 909 
Q 2959 909 3348 1275 
Q 3738 1641 3738 2338 
Q 3738 3031 3350 3393 
Q 2963 3756 2222 3756 
L 1791 3756 
z
M 588 4666 
L 1856 4666 
Q 2919 4666 3439 4514 
Q 3959 4363 4331 4000 
Q 4659 3684 4818 3271 
Q 4978 2859 4978 2338 
Q 4978 1809 4818 1395 
Q 4659 981 4331 666 
Q 3956 303 3431 151 
Q 2906 0 1856 0 
L 588 0 
L 588 4666 
z
" transform="scale(0.015625)"/>
      <path id="DejaVuSans-Bold-54" d="M 31 4666 
L 4331 4666 
L 4331 3756 
L 2784 3756 
L 2784 0 
L 1581 0 
L 1581 3756 
L 31 3756 
L 31 4666 
z
" transform="scale(0.015625)"/>
      <path id="DejaVuSans-Bold-6b" d="M 538 4863 
L 1656 4863 
L 1656 2216 
L 2944 3500 
L 4244 3500 
L 2534 1894 
L 4378 0 
L 3022 0 
L 1656 1459 
L 1656 0 
L 538 0 
L 538 4863 
z
" transform="scale(0.015625)"/>
     </defs>
     <use xlink:href="#DejaVuSans-Bold-44"/>
     <use xlink:href="#DejaVuSans-Bold-65" transform="translate(83.007812 0)"/>
     <use xlink:href="#DejaVuSans-Bold-6e" transform="translate(150.830078 0)"/>
     <use xlink:href="#DejaVuSans-Bold-73" transform="translate(222.021484 0)"/>
     <use xlink:href="#DejaVuSans-Bold-65" transform="translate(281.542969 0)"/>
     <use xlink:href="#DejaVuSans-Bold-20" transform="translate(349.365234 0)"/>
     <use xlink:href="#DejaVuSans-Bold-54" transform="translate(384.179688 0)"/>
     <use xlink:href="#DejaVuSans-Bold-6f" transform="translate(439.142578 0)"/>
     <use xlink:href="#DejaVuSans-Bold-70" transform="translate(507.84375 0)"/>
     <use xlink:href="#DejaVuSans-Bold-2d" transform="translate(579.425781 0)"/>
     <use xlink:href="#DejaVuSans-Bold-6b" transform="translate(620.929688 0)"/>
    </g>
   </g>
   <g id="text_6">
    <!-- embedding-rank -->
    <g style="fill: #6c757d" transform="translate(165.970781 273.026125) scale(0.075 -0.075)">
     <defs>
      <path id="DejaVuSans-Oblique-6d" d="M 5747 2113 
L 5338 0 
L 4763 0 
L 5166 2094 
Q 5191 2228 5203 2325 
Q 5216 2422 5216 2491 
Q 5216 2772 5059 2928 
Q 4903 3084 4622 3084 
Q 4203 3084 3875 2770 
Q 3547 2456 3450 1953 
L 3066 0 
L 2491 0 
L 2900 2094 
Q 2925 2209 2937 2307 
Q 2950 2406 2950 2484 
Q 2950 2769 2794 2926 
Q 2638 3084 2363 3084 
Q 1938 3084 1609 2770 
Q 1281 2456 1184 1953 
L 800 0 
L 225 0 
L 909 3500 
L 1484 3500 
L 1375 2956 
Q 1609 3263 1923 3423 
Q 2238 3584 2597 3584 
Q 2978 3584 3223 3384 
Q 3469 3184 3519 2828 
Q 3781 3197 4126 3390 
Q 4472 3584 4856 3584 
Q 5306 3584 5551 3325 
Q 5797 3066 5797 2591 
Q 5797 2488 5784 2364 
Q 5772 2241 5747 2113 
z
" transform="scale(0.015625)"/>
      <path id="DejaVuSans-Oblique-62" d="M 3169 2138 
Q 3169 2591 2961 2847 
Q 2753 3103 2388 3103 
Q 2122 3103 1889 2973 
Q 1656 2844 1484 2597 
Q 1303 2338 1198 1995 
Q 1094 1653 1094 1313 
Q 1094 881 1298 636 
Q 1503 391 1863 391 
Q 2134 391 2365 517 
Q 2597 644 2772 891 
Q 2950 1147 3059 1487 
Q 3169 1828 3169 2138 
z
M 1381 2969 
Q 1594 3256 1914 3420 
Q 2234 3584 2584 3584 
Q 3122 3584 3439 3221 
Q 3756 2859 3756 2241 
Q 3756 1734 3570 1259 
Q 3384 784 3041 416 
Q 2816 172 2522 40 
Q 2228 -91 1906 -91 
Q 1566 -91 1316 65 
Q 1066 222 909 531 
L 806 0 
L 231 0 
L 1178 4863 
L 1753 4863 
L 1381 2969 
z
" transform="scale(0.015625)"/>
      <path id="DejaVuSans-Oblique-64" d="M 2675 525 
Q 2444 222 2128 65 
Q 1813 -91 1428 -91 
Q 903 -91 598 267 
Q 294 625 294 1247 
Q 294 1766 478 2236 
Q 663 2706 1013 3078 
Q 1244 3325 1534 3454 
Q 1825 3584 2144 3584 
Q 2481 3584 2739 3421 
Q 2997 3259 3138 2956 
L 3513 4863 
L 4091 4863 
L 3144 0 
L 2566 0 
L 2675 525 
z
M 891 1350 
Q 891 897 1095 644 
Q 1300 391 1663 391 
Q 1931 391 2161 520 
Q 2391 650 2566 903 
Q 2750 1166 2856 1509 
Q 2963 1853 2963 2188 
Q 2963 2622 2758 2865 
Q 2553 3109 2194 3109 
Q 1922 3109 1687 2981 
Q 1453 2853 1288 2613 
Q 1106 2353 998 2009 
Q 891 1666 891 1350 
z
" transform="scale(0.015625)"/>
      <path id="DejaVuSans-Oblique-67" d="M 3816 3500 
L 3219 434 
Q 3047 -456 2561 -893 
Q 2075 -1331 1253 -1331 
Q 950 -1331 690 -1286 
Q 431 -1241 206 -1147 
L 313 -588 
Q 525 -725 762 -790 
Q 1000 -856 1269 -856 
Q 1816 -856 2167 -557 
Q 2519 -259 2631 300 
L 2681 563 
Q 2441 288 2122 144 
Q 1803 0 1434 0 
Q 903 0 598 351 
Q 294 703 294 1319 
Q 294 1803 478 2267 
Q 663 2731 997 3091 
Q 1219 3328 1514 3456 
Q 1809 3584 2131 3584 
Q 2484 3584 2746 3420 
Q 3009 3256 3138 2956 
L 3238 3500 
L 3816 3500 
z
M 2950 2216 
Q 2950 2641 2750 2872 
Q 2550 3103 2181 3103 
Q 1953 3103 1747 3012 
Q 1541 2922 1394 2759 
Q 1156 2491 1023 2127 
Q 891 1763 891 1375 
Q 891 944 1092 712 
Q 1294 481 1672 481 
Q 2219 481 2584 976 
Q 2950 1472 2950 2216 
z
" transform="scale(0.015625)"/>
     </defs>
     <use xlink:href="#DejaVuSans-Oblique-65"/>
     <use xlink:href="#DejaVuSans-Oblique-6d" transform="translate(61.523438 0)"/>
     <use xlink:href="#DejaVuSans-Oblique-62" transform="translate(158.935547 0)"/>
     <use xlink:href="#DejaVuSans-Oblique-65" transform="translate(222.412109 0)"/>
     <use xlink:href="#DejaVuSans-Oblique-64" transform="translate(283.935547 0)"/>
     <use xlink:href="#DejaVuSans-Oblique-64" transform="translate(347.412109 0)"/>
     <use xlink:href="#DejaVuSans-Oblique-69" transform="translate(410.888672 0)"/>
     <use xlink:href="#DejaVuSans-Oblique-6e" transform="translate(438.671875 0)"/>
     <use xlink:href="#DejaVuSans-Oblique-67" transform="translate(502.050781 0)"/>
     <use xlink:href="#DejaVuSans-Oblique-2d" transform="translate(565.527344 0)"/>
     <use xlink:href="#DejaVuSans-Oblique-72" transform="translate(601.611328 0)"/>
     <use xlink:href="#DejaVuSans-Oblique-61" transform="translate(642.724609 0)"/>
     <use xlink:href="#DejaVuSans-Oblique-6e" transform="translate(704.003906 0)"/>
     <use xlink:href="#DejaVuSans-Oblique-6b" transform="translate(767.382812 0)"/>
    </g>
   </g>
   <g id="PathCollection_3">
    <defs>
     <path id="md264b4de1d" d="M 0 15 
C 3.978047 15 7.793698 13.419505 10.606602 10.606602 
C 13.419505 7.793698 15 3.978047 15 0 
C 15 -3.978047 13.419505 -7.793698 10.606602 -10.606602 
C 7.793698 -13.419505 3.978047 -15 0 -15 
C -3.978047 -15 -7.793698 -13.419505 -10.606602 -10.606602 
C -13.419505 -7.793698 -15 -3.978047 -15 0 
C -15 3.978047 -13.419505 7.793698 -10.606602 10.606602 
C -7.793698 13.419505 -3.978047 15 0 15 
z
" style="stroke: #283142; stroke-width: 1.3"/>
    </defs>
    <g clip-path="url(#pfc642aa864)">
     <use xlink:href="#md264b4de1d" x="141.12" y="131.654125" style="fill: #90a4ae; stroke: #283142; stroke-width: 1.3"/>
    </g>
   </g>
   <g id="text_7">
    <!-- Selective Context -->
    <g style="fill: #283142" transform="translate(98.945391 159.374125) scale(0.085 -0.085)">
     <defs>
      <path id="DejaVuSans-Bold-53" d="M 3834 4519 
L 3834 3531 
Q 3450 3703 3084 3790 
Q 2719 3878 2394 3878 
Q 1963 3878 1756 3759 
Q 1550 3641 1550 3391 
Q 1550 3203 1689 3098 
Q 1828 2994 2194 2919 
L 2706 2816 
Q 3484 2659 3812 2340 
Q 4141 2022 4141 1434 
Q 4141 663 3683 286 
Q 3225 -91 2284 -91 
Q 1841 -91 1394 -6 
Q 947 78 500 244 
L 500 1259 
Q 947 1022 1364 901 
Q 1781 781 2169 781 
Q 2563 781 2772 912 
Q 2981 1044 2981 1288 
Q 2981 1506 2839 1625 
Q 2697 1744 2272 1838 
L 1806 1941 
Q 1106 2091 782 2419 
Q 459 2747 459 3303 
Q 459 4000 909 4375 
Q 1359 4750 2203 4750 
Q 2588 4750 2994 4692 
Q 3400 4634 3834 4519 
z
" transform="scale(0.015625)"/>
      <path id="DejaVuSans-Bold-76" d="M 97 3500 
L 1216 3500 
L 2088 1081 
L 2956 3500 
L 4078 3500 
L 2700 0 
L 1472 0 
L 97 3500 
z
" transform="scale(0.015625)"/>
      <path id="DejaVuSans-Bold-43" d="M 4288 256 
Q 3956 84 3597 -3 
Q 3238 -91 2847 -91 
Q 1681 -91 1000 561 
Q 319 1213 319 2328 
Q 319 3447 1000 4098 
Q 1681 4750 2847 4750 
Q 3238 4750 3597 4662 
Q 3956 4575 4288 4403 
L 4288 3438 
Q 3953 3666 3628 3772 
Q 3303 3878 2944 3878 
Q 2300 3878 1931 3465 
Q 1563 3053 1563 2328 
Q 1563 1606 1931 1193 
Q 2300 781 2944 781 
Q 3303 781 3628 887 
Q 3953 994 4288 1222 
L 4288 256 
z
" transform="scale(0.015625)"/>
      <path id="DejaVuSans-Bold-78" d="M 1422 1791 
L 159 3500 
L 1344 3500 
L 2059 2463 
L 2784 3500 
L 3969 3500 
L 2706 1797 
L 4031 0 
L 2847 0 
L 2059 1106 
L 1281 0 
L 97 0 
L 1422 1791 
z
" transform="scale(0.015625)"/>
     </defs>
     <use xlink:href="#DejaVuSans-Bold-53"/>
     <use xlink:href="#DejaVuSans-Bold-65" transform="translate(72.021484 0)"/>
     <use xlink:href="#DejaVuSans-Bold-6c" transform="translate(139.84375 0)"/>
     <use xlink:href="#DejaVuSans-Bold-65" transform="translate(174.121094 0)"/>
     <use xlink:href="#DejaVuSans-Bold-63" transform="translate(241.943359 0)"/>
     <use xlink:href="#DejaVuSans-Bold-74" transform="translate(301.220703 0)"/>
     <use xlink:href="#DejaVuSans-Bold-69" transform="translate(349.023438 0)"/>
     <use xlink:href="#DejaVuSans-Bold-76" transform="translate(383.300781 0)"/>
     <use xlink:href="#DejaVuSans-Bold-65" transform="translate(448.486328 0)"/>
     <use xlink:href="#DejaVuSans-Bold-20" transform="translate(516.308594 0)"/>
     <use xlink:href="#DejaVuSans-Bold-43" transform="translate(551.123047 0)"/>
     <use xlink:href="#DejaVuSans-Bold-6f" transform="translate(624.511719 0)"/>
     <use xlink:href="#DejaVuSans-Bold-6e" transform="translate(693.212891 0)"/>
     <use xlink:href="#DejaVuSans-Bold-74" transform="translate(764.404297 0)"/>
     <use xlink:href="#DejaVuSans-Bold-65" transform="translate(812.207031 0)"/>
     <use xlink:href="#DejaVuSans-Bold-78" transform="translate(880.029297 0)"/>
     <use xlink:href="#DejaVuSans-Bold-74" transform="translate(944.53125 0)"/>
    </g>
   </g>
   <g id="text_8">
    <!-- info-theoretic -->
    <g style="fill: #6c757d" transform="translate(115.862578 173.234125) scale(0.075 -0.075)">
     <defs>
      <path id="DejaVuSans-Oblique-66" d="M 3059 4863 
L 2969 4384 
L 2419 4384 
Q 2106 4384 1964 4261 
Q 1822 4138 1753 3809 
L 1691 3500 
L 2638 3500 
L 2553 3053 
L 1606 3053 
L 1013 0 
L 434 0 
L 1031 3053 
L 481 3053 
L 563 3500 
L 1113 3500 
L 1159 3744 
Q 1278 4363 1576 4613 
Q 1875 4863 2516 4863 
L 3059 4863 
z
" transform="scale(0.015625)"/>
      <path id="DejaVuSans-Oblique-6f" d="M 1625 -91 
Q 1009 -91 651 289 
Q 294 669 294 1325 
Q 294 1706 417 2101 
Q 541 2497 738 2766 
Q 1047 3184 1428 3384 
Q 1809 3584 2291 3584 
Q 2888 3584 3255 3212 
Q 3622 2841 3622 2241 
Q 3622 1825 3500 1412 
Q 3378 1000 3181 728 
Q 2875 309 2494 109 
Q 2113 -91 1625 -91 
z
M 891 1344 
Q 891 869 1089 633 
Q 1288 397 1691 397 
Q 2269 397 2648 901 
Q 3028 1406 3028 2181 
Q 3028 2634 2825 2865 
Q 2622 3097 2228 3097 
Q 1903 3097 1650 2945 
Q 1397 2794 1197 2484 
Q 1050 2253 970 1956 
Q 891 1659 891 1344 
z
" transform="scale(0.015625)"/>
      <path id="DejaVuSans-Oblique-74" d="M 2706 3500 
L 2619 3053 
L 1472 3053 
L 1100 1153 
Q 1081 1047 1072 975 
Q 1063 903 1063 863 
Q 1063 663 1183 572 
Q 1303 481 1569 481 
L 2150 481 
L 2053 0 
L 1503 0 
Q 991 0 739 200 
Q 488 400 488 806 
Q 488 878 497 964 
Q 506 1050 525 1153 
L 897 3053 
L 409 3053 
L 500 3500 
L 978 3500 
L 1172 4494 
L 1747 4494 
L 1556 3500 
L 2706 3500 
z
" transform="scale(0.015625)"/>
      <path id="DejaVuSans-Oblique-68" d="M 3566 2113 
L 3156 0 
L 2578 0 
L 2988 2091 
Q 3016 2238 3031 2350 
Q 3047 2463 3047 2528 
Q 3047 2791 2881 2937 
Q 2716 3084 2419 3084 
Q 1956 3084 1617 2771 
Q 1278 2459 1178 1941 
L 800 0 
L 225 0 
L 1172 4863 
L 1747 4863 
L 1375 2950 
Q 1594 3244 1934 3414 
Q 2275 3584 2650 3584 
Q 3113 3584 3367 3334 
Q 3622 3084 3622 2631 
Q 3622 2519 3608 2391 
Q 3594 2263 3566 2113 
z
" transform="scale(0.015625)"/>
     </defs>
     <use xlink:href="#DejaVuSans-Oblique-69"/>
     <use xlink:href="#DejaVuSans-Oblique-6e" transform="translate(27.783203 0)"/>
     <use xlink:href="#DejaVuSans-Oblique-66" transform="translate(91.162109 0)"/>
     <use xlink:href="#DejaVuSans-Oblique-6f" transform="translate(126.367188 0)"/>
     <use xlink:href="#DejaVuSans-Oblique-2d" transform="translate(187.548828 0)"/>
     <use xlink:href="#DejaVuSans-Oblique-74" transform="translate(223.632812 0)"/>
     <use xlink:href="#DejaVuSans-Oblique-68" transform="translate(262.841797 0)"/>
     <use xlink:href="#DejaVuSans-Oblique-65" transform="translate(326.220703 0)"/>
     <use xlink:href="#DejaVuSans-Oblique-6f" transform="translate(387.744141 0)"/>
     <use xlink:href="#DejaVuSans-Oblique-72" transform="translate(448.925781 0)"/>
     <use xlink:href="#DejaVuSans-Oblique-65" transform="translate(490.039062 0)"/>
     <use xlink:href="#DejaVuSans-Oblique-74" transform="translate(551.5625 0)"/>
     <use xlink:href="#DejaVuSans-Oblique-69" transform="translate(590.771484 0)"/>
     <use xlink:href="#DejaVuSans-Oblique-63" transform="translate(618.554688 0)"/>
    </g>
   </g>
   <g id="PathCollection_4">
    <g clip-path="url(#pfc642aa864)">
     <use xlink:href="#md264b4de1d" x="252.72" y="98.390125" style="fill: #90a4ae; stroke: #283142; stroke-width: 1.3"/>
    </g>
   </g>
   <g id="text_9">
    <!-- LLMLingua / -2 -->
    <g style="fill: #283142" transform="translate(217.715938 126.110125) scale(0.085 -0.085)">
     <defs>
      <path id="DejaVuSans-Bold-4c" d="M 588 4666 
L 1791 4666 
L 1791 909 
L 3903 909 
L 3903 0 
L 588 0 
L 588 4666 
z
" transform="scale(0.015625)"/>
      <path id="DejaVuSans-Bold-2f" d="M 1644 4666 
L 2338 4666 
L 691 -594 
L 0 -594 
L 1644 4666 
z
" transform="scale(0.015625)"/>
     </defs>
     <use xlink:href="#DejaVuSans-Bold-4c"/>
     <use xlink:href="#DejaVuSans-Bold-4c" transform="translate(63.720703 0)"/>
     <use xlink:href="#DejaVuSans-Bold-4d" transform="translate(127.441406 0)"/>
     <use xlink:href="#DejaVuSans-Bold-4c" transform="translate(226.953125 0)"/>
     <use xlink:href="#DejaVuSans-Bold-69" transform="translate(290.673828 0)"/>
     <use xlink:href="#DejaVuSans-Bold-6e" transform="translate(324.951172 0)"/>
     <use xlink:href="#DejaVuSans-Bold-67" transform="translate(396.142578 0)"/>
     <use xlink:href="#DejaVuSans-Bold-75" transform="translate(467.724609 0)"/>
     <use xlink:href="#DejaVuSans-Bold-61" transform="translate(538.916016 0)"/>
     <use xlink:href="#DejaVuSans-Bold-20" transform="translate(606.396484 0)"/>
     <use xlink:href="#DejaVuSans-Bold-2f" transform="translate(641.210938 0)"/>
     <use xlink:href="#DejaVuSans-Bold-20" transform="translate(677.734375 0)"/>
     <use xlink:href="#DejaVuSans-Bold-2d" transform="translate(712.548828 0)"/>
     <use xlink:href="#DejaVuSans-Bold-32" transform="translate(754.052734 0)"/>
    </g>
   </g>
   <g id="text_10">
    <!-- prompt-comp. -->
    <g style="fill: #6c757d" transform="translate(226.065117 139.970125) scale(0.075 -0.075)">
     <defs>
      <path id="DejaVuSans-Oblique-70" d="M 3175 2156 
Q 3175 2616 2975 2859 
Q 2775 3103 2400 3103 
Q 2144 3103 1911 2972 
Q 1678 2841 1497 2591 
Q 1319 2344 1212 1994 
Q 1106 1644 1106 1300 
Q 1106 863 1306 627 
Q 1506 391 1875 391 
Q 2147 391 2380 519 
Q 2613 647 2778 891 
Q 2956 1147 3065 1494 
Q 3175 1841 3175 2156 
z
M 1394 2969 
Q 1625 3272 1939 3428 
Q 2253 3584 2638 3584 
Q 3175 3584 3472 3232 
Q 3769 2881 3769 2247 
Q 3769 1728 3584 1258 
Q 3400 788 3053 416 
Q 2822 169 2531 39 
Q 2241 -91 1919 -91 
Q 1547 -91 1294 64 
Q 1041 219 916 525 
L 556 -1331 
L -19 -1331 
L 922 3500 
L 1497 3500 
L 1394 2969 
z
" transform="scale(0.015625)"/>
      <path id="DejaVuSans-Oblique-2e" d="M 525 794 
L 1184 794 
L 1031 0 
L 372 0 
L 525 794 
z
" transform="scale(0.015625)"/>
     </defs>
     <use xlink:href="#DejaVuSans-Oblique-70"/>
     <use xlink:href="#DejaVuSans-Oblique-72" transform="translate(63.476562 0)"/>
     <use xlink:href="#DejaVuSans-Oblique-6f" transform="translate(104.589844 0)"/>
     <use xlink:href="#DejaVuSans-Oblique-6d" transform="translate(165.771484 0)"/>
     <use xlink:href="#DejaVuSans-Oblique-70" transform="translate(263.183594 0)"/>
     <use xlink:href="#DejaVuSans-Oblique-74" transform="translate(326.660156 0)"/>
     <use xlink:href="#DejaVuSans-Oblique-2d" transform="translate(365.869141 0)"/>
     <use xlink:href="#DejaVuSans-Oblique-63" transform="translate(401.953125 0)"/>
     <use xlink:href="#DejaVuSans-Oblique-6f" transform="translate(456.933594 0)"/>
     <use xlink:href="#DejaVuSans-Oblique-6d" transform="translate(518.115234 0)"/>
     <use xlink:href="#DejaVuSans-Oblique-70" transform="translate(615.527344 0)"/>
     <use xlink:href="#DejaVuSans-Oblique-2e" transform="translate(679.003906 0)"/>
    </g>
   </g>
   <g id="PathCollection_5">
    <g clip-path="url(#pfc642aa864)">
     <use xlink:href="#md264b4de1d" x="286.2" y="176.006125" style="fill: #90a4ae; stroke: #283142; stroke-width: 1.3"/>
    </g>
   </g>
   <g id="text_11">
    <!-- LongLLMLingua -->
    <g style="fill: #283142" transform="translate(248.73293 203.726125) scale(0.085 -0.085)">
     <use xlink:href="#DejaVuSans-Bold-4c"/>
     <use xlink:href="#DejaVuSans-Bold-6f" transform="translate(63.720703 0)"/>
     <use xlink:href="#DejaVuSans-Bold-6e" transform="translate(132.421875 0)"/>
     <use xlink:href="#DejaVuSans-Bold-67" transform="translate(203.613281 0)"/>
     <use xlink:href="#DejaVuSans-Bold-4c" transform="translate(275.195312 0)"/>
     <use xlink:href="#DejaVuSans-Bold-4c" transform="translate(338.916016 0)"/>
     <use xlink:href="#DejaVuSans-Bold-4d" transform="translate(402.636719 0)"/>
     <use xlink:href="#DejaVuSans-Bold-4c" transform="translate(502.148438 0)"/>
     <use xlink:href="#DejaVuSans-Bold-69" transform="translate(565.869141 0)"/>
     <use xlink:href="#DejaVuSans-Bold-6e" transform="translate(600.146484 0)"/>
     <use xlink:href="#DejaVuSans-Bold-67" transform="translate(671.337891 0)"/>
     <use xlink:href="#DejaVuSans-Bold-75" transform="translate(742.919922 0)"/>
     <use xlink:href="#DejaVuSans-Bold-61" transform="translate(814.111328 0)"/>
    </g>
   </g>
   <g id="text_12">
    <!-- prompt-comp. -->
    <g style="fill: #6c757d" transform="translate(259.545117 217.586125) scale(0.075 -0.075)">
     <use xlink:href="#DejaVuSans-Oblique-70"/>
     <use xlink:href="#DejaVuSans-Oblique-72" transform="translate(63.476562 0)"/>
     <use xlink:href="#DejaVuSans-Oblique-6f" transform="translate(104.589844 0)"/>
     <use xlink:href="#DejaVuSans-Oblique-6d" transform="translate(165.771484 0)"/>
     <use xlink:href="#DejaVuSans-Oblique-70" transform="translate(263.183594 0)"/>
     <use xlink:href="#DejaVuSans-Oblique-74" transform="translate(326.660156 0)"/>
     <use xlink:href="#DejaVuSans-Oblique-2d" transform="translate(365.869141 0)"/>
     <use xlink:href="#DejaVuSans-Oblique-63" transform="translate(401.953125 0)"/>
     <use xlink:href="#DejaVuSans-Oblique-6f" transform="translate(456.933594 0)"/>
     <use xlink:href="#DejaVuSans-Oblique-6d" transform="translate(518.115234 0)"/>
     <use xlink:href="#DejaVuSans-Oblique-70" transform="translate(615.527344 0)"/>
     <use xlink:href="#DejaVuSans-Oblique-2e" transform="translate(679.003906 0)"/>
    </g>
   </g>
   <g id="PathCollection_6">
    <g clip-path="url(#pfc642aa864)">
     <use xlink:href="#md264b4de1d" x="330.84" y="126.110125" style="fill: #90a4ae; stroke: #283142; stroke-width: 1.3"/>
    </g>
   </g>
   <g id="text_13">
    <!-- RECOMP -->
    <g style="fill: #283142" transform="translate(310.587422 153.830125) scale(0.085 -0.085)">
     <defs>
      <path id="DejaVuSans-Bold-52" d="M 2297 2597 
Q 2675 2597 2839 2737 
Q 3003 2878 3003 3200 
Q 3003 3519 2839 3656 
Q 2675 3794 2297 3794 
L 1791 3794 
L 1791 2597 
L 2297 2597 
z
M 1791 1766 
L 1791 0 
L 588 0 
L 588 4666 
L 2425 4666 
Q 3347 4666 3776 4356 
Q 4206 4047 4206 3378 
Q 4206 2916 3982 2619 
Q 3759 2322 3309 2181 
Q 3556 2125 3751 1926 
Q 3947 1728 4147 1325 
L 4800 0 
L 3519 0 
L 2950 1159 
Q 2778 1509 2601 1637 
Q 2425 1766 2131 1766 
L 1791 1766 
z
" transform="scale(0.015625)"/>
      <path id="DejaVuSans-Bold-45" d="M 588 4666 
L 3834 4666 
L 3834 3756 
L 1791 3756 
L 1791 2888 
L 3713 2888 
L 3713 1978 
L 1791 1978 
L 1791 909 
L 3903 909 
L 3903 0 
L 588 0 
L 588 4666 
z
" transform="scale(0.015625)"/>
      <path id="DejaVuSans-Bold-4f" d="M 2719 3878 
Q 2169 3878 1866 3472 
Q 1563 3066 1563 2328 
Q 1563 1594 1866 1187 
Q 2169 781 2719 781 
Q 3272 781 3575 1187 
Q 3878 1594 3878 2328 
Q 3878 3066 3575 3472 
Q 3272 3878 2719 3878 
z
M 2719 4750 
Q 3844 4750 4481 4106 
Q 5119 3463 5119 2328 
Q 5119 1197 4481 553 
Q 3844 -91 2719 -91 
Q 1597 -91 958 553 
Q 319 1197 319 2328 
Q 319 3463 958 4106 
Q 1597 4750 2719 4750 
z
" transform="scale(0.015625)"/>
      <path id="DejaVuSans-Bold-50" d="M 588 4666 
L 2584 4666 
Q 3475 4666 3951 4270 
Q 4428 3875 4428 3144 
Q 4428 2409 3951 2014 
Q 3475 1619 2584 1619 
L 1791 1619 
L 1791 0 
L 588 0 
L 588 4666 
z
M 1791 3794 
L 1791 2491 
L 2456 2491 
Q 2806 2491 2997 2661 
Q 3188 2831 3188 3144 
Q 3188 3456 2997 3625 
Q 2806 3794 2456 3794 
L 1791 3794 
z
" transform="scale(0.015625)"/>
     </defs>
     <use xlink:href="#DejaVuSans-Bold-52"/>
     <use xlink:href="#DejaVuSans-Bold-45" transform="translate(77.001953 0)"/>
     <use xlink:href="#DejaVuSans-Bold-43" transform="translate(145.3125 0)"/>
     <use xlink:href="#DejaVuSans-Bold-4f" transform="translate(218.701172 0)"/>
     <use xlink:href="#DejaVuSans-Bold-4d" transform="translate(303.710938 0)"/>
     <use xlink:href="#DejaVuSans-Bold-50" transform="translate(403.222656 0)"/>
    </g>
   </g>
   <g id="text_14">
    <!-- extractive/abstr. -->
    <g style="fill: #6c757d" transform="translate(300.145664 167.690125) scale(0.075 -0.075)">
     <defs>
      <path id="DejaVuSans-Oblique-76" d="M 459 3500 
L 1069 3500 
L 1581 525 
L 3256 3500 
L 3866 3500 
L 1875 0 
L 1100 0 
L 459 3500 
z
" transform="scale(0.015625)"/>
      <path id="DejaVuSans-Oblique-2f" d="M 2175 4666 
L 2731 4666 
L 84 -594 
L -469 -594 
L 2175 4666 
z
" transform="scale(0.015625)"/>
      <path id="DejaVuSans-Oblique-73" d="M 3200 3397 
L 3091 2853 
Q 2863 2978 2609 3040 
Q 2356 3103 2088 3103 
Q 1634 3103 1373 2948 
Q 1113 2794 1113 2528 
Q 1113 2219 1719 2053 
Q 1766 2041 1788 2034 
L 1972 1978 
Q 2547 1819 2739 1644 
Q 2931 1469 2931 1166 
Q 2931 609 2489 259 
Q 2047 -91 1331 -91 
Q 1053 -91 747 -37 
Q 441 16 72 128 
L 184 722 
Q 500 559 806 475 
Q 1113 391 1394 391 
Q 1816 391 2080 572 
Q 2344 753 2344 1031 
Q 2344 1331 1650 1516 
L 1591 1531 
L 1394 1581 
Q 956 1697 753 1886 
Q 550 2075 550 2369 
Q 550 2928 970 3256 
Q 1391 3584 2113 3584 
Q 2397 3584 2667 3537 
Q 2938 3491 3200 3397 
z
" transform="scale(0.015625)"/>
     </defs>
     <use xlink:href="#DejaVuSans-Oblique-65"/>
     <use xlink:href="#DejaVuSans-Oblique-78" transform="translate(61.523438 0)"/>
     <use xlink:href="#DejaVuSans-Oblique-74" transform="translate(120.703125 0)"/>
     <use xlink:href="#DejaVuSans-Oblique-72" transform="translate(159.912109 0)"/>
     <use xlink:href="#DejaVuSans-Oblique-61" transform="translate(201.025391 0)"/>
     <use xlink:href="#DejaVuSans-Oblique-63" transform="translate(262.304688 0)"/>
     <use xlink:href="#DejaVuSans-Oblique-74" transform="translate(317.285156 0)"/>
     <use xlink:href="#DejaVuSans-Oblique-69" transform="translate(356.494141 0)"/>
     <use xlink:href="#DejaVuSans-Oblique-76" transform="translate(384.277344 0)"/>
     <use xlink:href="#DejaVuSans-Oblique-65" transform="translate(443.457031 0)"/>
     <use xlink:href="#DejaVuSans-Oblique-2f" transform="translate(504.980469 0)"/>
     <use xlink:href="#DejaVuSans-Oblique-61" transform="translate(538.671875 0)"/>
     <use xlink:href="#DejaVuSans-Oblique-62" transform="translate(599.951172 0)"/>
     <use xlink:href="#DejaVuSans-Oblique-73" transform="translate(663.427734 0)"/>
     <use xlink:href="#DejaVuSans-Oblique-74" transform="translate(715.527344 0)"/>
     <use xlink:href="#DejaVuSans-Oblique-72" transform="translate(754.736328 0)"/>
     <use xlink:href="#DejaVuSans-Oblique-2e" transform="translate(786.724609 0)"/>
    </g>
   </g>
   <g id="PathCollection_7">
    <defs>
     <path id="m8fd5c5e010" d="M 0 19.364917 
C 5.135636 19.364917 10.061621 17.324507 13.693064 13.693064 
C 17.324507 10.061621 19.364917 5.135636 19.364917 0 
C 19.364917 -5.135636 17.324507 -10.061621 13.693064 -13.693064 
C 10.061621 -17.324507 5.135636 -19.364917 0 -19.364917 
C -5.135636 -19.364917 -10.061621 -17.324507 -13.693064 -13.693064 
C -17.324507 -10.061621 -19.364917 -5.135636 -19.364917 0 
C -19.364917 5.135636 -17.324507 10.061621 -13.693064 13.693064 
C -10.061621 17.324507 -5.135636 19.364917 0 19.364917 
z
" style="stroke: #283142; stroke-width: 1.3"/>
    </defs>
    <g clip-path="url(#pfc642aa864)">
     <use xlink:href="#m8fd5c5e010" x="464.76" y="76.214125" style="fill: #c44536; stroke: #283142; stroke-width: 1.3"/>
    </g>
   </g>
   <g id="text_15">
    <!-- FCNP (this work) -->
    <g style="fill: #283142" transform="translate(424.410234 109.478125) scale(0.085 -0.085)">
     <defs>
      <path id="DejaVuSans-Bold-46" d="M 588 4666 
L 3834 4666 
L 3834 3756 
L 1791 3756 
L 1791 2888 
L 3713 2888 
L 3713 1978 
L 1791 1978 
L 1791 0 
L 588 0 
L 588 4666 
z
" transform="scale(0.015625)"/>
      <path id="DejaVuSans-Bold-4e" d="M 588 4666 
L 1931 4666 
L 3628 1466 
L 3628 4666 
L 4769 4666 
L 4769 0 
L 3425 0 
L 1728 3200 
L 1728 0 
L 588 0 
L 588 4666 
z
" transform="scale(0.015625)"/>
      <path id="DejaVuSans-Bold-68" d="M 4056 2131 
L 4056 0 
L 2931 0 
L 2931 347 
L 2931 1625 
Q 2931 2084 2911 2256 
Q 2891 2428 2841 2509 
Q 2775 2619 2662 2680 
Q 2550 2741 2406 2741 
Q 2056 2741 1856 2470 
Q 1656 2200 1656 1722 
L 1656 0 
L 538 0 
L 538 4863 
L 1656 4863 
L 1656 2988 
Q 1909 3294 2193 3439 
Q 2478 3584 2822 3584 
Q 3428 3584 3742 3212 
Q 4056 2841 4056 2131 
z
" transform="scale(0.015625)"/>
      <path id="DejaVuSans-Bold-77" d="M 225 3500 
L 1313 3500 
L 1900 1088 
L 2491 3500 
L 3425 3500 
L 4013 1113 
L 4603 3500 
L 5691 3500 
L 4769 0 
L 3547 0 
L 2956 2406 
L 2369 0 
L 1147 0 
L 225 3500 
z
" transform="scale(0.015625)"/>
     </defs>
     <use xlink:href="#DejaVuSans-Bold-46"/>
     <use xlink:href="#DejaVuSans-Bold-43" transform="translate(68.310547 0)"/>
     <use xlink:href="#DejaVuSans-Bold-4e" transform="translate(141.699219 0)"/>
     <use xlink:href="#DejaVuSans-Bold-50" transform="translate(225.390625 0)"/>
     <use xlink:href="#DejaVuSans-Bold-20" transform="translate(298.681641 0)"/>
     <use xlink:href="#DejaVuSans-Bold-28" transform="translate(333.496094 0)"/>
     <use xlink:href="#DejaVuSans-Bold-74" transform="translate(379.199219 0)"/>
     <use xlink:href="#DejaVuSans-Bold-68" transform="translate(427.001953 0)"/>
     <use xlink:href="#DejaVuSans-Bold-69" transform="translate(498.193359 0)"/>
     <use xlink:href="#DejaVuSans-Bold-73" transform="translate(532.470703 0)"/>
     <use xlink:href="#DejaVuSans-Bold-20" transform="translate(591.992188 0)"/>
     <use xlink:href="#DejaVuSans-Bold-77" transform="translate(626.806641 0)"/>
     <use xlink:href="#DejaVuSans-Bold-6f" transform="translate(719.189453 0)"/>
     <use xlink:href="#DejaVuSans-Bold-72" transform="translate(787.890625 0)"/>
     <use xlink:href="#DejaVuSans-Bold-6b" transform="translate(837.207031 0)"/>
     <use xlink:href="#DejaVuSans-Bold-29" transform="translate(903.710938 0)"/>
    </g>
   </g>
   <g id="text_16">
    <!-- graph-flow -->
    <g style="fill: #6c757d" transform="translate(444.706289 123.338125) scale(0.075 -0.075)">
     <defs>
      <path id="DejaVuSans-Oblique-77" d="M 544 3500 
L 1113 3500 
L 1259 684 
L 2566 3500 
L 3231 3500 
L 3425 684 
L 4666 3500 
L 5241 3500 
L 3641 0 
L 2969 0 
L 2797 2900 
L 1459 0 
L 781 0 
L 544 3500 
z
" transform="scale(0.015625)"/>
     </defs>
     <use xlink:href="#DejaVuSans-Oblique-67"/>
     <use xlink:href="#DejaVuSans-Oblique-72" transform="translate(63.476562 0)"/>
     <use xlink:href="#DejaVuSans-Oblique-61" transform="translate(104.589844 0)"/>
     <use xlink:href="#DejaVuSans-Oblique-70" transform="translate(165.869141 0)"/>
     <use xlink:href="#DejaVuSans-Oblique-68" transform="translate(229.345703 0)"/>
     <use xlink:href="#DejaVuSans-Oblique-2d" transform="translate(292.724609 0)"/>
     <use xlink:href="#DejaVuSans-Oblique-66" transform="translate(328.808594 0)"/>
     <use xlink:href="#DejaVuSans-Oblique-6c" transform="translate(364.013672 0)"/>
     <use xlink:href="#DejaVuSans-Oblique-6f" transform="translate(391.796875 0)"/>
     <use xlink:href="#DejaVuSans-Oblique-77" transform="translate(452.978516 0)"/>
    </g>
   </g>
   <g id="text_17">
    <!-- $\leftarrow$ per-item ranking -->
    <g style="fill: #6c757d" transform="translate(163.755 317.378125) scale(0.09 -0.09)">
     <defs>
      <path id="DejaVuSans-2190" d="M 313 1866 
L 313 2147 
L 1541 3375 
L 1916 3000 
L 1188 2272 
L 4997 2272 
L 4997 1741 
L 1188 1741 
L 1916 1013 
L 1541 638 
L 313 1866 
z
" transform="scale(0.015625)"/>
     </defs>
     <use xlink:href="#DejaVuSans-2190" transform="translate(19.482422 0.015625)"/>
     <use xlink:href="#DejaVuSans-Bold-20" transform="translate(122.753906 0.015625)"/>
     <use xlink:href="#DejaVuSans-Bold-70" transform="translate(157.568359 0.015625)"/>
     <use xlink:href="#DejaVuSans-Bold-65" transform="translate(229.150391 0.015625)"/>
     <use xlink:href="#DejaVuSans-Bold-72" transform="translate(296.972656 0.015625)"/>
     <use xlink:href="#DejaVuSans-Bold-2d" transform="translate(346.289062 0.015625)"/>
     <use xlink:href="#DejaVuSans-Bold-69" transform="translate(387.792969 0.015625)"/>
     <use xlink:href="#DejaVuSans-Bold-74" transform="translate(422.070312 0.015625)"/>
     <use xlink:href="#DejaVuSans-Bold-65" transform="translate(469.873047 0.015625)"/>
     <use xlink:href="#DejaVuSans-Bold-6d" transform="translate(537.695312 0.015625)"/>
     <use xlink:href="#DejaVuSans-Bold-20" transform="translate(641.894531 0.015625)"/>
     <use xlink:href="#DejaVuSans-Bold-72" transform="translate(676.708984 0.015625)"/>
     <use xlink:href="#DejaVuSans-Bold-61" transform="translate(726.025391 0.015625)"/>
     <use xlink:href="#DejaVuSans-Bold-6e" transform="translate(793.505859 0.015625)"/>
     <use xlink:href="#DejaVuSans-Bold-6b" transform="translate(864.697266 0.015625)"/>
     <use xlink:href="#DejaVuSans-Bold-69" transform="translate(931.201172 0.015625)"/>
     <use xlink:href="#DejaVuSans-Bold-6e" transform="translate(965.478516 0.015625)"/>
     <use xlink:href="#DejaVuSans-Bold-67" transform="translate(1036.669922 0.015625)"/>
    </g>
   </g>
   <g id="text_18">
    <!-- global flow optimization $\rightarrow$ -->
    <g style="fill: #c44536" transform="translate(387.855 317.378125) scale(0.09 -0.09)">
     <defs>
      <path id="DejaVuSans-Bold-62" d="M 2400 722 
Q 2759 722 2948 984 
Q 3138 1247 3138 1747 
Q 3138 2247 2948 2509 
Q 2759 2772 2400 2772 
Q 2041 2772 1848 2508 
Q 1656 2244 1656 1747 
Q 1656 1250 1848 986 
Q 2041 722 2400 722 
z
M 1656 2988 
Q 1888 3294 2169 3439 
Q 2450 3584 2816 3584 
Q 3463 3584 3878 3070 
Q 4294 2556 4294 1747 
Q 4294 938 3878 423 
Q 3463 -91 2816 -91 
Q 2450 -91 2169 54 
Q 1888 200 1656 506 
L 1656 0 
L 538 0 
L 538 4863 
L 1656 4863 
L 1656 2988 
z
" transform="scale(0.015625)"/>
      <path id="DejaVuSans-Bold-66" d="M 2841 4863 
L 2841 4128 
L 2222 4128 
Q 1984 4128 1890 4042 
Q 1797 3956 1797 3744 
L 1797 3500 
L 2753 3500 
L 2753 2700 
L 1797 2700 
L 1797 0 
L 678 0 
L 678 2700 
L 122 2700 
L 122 3500 
L 678 3500 
L 678 3744 
Q 678 4316 997 4589 
Q 1316 4863 1984 4863 
L 2841 4863 
z
" transform="scale(0.015625)"/>
      <path id="DejaVuSans-Bold-7a" d="M 366 3500 
L 3419 3500 
L 3419 2719 
L 1575 800 
L 3419 800 
L 3419 0 
L 288 0 
L 288 781 
L 2131 2700 
L 366 2700 
L 366 3500 
z
" transform="scale(0.015625)"/>
     </defs>
     <use xlink:href="#DejaVuSans-Bold-67" transform="translate(0 0.015625)"/>
     <use xlink:href="#DejaVuSans-Bold-6c" transform="translate(71.582031 0.015625)"/>
     <use xlink:href="#DejaVuSans-Bold-6f" transform="translate(105.859375 0.015625)"/>
     <use xlink:href="#DejaVuSans-Bold-62" transform="translate(174.560547 0.015625)"/>
     <use xlink:href="#DejaVuSans-Bold-61" transform="translate(246.142578 0.015625)"/>
     <use xlink:href="#DejaVuSans-Bold-6c" transform="translate(313.623047 0.015625)"/>
     <use xlink:href="#DejaVuSans-Bold-20" transform="translate(347.900391 0.015625)"/>
     <use xlink:href="#DejaVuSans-Bold-66" transform="translate(382.714844 0.015625)"/>
     <use xlink:href="#DejaVuSans-Bold-6c" transform="translate(426.220703 0.015625)"/>
     <use xlink:href="#DejaVuSans-Bold-6f" transform="translate(460.498047 0.015625)"/>
     <use xlink:href="#DejaVuSans-Bold-77" transform="translate(529.199219 0.015625)"/>
     <use xlink:href="#DejaVuSans-Bold-20" transform="translate(621.582031 0.015625)"/>
     <use xlink:href="#DejaVuSans-Bold-6f" transform="translate(656.396484 0.015625)"/>
     <use xlink:href="#DejaVuSans-Bold-70" transform="translate(725.097656 0.015625)"/>
     <use xlink:href="#DejaVuSans-Bold-74" transform="translate(796.679688 0.015625)"/>
     <use xlink:href="#DejaVuSans-Bold-69" transform="translate(844.482422 0.015625)"/>
     <use xlink:href="#DejaVuSans-Bold-6d" transform="translate(878.759766 0.015625)"/>
     <use xlink:href="#DejaVuSans-Bold-69" transform="translate(982.958984 0.015625)"/>
     <use xlink:href="#DejaVuSans-Bold-7a" transform="translate(1017.236328 0.015625)"/>
     <use xlink:href="#DejaVuSans-Bold-61" transform="translate(1075.439453 0.015625)"/>
     <use xlink:href="#DejaVuSans-Bold-74" transform="translate(1142.919922 0.015625)"/>
     <use xlink:href="#DejaVuSans-Bold-69" transform="translate(1190.722656 0.015625)"/>
     <use xlink:href="#DejaVuSans-Bold-6f" transform="translate(1225 0.015625)"/>
     <use xlink:href="#DejaVuSans-Bold-6e" transform="translate(1293.701172 0.015625)"/>
     <use xlink:href="#DejaVuSans-Bold-20" transform="translate(1364.892578 0.015625)"/>
     <use xlink:href="#DejaVuSans-2192" transform="translate(1419.189453 0.015625)"/>
    </g>
   </g>
   <g id="text_19">
    <!-- Positioning: FCNP vs. Prior Context-Compression Methods -->
    <g transform="translate(7.2 16.318125) scale(0.12 -0.12)">
     <defs>
      <path id="DejaVuSans-Bold-3a" d="M 716 3500 
L 1844 3500 
L 1844 2291 
L 716 2291 
L 716 3500 
z
M 716 1209 
L 1844 1209 
L 1844 0 
L 716 0 
L 716 1209 
z
" transform="scale(0.015625)"/>
      <path id="DejaVuSans-Bold-2e" d="M 653 1209 
L 1778 1209 
L 1778 0 
L 653 0 
L 653 1209 
z
" transform="scale(0.015625)"/>
     </defs>
     <use xlink:href="#DejaVuSans-Bold-50"/>
     <use xlink:href="#DejaVuSans-Bold-6f" transform="translate(73.291016 0)"/>
     <use xlink:href="#DejaVuSans-Bold-73" transform="translate(141.992188 0)"/>
     <use xlink:href="#DejaVuSans-Bold-69" transform="translate(201.513672 0)"/>
     <use xlink:href="#DejaVuSans-Bold-74" transform="translate(235.791016 0)"/>
     <use xlink:href="#DejaVuSans-Bold-69" transform="translate(283.59375 0)"/>
     <use xlink:href="#DejaVuSans-Bold-6f" transform="translate(317.871094 0)"/>
     <use xlink:href="#DejaVuSans-Bold-6e" transform="translate(386.572266 0)"/>
     <use xlink:href="#DejaVuSans-Bold-69" transform="translate(457.763672 0)"/>
     <use xlink:href="#DejaVuSans-Bold-6e" transform="translate(492.041016 0)"/>
     <use xlink:href="#DejaVuSans-Bold-67" transform="translate(563.232422 0)"/>
     <use xlink:href="#DejaVuSans-Bold-3a" transform="translate(634.814453 0)"/>
     <use xlink:href="#DejaVuSans-Bold-20" transform="translate(674.804688 0)"/>
     <use xlink:href="#DejaVuSans-Bold-46" transform="translate(709.619141 0)"/>
     <use xlink:href="#DejaVuSans-Bold-43" transform="translate(777.929688 0)"/>
     <use xlink:href="#DejaVuSans-Bold-4e" transform="translate(851.318359 0)"/>
     <use xlink:href="#DejaVuSans-Bold-50" transform="translate(935.009766 0)"/>
     <use xlink:href="#DejaVuSans-Bold-20" transform="translate(1008.300781 0)"/>
     <use xlink:href="#DejaVuSans-Bold-76" transform="translate(1043.115234 0)"/>
     <use xlink:href="#DejaVuSans-Bold-73" transform="translate(1108.300781 0)"/>
     <use xlink:href="#DejaVuSans-Bold-2e" transform="translate(1167.822266 0)"/>
     <use xlink:href="#DejaVuSans-Bold-20" transform="translate(1205.810547 0)"/>
     <use xlink:href="#DejaVuSans-Bold-50" transform="translate(1240.625 0)"/>
     <use xlink:href="#DejaVuSans-Bold-72" transform="translate(1313.916016 0)"/>
     <use xlink:href="#DejaVuSans-Bold-69" transform="translate(1363.232422 0)"/>
     <use xlink:href="#DejaVuSans-Bold-6f" transform="translate(1397.509766 0)"/>
     <use xlink:href="#DejaVuSans-Bold-72" transform="translate(1466.210938 0)"/>
     <use xlink:href="#DejaVuSans-Bold-20" transform="translate(1515.527344 0)"/>
     <use xlink:href="#DejaVuSans-Bold-43" transform="translate(1550.341797 0)"/>
     <use xlink:href="#DejaVuSans-Bold-6f" transform="translate(1623.730469 0)"/>
     <use xlink:href="#DejaVuSans-Bold-6e" transform="translate(1692.431641 0)"/>
     <use xlink:href="#DejaVuSans-Bold-74" transform="translate(1763.623047 0)"/>
     <use xlink:href="#DejaVuSans-Bold-65" transform="translate(1811.425781 0)"/>
     <use xlink:href="#DejaVuSans-Bold-78" transform="translate(1879.248047 0)"/>
     <use xlink:href="#DejaVuSans-Bold-74" transform="translate(1943.75 0)"/>
     <use xlink:href="#DejaVuSans-Bold-2d" transform="translate(1991.552734 0)"/>
     <use xlink:href="#DejaVuSans-Bold-43" transform="translate(2033.056641 0)"/>
     <use xlink:href="#DejaVuSans-Bold-6f" transform="translate(2106.445312 0)"/>
     <use xlink:href="#DejaVuSans-Bold-6d" transform="translate(2175.146484 0)"/>
     <use xlink:href="#DejaVuSans-Bold-70" transform="translate(2279.345703 0)"/>
     <use xlink:href="#DejaVuSans-Bold-72" transform="translate(2350.927734 0)"/>
     <use xlink:href="#DejaVuSans-Bold-65" transform="translate(2400.244141 0)"/>
     <use xlink:href="#DejaVuSans-Bold-73" transform="translate(2468.066406 0)"/>
     <use xlink:href="#DejaVuSans-Bold-73" transform="translate(2527.587891 0)"/>
     <use xlink:href="#DejaVuSans-Bold-69" transform="translate(2587.109375 0)"/>
     <use xlink:href="#DejaVuSans-Bold-6f" transform="translate(2621.386719 0)"/>
     <use xlink:href="#DejaVuSans-Bold-6e" transform="translate(2690.087891 0)"/>
     <use xlink:href="#DejaVuSans-Bold-20" transform="translate(2761.279297 0)"/>
     <use xlink:href="#DejaVuSans-Bold-4d" transform="translate(2796.09375 0)"/>
     <use xlink:href="#DejaVuSans-Bold-65" transform="translate(2895.605469 0)"/>
     <use xlink:href="#DejaVuSans-Bold-74" transform="translate(2963.427734 0)"/>
     <use xlink:href="#DejaVuSans-Bold-68" transform="translate(3011.230469 0)"/>
     <use xlink:href="#DejaVuSans-Bold-6f" transform="translate(3082.421875 0)"/>
     <use xlink:href="#DejaVuSans-Bold-64" transform="translate(3151.123047 0)"/>
     <use xlink:href="#DejaVuSans-Bold-73" transform="translate(3222.705078 0)"/>
    </g>
   </g>
  </g>
 </g>
 <defs>
  <clipPath id="pfc642aa864">
   <rect x="7.2" y="26.318125" width="558" height="343.728"/>
  </clipPath>
 </defs>
</svg>
